<?xml version="1.0" encoding="UTF-8" standalone="no"?>
<!DOCTYPE svg PUBLIC "-//W3C//DTD SVG 1.1//EN"
 "http://www.w3.org/Graphics/SVG/1.1/DTD/svg11.dtd">
<!-- Generated by graphviz version 12.2.1 (20241206.2353)
 -->
<!-- Title: c_sumo_bmi_dflowfm_coupling Pages: 1 -->
<!--zoomable 995 -->

<svg id="main" version="1.1" xmlns="http://www.w3.org/2000/svg" xmlns:xlink="http://www.w3.org/1999/xlink" xml:space="preserve" onload="init(evt)">

<style type="text/css"><![CDATA[
.node, .edge {opacity: 0.7;}
.node.selected, .edge.selected {opacity: 1;}
.edge:hover path { stroke: red; }
.edge:hover polygon { stroke: red; fill: red; }
]]></style>

<defs>
  <circle id="rim" cx="0" cy="0" r="7"/>
  <circle id="rim2" cx="0" cy="0" r="3.5"/>
  <g id="zoomPlus">
    <use xlink:href="#rim" fill="#404040"><set attributeName="fill" to="#808080" begin="zoomplus.mouseover" end="zoomplus.mouseout"/></use>
    <path d="M-4,0h8M0,-4v8" fill="none" stroke="white" stroke-width="1.5" pointer-events="none"/>
  </g>
  <g id="zoomMin">
    <use xlink:href="#rim" fill="#404040"><set attributeName="fill" to="#808080" begin="zoomminus.mouseover" end="zoomminus.mouseout"/></use>
    <path d="M-4,0h8" fill="none" stroke="white" stroke-width="1.5" pointer-events="none"/>
  </g>
  <g id="arrowUp" transform="translate(30 24)">
    <use xlink:href="#rim"/>
    <path pointer-events="none" fill="none" stroke="white" stroke-width="1.5" d="M0,-3.0v7 M-2.5,-0.5L0,-3.0L2.5,-0.5"/>
  </g>
  <g id="arrowRight" transform="rotate(90) translate(36 -43)">
    <use xlink:href="#rim"/>
    <path pointer-events="none" fill="none" stroke="white" stroke-width="1.5" d="M0,-3.0v7 M-2.5,-0.5L0,-3.0L2.5,-0.5"/>
  </g>
  <g id="arrowDown" transform="rotate(180) translate(-30 -48)">
    <use xlink:href="#rim"/>
    <path pointer-events="none" fill="none" stroke="white" stroke-width="1.5" d="M0,-3.0v7 M-2.5,-0.5L0,-3.0L2.5,-0.5"/>
  </g>
  <g id="arrowLeft" transform="rotate(270) translate(-36 17)">
    <use xlink:href="#rim"/>
    <path pointer-events="none" fill="none" stroke="white" stroke-width="1.5" d="M0,-3.0v7 M-2.5,-0.5L0,-3.0L2.5,-0.5"/>
  </g>
  <g id="resetDef">
    <use xlink:href="#rim2" fill="#404040"><set attributeName="fill" to="#808080" begin="reset.mouseover" end="reset.mouseout"/></use>
  </g>
</defs>
<script type="application/ecmascript">
var viewWidth = 1567;
var viewHeight = 995;
</script>
<script type="application/ecmascript" xlink:href="svg.min.js"/>
<svg id="graph" class="graph">
<g id="viewport">
<title>c_sumo_bmi_dflowfm_coupling</title>
<polygon fill="white" stroke="none" points="-4,4 -4,-990.57 1563.04,-990.57 1563.04,4 -4,4"/>
<!-- dflowfm -->
<g id="node1" class="node">
<title>dflowfm</title>
<polygon fill="#e3f2fd" stroke="black" points="678.54,-419.38 498.54,-419.38 498.54,-269.12 678.54,-269.12 678.54,-419.38"/>
<text text-anchor="middle" x="588.54" y="-403.98" font-family="Arial" font-size="12.00">DFlowFM</text>
<text text-anchor="middle" x="588.54" y="-389.73" font-family="Arial" font-size="12.00">(dflowfm library)</text>
<text text-anchor="middle" x="588.54" y="-361.48" font-family="Arial" font-size="12.00">BMI Interface:</text>
<text text-anchor="middle" x="588.54" y="-347.23" font-family="Arial" font-size="12.00">• initialize(config)</text>
<text text-anchor="middle" x="588.54" y="-332.98" font-family="Arial" font-size="12.00">• update(dt)</text>
<text text-anchor="middle" x="588.54" y="-318.73" font-family="Arial" font-size="12.00">• get_var(name, ptr)</text>
<text text-anchor="middle" x="588.54" y="-304.48" font-family="Arial" font-size="12.00">• set_var(name, ptr)</text>
<text text-anchor="middle" x="588.54" y="-290.23" font-family="Arial" font-size="12.00">• get_var_shape(name)</text>
<text text-anchor="middle" x="588.54" y="-275.98" font-family="Arial" font-size="12.00">• finalize()</text>
</g>
<!-- cosumo -->
<g id="node2" class="node">
<title>cosumo</title>
<polygon fill="#fff3e0" stroke="black" points="1559.04,-369.38 1379.04,-369.38 1379.04,-219.12 1559.04,-219.12 1559.04,-369.38"/>
<text text-anchor="middle" x="1469.04" y="-353.98" font-family="Arial" font-size="12.00">COSUMO</text>
<text text-anchor="middle" x="1469.04" y="-339.73" font-family="Arial" font-size="12.00">(cosumo_bmi library)</text>
<text text-anchor="middle" x="1469.04" y="-311.48" font-family="Arial" font-size="12.00">BMI Interface:</text>
<text text-anchor="middle" x="1469.04" y="-297.23" font-family="Arial" font-size="12.00">• initialize(config)</text>
<text text-anchor="middle" x="1469.04" y="-282.98" font-family="Arial" font-size="12.00">• update(dt)</text>
<text text-anchor="middle" x="1469.04" y="-268.73" font-family="Arial" font-size="12.00">• get_var(name, ptr)</text>
<text text-anchor="middle" x="1469.04" y="-254.47" font-family="Arial" font-size="12.00">• set_var(name, ptr)</text>
<text text-anchor="middle" x="1469.04" y="-240.22" font-family="Arial" font-size="12.00">• get_var_shape(name)</text>
<text text-anchor="middle" x="1469.04" y="-225.97" font-family="Arial" font-size="12.00">• finalize()</text>
</g>
<!-- dflowfm&#45;&gt;cosumo -->
<g id="edge3" class="edge">
<title>dflowfm&#45;&gt;cosumo</title>
<path fill="none" stroke="#1976d2" stroke-width="2" d="M592.6,-419.86C601.25,-521.43 633.36,-698.6 750.54,-780.25 953.48,-921.64 1106.53,-925.05 1307.04,-780.25 1432.98,-689.31 1462,-496.03 1467.74,-382.53"/>
<polygon fill="#1976d2" stroke="#1976d2" stroke-width="2" points="1471.22,-382.94 1468.17,-372.8 1464.23,-382.64 1471.22,-382.94"/>
<text text-anchor="middle" x="1028.79" y="-973.27" font-family="Times New Roman,serif" font-size="14.00" fill="#1976d2">Geometry (pointers):</text>
<text text-anchor="middle" x="1028.79" y="-956.77" font-family="Times New Roman,serif" font-size="14.00" fill="#1976d2">• xcc &#45; cell center X coords</text>
<text text-anchor="middle" x="1028.79" y="-940.27" font-family="Times New Roman,serif" font-size="14.00" fill="#1976d2">• ycc &#45; cell center Y coords</text>
<text text-anchor="middle" x="1028.79" y="-923.77" font-family="Times New Roman,serif" font-size="14.00" fill="#1976d2">• z_level &#45; vertical layer levels</text>
<text text-anchor="middle" x="1028.79" y="-907.27" font-family="Times New Roman,serif" font-size="14.00" fill="#1976d2">• kbot &#45; bottom layer indices</text>
<text text-anchor="middle" x="1028.79" y="-890.77" font-family="Times New Roman,serif" font-size="14.00" fill="#1976d2">• ktop &#45; top layer indices</text>
</g>
<!-- dflowfm&#45;&gt;cosumo -->
<g id="edge4" class="edge">
<title>dflowfm&#45;&gt;cosumo</title>
<path fill="none" stroke="#0288d1" stroke-width="2" d="M613.11,-419.59C636.93,-481.52 680.39,-565.18 750.54,-604.25 858.58,-664.42 1201.35,-668.46 1307.04,-604.25 1385.93,-556.33 1427.92,-455.82 1449.01,-382.19"/>
<polygon fill="#0288d1" stroke="#0288d1" stroke-width="2" points="1452.36,-383.18 1451.65,-372.61 1445.62,-381.32 1452.36,-383.18"/>
<text text-anchor="middle" x="1028.79" y="-736.59" font-family="Times New Roman,serif" font-size="14.00" fill="#0288d1">Hydrodynamic Fields (pointers):</text>
<text text-anchor="middle" x="1028.79" y="-720.09" font-family="Times New Roman,serif" font-size="14.00" fill="#0288d1">• water_depth</text>
<text text-anchor="middle" x="1028.79" y="-703.59" font-family="Times New Roman,serif" font-size="14.00" fill="#0288d1">• velocity_x</text>
<text text-anchor="middle" x="1028.79" y="-687.09" font-family="Times New Roman,serif" font-size="14.00" fill="#0288d1">• velocity_y</text>
<text text-anchor="middle" x="1028.79" y="-670.59" font-family="Times New Roman,serif" font-size="14.00" fill="#0288d1">• rho (density)</text>
<text text-anchor="middle" x="1028.79" y="-654.09" font-family="Times New Roman,serif" font-size="14.00" fill="#0288d1">• constituents (dim(NUMCONST,Ndkx))</text>
</g>
<!-- dflowfm&#45;&gt;cosumo -->
<g id="edge5" class="edge">
<title>dflowfm&#45;&gt;cosumo</title>
<path fill="none" stroke="#0097a7" stroke-width="2" d="M679.02,-411.84C701.27,-425.18 725.86,-437.21 750.54,-444.25 869.46,-478.18 1191.97,-489.55 1307.04,-444.25 1342.18,-430.42 1374.19,-404.9 1400.24,-378.79"/>
<polygon fill="#0097a7" stroke="#0097a7" stroke-width="2" points="1402.65,-381.34 1407.1,-371.72 1397.62,-376.47 1402.65,-381.34"/>
<text text-anchor="middle" x="1028.79" y="-543.31" font-family="Times New Roman,serif" font-size="14.00" fill="#0097a7">Scalars &amp; Metadata:</text>
<text text-anchor="middle" x="1028.79" y="-526.81" font-family="Times New Roman,serif" font-size="14.00" fill="#0097a7">• isalt &#45; index of salinity in constituents array </text>
<text text-anchor="middle" x="1028.79" y="-510.31" font-family="Times New Roman,serif" font-size="14.00" fill="#0097a7">• itemp &#45; index of temperature in constituents array</text>
<text text-anchor="middle" x="1028.79" y="-493.81" font-family="Times New Roman,serif" font-size="14.00" fill="#0097a7">• runid &#45; simulation ID</text>
<text text-anchor="middle" x="1028.79" y="-477.31" font-family="Times New Roman,serif" font-size="14.00" fill="#0097a7">• constituents_names</text>
</g>
<!-- cosumo&#45;&gt;dflowfm -->
<g id="edge6" class="edge">
<title>cosumo&#45;&gt;dflowfm</title>
<path fill="none" stroke="#e65100" stroke-width="2" d="M1378.6,-279.85C1241.79,-260.58 972.98,-233.62 750.54,-277.75 730.64,-281.7 710.12,-288.14 690.66,-295.5"/>
<polygon fill="#e65100" stroke="#e65100" stroke-width="2" points="689.55,-292.18 681.52,-299.09 692.11,-298.7 689.55,-292.18"/>
<text text-anchor="middle" x="1028.79" y="-412.95" font-family="Times New Roman,serif" font-size="14.00" fill="#e65100">Source/Sink Terms (pointers):</text>
<text text-anchor="middle" x="1028.79" y="-396.45" font-family="Times New Roman,serif" font-size="14.00" fill="#e65100">• nf_q_source &#45; total discharge from diffuser </text>
<text text-anchor="middle" x="1028.79" y="-379.95" font-family="Times New Roman,serif" font-size="14.00" fill="#e65100">• nf_q_intake &#45; total withdrawal at intake </text>
<text text-anchor="middle" x="1028.79" y="-363.45" font-family="Times New Roman,serif" font-size="14.00" fill="#e65100">• nf_const &#45; constituent values for discharge water </text>
<text text-anchor="middle" x="1028.79" y="-346.95" font-family="Times New Roman,serif" font-size="14.00" fill="#e65100">• nf_intake &#45; intake locations</text>
<text text-anchor="middle" x="1028.79" y="-330.45" font-family="Times New Roman,serif" font-size="14.00" fill="#e65100">• nf_sink &#45; sinks distribution points </text>
<text text-anchor="middle" x="1028.79" y="-313.95" font-family="Times New Roman,serif" font-size="14.00" fill="#e65100">• nf_sour &#45; sources distribution points </text>
<text text-anchor="middle" x="1028.79" y="-297.45" font-family="Times New Roman,serif" font-size="14.00" fill="#e65100">• nf_const_operator &#45; absolute concentration (as specified) or excess concentration (added to ambient)</text>
<text text-anchor="middle" x="1028.79" y="-280.95" font-family="Times New Roman,serif" font-size="14.00" fill="#e65100">• nf_src_mom &#45; is source momentum provided</text>
</g>
<!-- dimr -->
<g id="node3" class="node">
<title>dimr</title>
<ellipse fill="#f3e5f5" stroke="black" cx="143.9" cy="-180.25" rx="143.9" ry="86.09"/>
<text text-anchor="middle" x="143.9" y="-225.72" font-family="Arial" font-size="12.00">DIMR</text>
<text text-anchor="middle" x="143.9" y="-211.47" font-family="Arial" font-size="12.00">(Deltares Integrated Model Runner)</text>
<text text-anchor="middle" x="143.9" y="-183.22" font-family="Arial" font-size="12.00">Controls:</text>
<text text-anchor="middle" x="143.9" y="-168.97" font-family="Arial" font-size="12.00">• Kernel execution</text>
<text text-anchor="middle" x="143.9" y="-154.72" font-family="Arial" font-size="12.00">• Time synchronization</text>
<text text-anchor="middle" x="143.9" y="-140.47" font-family="Arial" font-size="12.00">• Data coupling</text>
<text text-anchor="middle" x="143.9" y="-126.22" font-family="Arial" font-size="12.00">• Pointer sharing</text>
</g>
<!-- dimr&#45;&gt;dflowfm -->
<g id="edge1" class="edge">
<title>dimr&#45;&gt;dflowfm</title>
<path fill="none" stroke="gray" stroke-dasharray="5,2" d="M266.73,-225.39C336.18,-251.12 422.15,-282.97 487.6,-307.22"/>
<polygon fill="gray" stroke="gray" points="486.32,-310.48 496.92,-310.67 488.75,-303.92 486.32,-310.48"/>
<text text-anchor="middle" x="393.17" y="-284.96" font-family="Times New Roman,serif" font-size="14.00">start, update</text>
</g>
<!-- dimr&#45;&gt;cosumo -->
<g id="edge2" class="edge">
<title>dimr&#45;&gt;cosumo</title>
<path fill="none" stroke="gray" stroke-dasharray="5,2" d="M287.43,-173.62C508.24,-166.37 945.28,-164.06 1307.04,-236.25 1327.17,-240.27 1348.16,-246.34 1368.08,-253.07"/>
<polygon fill="gray" stroke="gray" points="1366.68,-256.28 1377.27,-256.25 1368.97,-249.67 1366.68,-256.28"/>
<text text-anchor="middle" x="588.54" y="-175.56" font-family="Times New Roman,serif" font-size="14.00">start, update</text>
</g>
<!-- logger -->
<g id="node4" class="node">
<title>logger</title>
<polygon fill="#fffde7" stroke="black" points="651.67,-36.5 519.42,-36.5 519.42,0 657.67,0 657.67,-30.5 651.67,-36.5"/>
<polyline fill="none" stroke="black" points="651.67,-36.5 651.67,-30.5"/>
<polyline fill="none" stroke="black" points="657.67,-30.5 651.67,-30.5"/>
<text text-anchor="middle" x="588.54" y="-21.1" font-family="Arial" font-size="12.00">Logger Output:</text>
<text text-anchor="middle" x="588.54" y="-6.85" font-family="Arial" font-size="12.00">cosumo_to_dflowfm.nc</text>
</g>
<!-- dimr&#45;&gt;logger -->
<g id="edge7" class="edge">
<title>dimr&#45;&gt;logger</title>
<path fill="none" stroke="gray" stroke-dasharray="1,5" d="M267.32,-135.45C351.3,-104.71 459.21,-65.22 525.85,-40.83"/>
<polygon fill="gray" stroke="gray" points="526.98,-44.14 535.17,-37.42 524.57,-37.57 526.98,-44.14"/>
</g>
</g>
</svg>

<g id="navigator" transform="translate(0 0)" fill="#404254">
  <rect fill="#f2f5e9" fill-opacity="0.5" stroke="#606060" stroke-width=".5" x="0" y="0" width="60" height="60"/>
  <use id="zoomplus" xlink:href="#zoomPlus" x="17" y="9" onmousedown="handleZoom(evt,'in')"/>
  <use id="zoomminus" xlink:href="#zoomMin" x="42" y="9" onmousedown="handleZoom(evt,'out')"/>
  <use id="reset" xlink:href="#resetDef" x="30" y="36" onmousedown="handleReset()"/>
   <use id="arrowup" xlink:href="#arrowUp" x="0" y="0" onmousedown="handlePan(0,-1)"/>
  <use id="arrowright" xlink:href="#arrowRight" x="0" y="0" onmousedown="handlePan(1,0)"/>
  <use id="arrowdown" xlink:href="#arrowDown" x="0" y="0" onmousedown="handlePan(0,1)"/>
  <use id="arrowleft" xlink:href="#arrowLeft" x="0" y="0" onmousedown="handlePan(-1,0)"/>
</g>
<svg viewBox="0 0 15 15" width="100%" height="30px" preserveAspectRatio="xMaxYMin meet">
 <g id="arrow_out" transform="scale(0.3 0.3)">
  <a xlink:href="dot_c-sumo_bmi_dflowfm_interface_org.svg" target="_base">
   <rect id="button" ry="5" rx="5" y="6" x="6" height="38" width="38"
        fill="#f2f5e9" fill-opacity="0.5" stroke="#606060" stroke-width="1.0"/>
   <path id="arrow"
     d="M 11.500037,31.436501 C 11.940474,20.09759 22.043105,11.32322 32.158766,21.979434 L 37.068811,17.246167 C 37.068811,17.246167 37.088388,32 37.088388,32 L 22.160133,31.978069 C 22.160133,31.978069 26.997745,27.140456 26.997745,27.140456 C 18.528582,18.264221 13.291696,25.230495 11.500037,31.436501 z"
     style="fill:#404040;"/>
  </a>
 </g>
</svg>

<style type='text/css'>
<![CDATA[
[data-mouse-over-selected='false'] { opacity: 0.7; }
[data-mouse-over-selected='true']  { opacity: 1.0; }
]]>
</style>
<script type="application/ecmascript"><![CDATA[
document.addEventListener('DOMContentLoaded', (event) => {
  highlightEdges();
  highlightAdjacentNodes();
});
]]></script>
</svg>
