<?xml version="1.0" encoding="UTF-8" standalone="no"?>
<!-- Creator: fig2dev Version 3.2.7a -->

<!-- CreationDate: 2020-01-27 15:33:42 -->

<!-- Magnification: 1 -->

<svg
   xmlns:dc="http://purl.org/dc/elements/1.1/"
   xmlns:cc="http://creativecommons.org/ns#"
   xmlns:rdf="http://www.w3.org/1999/02/22-rdf-syntax-ns#"
   xmlns:svg="http://www.w3.org/2000/svg"
   xmlns="http://www.w3.org/2000/svg"
   xmlns:xlink="http://www.w3.org/1999/xlink"
   xmlns:sodipodi="http://sodipodi.sourceforge.net/DTD/sodipodi-0.dtd"
   xmlns:inkscape="http://www.inkscape.org/namespaces/inkscape"
   width="780pt"
   height="789pt"
   viewBox="8618 3738 12994 13149"
   version="1.1"
   id="svg305"
   sodipodi:docname="boundary_cells.svg"
   inkscape:version="0.92.4 (5da689c313, 2019-01-14)">
  <metadata
     id="metadata311">
    <rdf:RDF>
      <cc:Work
         rdf:about="">
        <dc:format>image/svg+xml</dc:format>
        <dc:type
           rdf:resource="http://purl.org/dc/dcmitype/StillImage" />
        <dc:title></dc:title>
      </cc:Work>
    </rdf:RDF>
  </metadata>
  <defs
     id="defs309">
    <marker
       inkscape:stockid="Arrow1Mend"
       orient="auto"
       refY="0.0"
       refX="0.0"
       id="Arrow1Mend"
       style="overflow:visible;"
       inkscape:isstock="true">
      <path
         id="path4985"
         d="M 0.0,0.0 L 5.0,-5.0 L -12.5,0.0 L 5.0,5.0 L 0.0,0.0 z "
         style="fill-rule:evenodd;stroke:#000000;stroke-width:1pt;stroke-opacity:1;fill:#000000;fill-opacity:1"
         transform="scale(0.4) rotate(180) translate(10,0)" />
    </marker>
    <marker
       inkscape:stockid="Arrow1Mstart"
       orient="auto"
       refY="0.0"
       refX="0.0"
       id="Arrow1Mstart"
       style="overflow:visible"
       inkscape:isstock="true">
      <path
         id="path4982"
         d="M 0.0,0.0 L 5.0,-5.0 L -12.5,0.0 L 5.0,5.0 L 0.0,0.0 z "
         style="fill-rule:evenodd;stroke:#000000;stroke-width:1pt;stroke-opacity:1;fill:#000000;fill-opacity:1"
         transform="scale(0.4) translate(10,0)" />
    </marker>
    <marker
       inkscape:stockid="Arrow1Sstart"
       orient="auto"
       refY="0.0"
       refX="0.0"
       id="marker5260"
       style="overflow:visible"
       inkscape:isstock="true">
      <path
         id="path5258"
         d="M 0.0,0.0 L 5.0,-5.0 L -12.5,0.0 L 5.0,5.0 L 0.0,0.0 z "
         style="fill-rule:evenodd;stroke:#000000;stroke-width:1pt;stroke-opacity:1;fill:#000000;fill-opacity:1"
         transform="scale(0.2) translate(6,0)" />
    </marker>
    <marker
       inkscape:stockid="Arrow1Sstart"
       orient="auto"
       refY="0.0"
       refX="0.0"
       id="Arrow1Sstart"
       style="overflow:visible"
       inkscape:isstock="true">
      <path
         id="path4988"
         d="M 0.0,0.0 L 5.0,-5.0 L -12.5,0.0 L 5.0,5.0 L 0.0,0.0 z "
         style="fill-rule:evenodd;stroke:#000000;stroke-width:1pt;stroke-opacity:1;fill:#000000;fill-opacity:1"
         transform="scale(0.2) translate(6,0)" />
    </marker>
    <defs
       id="defs8">
      <polygon
         id="p0"
         points="10275,11550 9900,13500 9300,13350 9750,11400 10500,9600 11325,7950 12300,6525 12675,6825 11775,8175 11025,9750 " />
      <pattern
         height="67"
         width="134"
         y="0"
         x="0"
         patternUnits="userSpaceOnUse"
         id="tile0">
        <g
           id="g5"
           fill="none"
           stroke="#000000"
           stroke-width="7.5">
          <path
             id="path3"
             d="M -7,37 73,-3 M 61,70 141,30" />
        </g>
      </pattern>
    </defs>
    <defs
       id="defs293">
      <clipPath
         id="cp0">
        <path
           style="clip-rule:evenodd"
           inkscape:connector-curvature="0"
           id="path290"
           d="M 8618,3738 H 21612 V 16887 H 8618 Z m 3887,2756 -83,-92 116,42 -132,-60 -7,11 z m 667,376 83,92 -116,-42 132,60 7,-11 z" />
      </clipPath>
    </defs>
    <marker
       inkscape:stockid="Arrow1Mstart"
       orient="auto"
       refY="0"
       refX="0"
       id="Arrow1Mstart-1"
       style="overflow:visible"
       inkscape:isstock="true">
      <path
         inkscape:connector-curvature="0"
         id="path4982-4"
         d="M 0,0 5,-5 -12.5,0 5,5 Z"
         style="fill:#000000;fill-opacity:1;fill-rule:evenodd;stroke:#000000;stroke-width:1.00000003pt;stroke-opacity:1"
         transform="matrix(0.4,0,0,0.4,4,0)" />
    </marker>
    <marker
       inkscape:stockid="Arrow1Mend"
       orient="auto"
       refY="0"
       refX="0"
       id="Arrow1Mend-4"
       style="overflow:visible"
       inkscape:isstock="true">
      <path
         inkscape:connector-curvature="0"
         id="path4985-7"
         d="M 0,0 5,-5 -12.5,0 5,5 Z"
         style="fill:#000000;fill-opacity:1;fill-rule:evenodd;stroke:#000000;stroke-width:1.00000003pt;stroke-opacity:1"
         transform="matrix(-0.4,0,0,-0.4,-4,0)" />
    </marker>
  </defs>
  <sodipodi:namedview
     pagecolor="#ffffff"
     bordercolor="#666666"
     borderopacity="1"
     objecttolerance="10"
     gridtolerance="10"
     guidetolerance="10"
     inkscape:pageopacity="0"
     inkscape:pageshadow="2"
     inkscape:window-width="1920"
     inkscape:window-height="1027"
     id="namedview307"
     showgrid="false"
     inkscape:zoom="1.2690281"
     inkscape:cx="41.555425"
     inkscape:cy="657.66288"
     inkscape:window-x="1912"
     inkscape:window-y="-8"
     inkscape:window-maximized="1"
     inkscape:current-layer="svg305" />
  <use
     height="100%"
     width="100%"
     y="0"
     x="0"
     style="fill:#ffffff"
     id="use10"
     xlink:href="#p0" />
  <use
     height="100%"
     width="100%"
     y="0"
     x="0"
     style="fill:#e0e0e0;fill-opacity:1"
     id="use12"
     xlink:href="#p0" />
  <polyline
     style="fill:none;stroke:#000000;stroke-width:8px"
     id="polyline14"
     points=" 10950,11850 11250,11850" />
  <polyline
     style="fill:none;stroke:#000000;stroke-width:8px"
     id="polyline16"
     points=" 10148,15562 10148,15862" />
  <polyline
     style="fill:none;stroke:#000000;stroke-width:8px"
     id="polyline18"
     points=" 9998,15712 10298,15712" />
  <polyline
     style="fill:none;stroke:#000000;stroke-width:8px"
     id="polyline20"
     points=" 11768,15912 11768,16212" />
  <polyline
     style="fill:none;stroke:#000000;stroke-width:8px"
     id="polyline22"
     points=" 11618,16062 11918,16062" />
  <polyline
     style="fill:none;stroke:#000000;stroke-width:8px"
     id="polyline24"
     points=" 12378,15362 12378,15662" />
  <polyline
     style="fill:none;stroke:#000000;stroke-width:8px"
     id="polyline26"
     points=" 12228,15512 12528,15512" />
  <polyline
     style="fill:none;stroke:#000000;stroke-width:8px"
     id="polyline28"
     points=" 12288,14122 12288,14422" />
  <polyline
     style="fill:none;stroke:#000000;stroke-width:8px"
     id="polyline30"
     points=" 12138,14272 12438,14272" />
  <polyline
     style="fill:none;stroke:#000000;stroke-width:8px"
     id="polyline32"
     points=" 12988,13462 12988,13762" />
  <polyline
     style="fill:none;stroke:#000000;stroke-width:8px"
     id="polyline34"
     points=" 12838,13612 13138,13612" />
  <polyline
     style="fill:none;stroke:#000000;stroke-width:8px"
     id="polyline36"
     points=" 13828,15842 13828,16142" />
  <polyline
     style="fill:none;stroke:#000000;stroke-width:8px"
     id="polyline38"
     points=" 13678,15992 13978,15992" />
  <polyline
     style="fill:none;stroke:#000000;stroke-width:8px"
     id="polyline40"
     points=" 14638,15162 14638,15462" />
  <polyline
     style="fill:none;stroke:#000000;stroke-width:8px"
     id="polyline42"
     points=" 14488,15312 14788,15312" />
  <polyline
     style="fill:none;stroke:#000000;stroke-width:8px"
     id="polyline44"
     points=" 14538,14002 14538,14302" />
  <polyline
     style="fill:none;stroke:#000000;stroke-width:8px"
     id="polyline46"
     points=" 14388,14152 14688,14152" />
  <polyline
     style="fill:none;stroke:#000000;stroke-width:8px"
     id="polyline48"
     points=" 15408,13192 15408,13492" />
  <polyline
     style="fill:none;stroke:#000000;stroke-width:8px"
     id="polyline50"
     points=" 15258,13342 15558,13342" />
  <polyline
     style="fill:none;stroke:#000000;stroke-width:8px"
     id="polyline52"
     points=" 13688,11512 13688,11812" />
  <polyline
     style="fill:none;stroke:#000000;stroke-width:8px"
     id="polyline54"
     points=" 13538,11662 13838,11662" />
  <polyline
     style="fill:none;stroke:#000000;stroke-width:8px"
     id="polyline56"
     points=" 12888,12352 12888,12652" />
  <polyline
     style="fill:none;stroke:#000000;stroke-width:8px"
     id="polyline58"
     points=" 12738,12502 13038,12502" />
  <polyline
     style="fill:none;stroke:#000000;stroke-width:8px"
     id="polyline60"
     points=" 10568,13642 10568,13942" />
  <polyline
     style="fill:none;stroke:#000000;stroke-width:8px"
     id="polyline62"
     points=" 10418,13792 10718,13792" />
  <polyline
     style="fill:none;stroke:#000000;stroke-width:8px"
     id="polyline64"
     points=" 10048,14202 10048,14502" />
  <polyline
     style="fill:none;stroke:#000000;stroke-width:8px"
     id="polyline66"
     points=" 9898,14352 10198,14352" />
  <polyline
     style="fill:none;stroke:#000000;stroke-width:8px"
     id="polyline68"
     points=" 11848,9832 11848,10132" />
  <polyline
     style="fill:none;stroke:#000000;stroke-width:8px"
     id="polyline70"
     points=" 11698,9982 11998,9982" />
  <polyline
     style="fill:none;stroke:#000000;stroke-width:8px"
     id="polyline72"
     points=" 11808,9122 11808,9422" />
  <polyline
     style="fill:none;stroke:#000000;stroke-width:8px"
     id="polyline74"
     points=" 11658,9272 11958,9272" />
  <polyline
     style="fill:none;stroke:#000000;stroke-width:8px"
     id="polyline76"
     points=" 12748,8022 12748,8322" />
  <polyline
     style="fill:none;stroke:#000000;stroke-width:8px"
     id="polyline78"
     points=" 12598,8172 12898,8172" />
  <polyline
     style="fill:none;stroke:#000000;stroke-width:8px"
     id="polyline80"
     points=" 14418,8842 14418,9142" />
  <polyline
     style="fill:none;stroke:#000000;stroke-width:8px"
     id="polyline82"
     points=" 14268,8992 14568,8992" />
  <polyline
     style="fill:none;stroke:#000000;stroke-width:8px"
     id="polyline84"
     points=" 14538,9582 14538,9882" />
  <polyline
     style="fill:none;stroke:#000000;stroke-width:8px"
     id="polyline86"
     points=" 14388,9732 14688,9732" />
  <polyline
     style="fill:none;stroke:#000000;stroke-width:8px"
     id="polyline88"
     points=" 13618,10592 13618,10892" />
  <polyline
     style="fill:none;stroke:#000000;stroke-width:8px"
     id="polyline90"
     points=" 13468,10742 13768,10742" />
  <polyline
     style="fill:none;stroke:#000000;stroke-width:8px"
     id="polyline92"
     points=" 13718,6232 13718,6532" />
  <polyline
     style="fill:none;stroke:#000000;stroke-width:8px"
     id="polyline94"
     points=" 13568,6382 13868,6382" />
  <polyline
     style="fill:none;stroke:#000000;stroke-width:8px"
     id="polyline96"
     points=" 13668,5992 13668,6292" />
  <polyline
     style="fill:none;stroke:#000000;stroke-width:8px"
     id="polyline98"
     points=" 13518,6142 13818,6142" />
  <polyline
     style="fill:none;stroke:#000000;stroke-width:8px"
     id="polyline100"
     points=" 15408,7672 15408,7972" />
  <polyline
     style="fill:none;stroke:#000000;stroke-width:8px"
     id="polyline102"
     points=" 15258,7822 15558,7822" />
  <polyline
     style="fill:none;stroke:#000000;stroke-width:8px"
     id="polyline104"
     points=" 15258,7022 15258,7322" />
  <polyline
     style="fill:none;stroke:#000000;stroke-width:8px"
     id="polyline106"
     points=" 15108,7172 15408,7172" />
  <polyline
     style="fill:none;stroke:#000000;stroke-width:8px"
     id="polyline108"
     points=" 16338,5682 16338,5982" />
  <polyline
     style="fill:none;stroke:#000000;stroke-width:8px"
     id="polyline110"
     points=" 16188,5832 16488,5832" />
  <polyline
     style="fill:none;stroke:#000000;stroke-width:8px"
     id="polyline112"
     points=" 17658,6012 17658,6312" />
  <polyline
     style="fill:none;stroke:#000000;stroke-width:8px"
     id="polyline114"
     points=" 17508,6162 17808,6162" />
  <polyline
     style="fill:none;stroke:#000000;stroke-width:8px"
     id="polyline116"
     points=" 17998,7072 17998,7372" />
  <polyline
     style="fill:none;stroke:#000000;stroke-width:8px"
     id="polyline118"
     points=" 17848,7222 18148,7222" />
  <polyline
     style="fill:none;stroke:#000000;stroke-width:8px"
     id="polyline120"
     points=" 16938,8262 16938,8562" />
  <polyline
     style="fill:none;stroke:#000000;stroke-width:8px"
     id="polyline122"
     points=" 16788,8412 17088,8412" />
  <polyline
     style="fill:none;stroke:#000000;stroke-width:8px"
     id="polyline124"
     points=" 17098,9202 17098,9502" />
  <polyline
     style="fill:none;stroke:#000000;stroke-width:8px"
     id="polyline126"
     points=" 16948,9352 17248,9352" />
  <polyline
     style="fill:none;stroke:#000000;stroke-width:8px"
     id="polyline128"
     points=" 16108,10272 16108,10572" />
  <polyline
     style="fill:none;stroke:#000000;stroke-width:8px"
     id="polyline130"
     points=" 15958,10422 16258,10422" />
  <polyline
     style="fill:none;stroke:#000000;stroke-width:8px"
     id="polyline132"
     points=" 16228,11232 16228,11532" />
  <polyline
     style="fill:none;stroke:#000000;stroke-width:8px"
     id="polyline134"
     points=" 16078,11382 16378,11382" />
  <polyline
     style="fill:none;stroke:#000000;stroke-width:8px"
     id="polyline136"
     points=" 15298,12152 15298,12452" />
  <polyline
     style="fill:none;stroke:#000000;stroke-width:8px"
     id="polyline138"
     points=" 15148,12302 15448,12302" />
  <polyline
     style="fill:none;stroke:#000000;stroke-width:8px"
     id="polyline140"
     points=" 17718,11882 17718,12182" />
  <polyline
     style="fill:none;stroke:#000000;stroke-width:8px"
     id="polyline142"
     points=" 17568,12032 17868,12032" />
  <polyline
     style="fill:none;stroke:#000000;stroke-width:8px"
     id="polyline144"
     points=" 17848,12962 17848,13262" />
  <polyline
     style="fill:none;stroke:#000000;stroke-width:8px"
     id="polyline146"
     points=" 17698,13112 17998,13112" />
  <polyline
     style="fill:none;stroke:#000000;stroke-width:8px"
     id="polyline148"
     points=" 16858,13832 16858,14132" />
  <polyline
     style="fill:none;stroke:#000000;stroke-width:8px"
     id="polyline150"
     points=" 16708,13982 17008,13982" />
  <polyline
     style="fill:none;stroke:#000000;stroke-width:8px"
     id="polyline152"
     points=" 16978,14942 16978,15242" />
  <polyline
     style="fill:none;stroke:#000000;stroke-width:8px"
     id="polyline154"
     points=" 16828,15092 17128,15092" />
  <polyline
     style="fill:none;stroke:#000000;stroke-width:8px"
     id="polyline156"
     points=" 16038,15722 16038,16022" />
  <polyline
     style="fill:none;stroke:#000000;stroke-width:8px"
     id="polyline158"
     points=" 15888,15872 16188,15872" />
  <polyline
     style="fill:none;stroke:#000000;stroke-width:8px"
     id="polyline160"
     points=" 18338,15582 18338,15882" />
  <polyline
     style="fill:none;stroke:#000000;stroke-width:8px"
     id="polyline162"
     points=" 18188,15732 18488,15732" />
  <polyline
     style="fill:none;stroke:#000000;stroke-width:8px"
     id="polyline164"
     points=" 19418,14742 19418,15042" />
  <polyline
     style="fill:none;stroke:#000000;stroke-width:8px"
     id="polyline166"
     points=" 19268,14892 19568,14892" />
  <polyline
     style="fill:none;stroke:#000000;stroke-width:8px"
     id="polyline168"
     points=" 19438,13652 19438,13952" />
  <polyline
     style="fill:none;stroke:#000000;stroke-width:8px"
     id="polyline170"
     points=" 19288,13802 19588,13802" />
  <polyline
     style="fill:none;stroke:#000000;stroke-width:8px"
     id="polyline172"
     points=" 20268,12702 20268,13002" />
  <polyline
     style="fill:none;stroke:#000000;stroke-width:8px"
     id="polyline174"
     points=" 20118,12852 20418,12852" />
  <polyline
     style="fill:none;stroke:#000000;stroke-width:8px"
     id="polyline176"
     points=" 20178,11602 20178,11902" />
  <polyline
     style="fill:none;stroke:#000000;stroke-width:8px"
     id="polyline178"
     points=" 20028,11752 20328,11752" />
  <polyline
     style="fill:none;stroke:#000000;stroke-width:8px"
     id="polyline180"
     points=" 18788,10902 18788,11202" />
  <polyline
     style="fill:none;stroke:#000000;stroke-width:8px"
     id="polyline182"
     points=" 18638,11052 18938,11052" />
  <polyline
     style="fill:none;stroke:#000000;stroke-width:8px"
     id="polyline184"
     points=" 18598,9832 18598,10132" />
  <polyline
     style="fill:none;stroke:#000000;stroke-width:8px"
     id="polyline186"
     points=" 18448,9982 18748,9982" />
  <polyline
     style="fill:none;stroke:#000000;stroke-width:8px"
     id="polyline188"
     points=" 19718,8762 19718,9062" />
  <polyline
     style="fill:none;stroke:#000000;stroke-width:8px"
     id="polyline190"
     points=" 19568,8912 19868,8912" />
  <polyline
     style="fill:none;stroke:#000000;stroke-width:8px"
     id="polyline192"
     points=" 19528,7622 19528,7922" />
  <polyline
     style="fill:none;stroke:#000000;stroke-width:8px"
     id="polyline194"
     points=" 19378,7772 19678,7772" />
  <polyline
     style="fill:none;stroke:#000000;stroke-width:8px"
     id="polyline196"
     points=" 12678,7674 12678,7974" />
  <polyline
     style="fill:none;stroke:#000000;stroke-width:8px"
     id="polyline198"
     points=" 12528,7824 12828,7824" />
  <polyline
     style="fill:none;stroke:#000000;stroke-width:8px"
     id="polyline200"
     points=" 10215,8299 10215,8599" />
  <polyline
     style="fill:none;stroke:#000000;stroke-width:8px"
     id="polyline202"
     points=" 10065,8449 10365,8449" />
  <polyline
     style="fill:none;stroke:#000000;stroke-width:8px"
     id="polyline204"
     points=" 9375,10091 9375,10391" />
  <polyline
     style="fill:none;stroke:#000000;stroke-width:8px"
     id="polyline206"
     points=" 9225,10241 9525,10241" />
  <polyline
     style="fill:none;stroke:#000000;stroke-width:8px"
     id="polyline208"
     points=" 11055,10738 11055,11038" />
  <polyline
     style="fill:none;stroke:#000000;stroke-width:8px"
     id="polyline210"
     points=" 10905,10888 11205,10888" />
  <polyline
     style="fill:none;stroke:#000000;stroke-width:8px"
     id="polyline212"
     points=" 8780,12015 8780,12315" />
  <polyline
     style="fill:none;stroke:#000000;stroke-width:8px"
     id="polyline214"
     points=" 8630,12165 8930,12165" />
  <polyline
     style="fill:none;stroke:#000000;stroke-width:8px"
     id="polyline216"
     points=" 10466,12455 10466,12755" />
  <polyline
     style="fill:none;stroke:#000000;stroke-width:8px"
     id="polyline218"
     points=" 10316,12605 10616,12605" />
  <path
     style="fill:#000000"
     inkscape:connector-curvature="0"
     id="path220"
     d="m 12559,7324 a 73,73 0 0 1 75,75" />
  <path
     style="fill:#000000"
     inkscape:connector-curvature="0"
     id="path222"
     d="m 12484,7399 a 73,73 0 0 0 75,75" />
  <circle
     style="fill:none;stroke:#000000;stroke-width:8px"
     id="circle224"
     r="75"
     cy="7399"
     cx="12559" />
  <polyline
     style="fill:#000000"
     id="polyline226"
     points=" 12559,7324 12634,7399 12484,7399 12559,7474" />
  <polyline
     style="fill:none;stroke:#000000;stroke-width:8px"
     id="polyline228"
     points=" 10929,6564 10929,6864"
     transform="translate(250.72246,146.25477)" />
  <polyline
     style="fill:none;stroke:#000000;stroke-width:8px"
     id="polyline230"
     points=" 10779,6714 11079,6714"
     transform="translate(250.72246,146.25477)" />
  <circle
     style="fill:none;stroke:#000000;stroke-width:8px"
     id="circle232"
     r="75"
     cy="7264"
     cx="11799" />
  <polyline
     style="fill:none;stroke:#000000;stroke-width:8px"
     id="polyline234"
     points=" 10800,16800 11175,15000 11700,13125 12450,11325 13200,9525 14100,7725 15075,5850 " />
  <polyline
     style="fill:none;stroke:#000000;stroke-width:8px"
     id="polyline236"
     points=" 10800,16800 12825,16875 11175,15000 13425,14850 11700,13125 14100,12975 12450,11325  14925,11100 13200,9525 15750,9150 14100,7725 16575,7125 15075,5850 17175,4800 " />
  <polyline
     style="fill:none;stroke:#000000;stroke-width:8px"
     id="polyline238"
     points=" 12825,16875 13425,14850 14100,12975 14925,11100 15750,9150 16575,7125 17175,4800 " />
  <polyline
     style="fill:none;stroke:#000000;stroke-width:8px"
     id="polyline240"
     points=" 17175,4800 19125,6300 16575,7125 18300,8625 15750,9150 17400,10725 14925,11100  16575,12750 14100,12975 15750,14625 13425,14850 14925,16575 12825,16875" />
  <polyline
     style="fill:none;stroke:#000000;stroke-width:8px"
     id="polyline242"
     points=" 14925,16575 15750,14625 16575,12750 17400,10725 18300,8625 19125,6300 19800,3750  17175,4800" />
  <polyline
     style="fill:none;stroke:#000000;stroke-width:8px"
     id="polyline244"
     points=" 14925,16575 17250,16425 15750,14625 18150,14475 16575,12750 19050,12450 17400,10725  20025,10425 18300,8625 20925,8175 19125,6300" />
  <polyline
     style="fill:none;stroke:#000000;stroke-width:8px"
     id="polyline246"
     points=" 17250,16425 18150,14475 19050,12450 20025,10425 20925,8175" />
  <polyline
     style="fill:none;stroke:#000000;stroke-width:8px"
     id="polyline248"
     points=" 17250,16425 19575,16275 18150,14475 20550,14250 19050,12450" />
  <polyline
     style="fill:none;stroke:#000000;stroke-width:8px"
     id="polyline250"
     points=" 19575,16275 20550,14250" />
  <polyline
     style="fill:none;stroke:#000000;stroke-width:8px"
     id="polyline252"
     points=" 19050,12450 21600,12225 20025,10425" />
  <polyline
     style="fill:none;stroke:#000000;stroke-width:8px"
     id="polyline254"
     points=" 20550,14250 21600,12225" />
  <polyline
     style="fill:none;stroke:#000000;stroke-width:8px;stroke-dasharray:40, 40"
     id="polyline260"
     points=" 12683,7816 13344,6883" />
  <text
     style="font-style:normal;font-weight:normal;font-size:336px;font-family:Times;text-anchor:middle;fill:#000000"
     id="text268"
     font-size="336"
     font-weight="normal"
     font-style="normal"
     y="6497"
     x="12801"
     xml:space="preserve" />
  <polyline
     style="fill:none;stroke:#000000;stroke-width:8px"
     id="polyline274"
     points=" 11100,11700 11100,12000" />
  <polyline
     style="fill:none;stroke:#000000;stroke-width:8px;stroke-dasharray:40, 40"
     id="polyline276"
     points=" 12003,6956 12449,6303" />
  <polyline
     style="fill:none;stroke:#000000;stroke-width:8px"
     id="polyline278"
     points=" 9000,15150 9300,13350 9750,11400 10500,9600 11325,7950 12300,6525 13858,4802 " />
  <polyline
     style="fill:none;stroke:#000000;stroke-width:7.99939163;stroke-miterlimit:4;stroke-dasharray:none"
     id="polyline280"
     points=" 10800,16800 9000,15150 11175,15000 9300,13350 11700,13125 9750,11400 12450,11325  10500,9600 13200,9525 11325,7950 14100,7725 12300,6525 15075,5850 13848,4782 " />
  <polyline
     style="fill:none;stroke:#000000;stroke-width:8px;stroke-dasharray:40, 40"
     id="polyline282"
     points=" 12557,7400 12936,6858" />
  <polyline
     style="fill:none;stroke:#000000;stroke-width:8px;stroke-dasharray:40, 40"
     id="polyline284"
     points=" 11050,10898 9376,10231" />
  <polyline
     style="fill:none;stroke:#000000;stroke-width:8px;stroke-dasharray:40, 40"
     id="polyline286"
     points=" 11803,9275 10210,8442" />
  <polyline
     style="fill:none;stroke:#000000;stroke-width:8px;stroke-dasharray:40, 40"
     id="polyline301"
     points=" 10463,12611 8770,12158" />
  <path
     style="fill:none;stroke:#000000;stroke-width:8.7493346;stroke-linecap:butt;stroke-linejoin:miter;stroke-opacity:1;stroke-miterlimit:4;stroke-dasharray:none;marker-start:url(#Arrow1Mstart);marker-end:url(#Arrow1Mend)"
     d="m 12353.307,6439.3461 590.958,384.123"
     id="path4974"
     inkscape:connector-curvature="0" />
  <text
     xml:space="preserve"
     style="font-style:normal;font-weight:normal;font-size:183.31938171px;line-height:1.25;font-family:sans-serif;text-align:center;letter-spacing:0px;word-spacing:0px;text-anchor:middle;fill:#000000;fill-opacity:1;stroke:none;stroke-width:12.49904919"
     x="12715.269"
     y="6631.4077"
     id="text5364"><tspan
       sodipodi:role="line"
       id="tspan5362"
       x="12715.269"
       y="6631.4077"
       style="font-style:normal;font-variant:normal;font-weight:normal;font-stretch:normal;font-size:183.31939697px;font-family:sans-serif;-inkscape-font-specification:'sans-serif, Normal';font-variant-ligatures:normal;font-variant-caps:normal;font-variant-numeric:normal;font-feature-settings:normal;text-align:start;writing-mode:lr-tb;text-anchor:start;stroke-width:12.49904919">$d_j$</tspan></text>
  <text
     xml:space="preserve"
     style="font-style:normal;font-weight:normal;font-size:183.31938171px;line-height:1.25;font-family:sans-serif;text-align:start;letter-spacing:0px;word-spacing:0px;text-anchor:start;fill:#000000;fill-opacity:1;stroke:none;stroke-width:12.49904919"
     x="11034.755"
     y="6660.7383"
     id="text5368"><tspan
       sodipodi:role="line"
       id="tspan5366"
       x="11034.755"
       y="6660.7383"
       style="stroke-width:12.49904919">$\vec{x}_{L(j)}$</tspan></text>
  <text
     xml:space="preserve"
     style="font-style:normal;font-weight:normal;font-size:183.31938171px;line-height:1.25;font-family:sans-serif;text-align:start;letter-spacing:0px;word-spacing:0px;text-anchor:start;fill:#000000;fill-opacity:1;stroke:none;stroke-width:12.49904919"
     x="11900.238"
     y="7293.7734"
     id="text5372"><tspan
       sodipodi:role="line"
       id="tspan5370"
       x="11900.238"
       y="7293.7734"
       style="stroke-width:12.49904919">$\vec{x}_{b(j)}$</tspan></text>
  <path
     style="fill:none;stroke:#000000;stroke-width:8.74933338;stroke-linecap:butt;stroke-linejoin:miter;stroke-miterlimit:4;stroke-dasharray:none;stroke-opacity:1;marker-start:url(#Arrow1Mstart-1);marker-end:url(#Arrow1Mend-4)"
     d="m 11126.714,6930.6917 590.958,384.123"
     id="path4974-0"
     inkscape:connector-curvature="0" />
  <text
     xml:space="preserve"
     style="font-style:normal;font-weight:normal;font-size:183.31936646px;line-height:1.25;font-family:sans-serif;text-align:center;letter-spacing:0px;word-spacing:0px;text-anchor:middle;fill:#000000;fill-opacity:1;stroke:none;stroke-width:12.49904823"
     x="11219.775"
     y="7234.1528"
     id="text5364-1"><tspan
       sodipodi:role="line"
       id="tspan5362-4"
       x="11219.775"
       y="7234.1528"
       style="font-style:normal;font-variant:normal;font-weight:normal;font-stretch:normal;font-size:183.31938171px;font-family:sans-serif;-inkscape-font-specification:'sans-serif, Normal';font-variant-ligatures:normal;font-variant-caps:normal;font-variant-numeric:normal;font-feature-settings:normal;text-align:start;writing-mode:lr-tb;text-anchor:start;stroke-width:12.49904823">$d_j$</tspan></text>
  <path
     style="fill:none;stroke:#000000;stroke-width:7.99939156;stroke-linecap:butt;stroke-linejoin:miter;stroke-miterlimit:4;stroke-dasharray:63.9951317, 31.99756579;stroke-dashoffset:0;stroke-opacity:1"
     d="M 12683,7816 11182.43,6868.0112"
     id="path6029"
     inkscape:connector-curvature="0" />
  <text
     xml:space="preserve"
     style="font-style:normal;font-weight:normal;font-size:183.31936646px;line-height:1.25;font-family:sans-serif;text-align:start;letter-spacing:0px;word-spacing:0px;text-anchor:start;fill:#000000;fill-opacity:1;stroke:none;stroke-width:12.49904823"
     x="12699.229"
     y="7975.7324"
     id="text5368-2"><tspan
       sodipodi:role="line"
       id="tspan5366-0"
       x="12699.229"
       y="7975.7324"
       style="stroke-width:12.49904823">$\vec{x}_{R(j)}$</tspan></text>
  <path
     style="fill:none;stroke:#000000;stroke-width:7.99939163;stroke-linecap:butt;stroke-linejoin:miter;stroke-opacity:1;stroke-miterlimit:4;stroke-dasharray:none"
     d="m 11713.102,7382.4173 137.89,96.0307 88.644,-125.5787"
     id="path7755"
     inkscape:connector-curvature="0" />
</svg>
