<?xml version="1.0" standalone="no"?>
<!DOCTYPE svg PUBLIC "-//W3C//DTD SVG 1.1//EN"
"http://www.w3.org/Graphics/SVG/1.1/DTD/svg11.dtd">
<!-- Creator: fig2dev Version 3.2 Patchlevel 5d -->
<!-- CreationDate: Fri May 24 09:18:56 2013 -->
<!-- Magnification: 1.000 -->
<svg	xmlns="http://www.w3.org/2000/svg"
	xmlns:xlink="http://www.w3.org/1999/xlink"
	width="10.6in" height="7.9in"
	viewBox="417 717 12666 9435">
<g style="stroke-width:.025in; fill:none">
<!-- Line -->
<polygon points="5550,8925
7669,4750
9475,5820
7725,9975
5550,8925
" style="stroke:#000000;stroke-width:0;
stroke-linejoin:miter; stroke-linecap:butt;
fill:#bfbfbf;
"/>
<!-- Line -->
<polygon points="11062,3866
13037,2278
11728,726
9648,2319
11062,3866
" style="stroke:#000000;stroke-width:0;
stroke-linejoin:miter; stroke-linecap:butt;
fill:#bfbfbf;
"/>
<!-- Line -->
<polygon points="600,4275
825,5775
7469,4566
7125,3150
600,4275
" style="stroke:#000000;stroke-width:0;
stroke-linejoin:miter; stroke-linecap:butt;
fill:#bfbfbf;
"/>
<!-- Line -->
<polygon points="7623,4518
7296,3094
9403,2351
7623,4518
" style="stroke:#000000;stroke-width:0;
stroke-linejoin:miter; stroke-linecap:butt;
fill:#bfbfbf;
"/>
<!-- Line -->
<polygon points="7725,4650
9525,5700
10973,3969
9538,2438
7725,4650
" style="stroke:#000000;stroke-width:0;
stroke-linejoin:miter; stroke-linecap:butt;
fill:#bfbfbf;
"/>
<!-- Line -->
<polyline points="450,4275
451,4275
454,4274
458,4273
466,4272
477,4270
493,4267
513,4264
537,4259
567,4254
602,4247
642,4240
688,4232
740,4222
796,4212
858,4201
924,4189
995,4176
1070,4162
1149,4148
1231,4133
1315,4118
1402,4102
1490,4087
1579,4070
1670,4054
1760,4038
1851,4022
1941,4005
2030,3989
2118,3974
2205,3958
2291,3943
2375,3928
2457,3913
2538,3899
2617,3885
2693,3871
2768,3858
2841,3845
2912,3833
2981,3821
3048,3809
3113,3798
3177,3787
3239,3776
3300,3766
3359,3756
3417,3746
3474,3736
3530,3727
3585,3718
3639,3709
3692,3700
3744,3691
3796,3683
3848,3674
3899,3666
3949,3658
4000,3650
4056,3641
4112,3632
4167,3624
4223,3615
4279,3606
4335,3598
4391,3589
4447,3580
4504,3572
4560,3563
4617,3555
4675,3546
4732,3537
4790,3529
4848,3520
4906,3511
4965,3502
5023,3494
5082,3485
5141,3476
5200,3467
5259,3458
5318,3450
5377,3441
5436,3432
5494,3423
5553,3414
5611,3405
5669,3397
5726,3388
5783,3379
5840,3370
5896,3362
5951,3353
6006,3344
6061,3336
6114,3327
6167,3319
6220,3310
6271,3302
6322,3294
6372,3285
6422,3277
6470,3269
6518,3261
6566,3253
6613,3245
6659,3236
6704,3228
6749,3220
6794,3212
6838,3204
6882,3196
6925,3188
6974,3178
7022,3169
7070,3159
7119,3149
7167,3139
7215,3129
7264,3119
7313,3108
7362,3097
7411,3086
7461,3074
7510,3062
7561,3050
7611,3037
7662,3024
7712,3011
7764,2997
7815,2983
7866,2968
7918,2953
7969,2938
8021,2923
8072,2907
8124,2890
8175,2874
8226,2857
8277,2839
8327,2822
8378,2804
8428,2786
8477,2767
8526,2748
8575,2729
8623,2710
8671,2691
8718,2671
8764,2651
8810,2631
8856,2610
8901,2589
8946,2568
8990,2547
9034,2525
9078,2504
9121,2481
9164,2459
9207,2436
9250,2413
9290,2390
9329,2368
9369,2345
9410,2321
9450,2297
9491,2272
9533,2246
9575,2220
9618,2192
9662,2164
9706,2134
9752,2103
9799,2071
9847,2038
9897,2003
9948,1967
10001,1930
10055,1891
10110,1851
10167,1809
10226,1766
10286,1721
10348,1675
10411,1628
10476,1580
10541,1531
10607,1480
10674,1430
10741,1379
10808,1327
10874,1277
10939,1226
11003,1177
11065,1129
11124,1083
11181,1039
11234,997
11284,959
11330,923
11371,891
11408,862
11440,837
11468,815
11491,797
11509,782
11524,771
11534,762
11542,756
11546,753
11549,751
11550,750
" style="stroke:#00ffff;stroke-width:30;
stroke-linejoin:bevel; stroke-linecap:butt;
"/>
<!-- Line -->
<polyline points="5400,9150
5400,9149
5401,9148
5402,9145
5404,9141
5406,9135
5410,9127
5414,9116
5419,9103
5426,9087
5434,9068
5443,9045
5453,9020
5465,8992
5478,8961
5492,8927
5507,8890
5524,8851
5541,8808
5560,8764
5580,8717
5600,8668
5621,8617
5644,8564
5666,8510
5690,8455
5714,8398
5739,8340
5764,8280
5790,8220
5816,8159
5843,8097
5870,8034
5898,7970
5926,7906
5955,7840
5984,7773
6014,7706
6044,7637
6076,7567
6108,7496
6140,7424
6174,7350
6209,7275
6244,7198
6280,7119
6318,7039
6356,6958
6395,6875
6435,6791
6475,6706
6517,6621
6558,6535
6600,6450
6649,6351
6697,6255
6743,6162
6789,6073
6833,5987
6875,5905
6916,5827
6955,5753
6993,5683
7029,5615
7064,5551
7097,5491
7130,5432
7161,5377
7191,5324
7220,5273
7248,5224
7276,5177
7302,5131
7328,5088
7353,5046
7378,5005
7402,4966
7424,4929
7447,4893
7468,4859
7488,4827
7507,4796
7526,4767
7543,4740
7559,4715
7573,4692
7587,4672
7599,4653
7609,4637
7619,4623
7627,4611
7633,4601
7638,4593
7643,4586
7646,4582
7648,4579
7649,4577
7650,4575
7649,4575
7646,4576
7641,4577
7632,4578
7620,4580
7604,4583
7583,4586
7556,4590
7525,4596
7487,4602
7444,4609
7396,4617
7342,4626
7283,4636
7219,4646
7150,4658
7077,4670
7001,4682
6921,4696
6839,4709
6755,4723
6669,4737
6583,4752
6495,4766
6408,4781
6320,4796
6234,4810
6148,4825
6063,4839
5980,4853
5898,4867
5818,4880
5740,4894
5663,4907
5588,4919
5515,4932
5444,4944
5374,4956
5307,4968
5240,4979
5176,4991
5112,5002
5050,5013
4989,5023
4930,5034
4871,5045
4813,5055
4755,5065
4698,5076
4642,5086
4586,5096
4530,5106
4474,5117
4418,5127
4363,5138
4310,5147
4258,5157
4205,5167
4153,5177
4099,5187
4046,5197
3991,5208
3937,5218
3881,5229
3824,5240
3767,5251
3708,5263
3648,5275
3587,5287
3525,5299
3461,5312
3395,5325
3328,5338
3259,5352
3188,5366
3116,5381
3041,5396
2965,5411
2887,5427
2807,5443
2725,5460
2642,5477
2557,5494
2471,5512
2383,5530
2295,5548
2206,5566
2116,5584
2027,5603
1938,5621
1849,5639
1762,5657
1677,5674
1594,5691
1513,5708
1436,5724
1362,5739
1292,5754
1226,5767
1166,5780
1110,5791
1059,5802
1014,5811
974,5819
940,5826
911,5832
886,5837
867,5841
852,5844
841,5847
833,5848
829,5849
826,5850
825,5850
" style="stroke:#00ffff;stroke-width:30;
stroke-linejoin:bevel; stroke-linecap:butt;
"/>
<!-- Line -->
<polyline points="7872,10119
7872,10118
7873,10116
7874,10112
7877,10105
7880,10095
7884,10082
7890,10065
7897,10043
7906,10017
7917,9986
7929,9950
7944,9908
7960,9861
7978,9808
7998,9750
8019,9687
8043,9618
8069,9544
8096,9466
8125,9383
8155,9296
8187,9205
8220,9110
8254,9013
8290,8912
8326,8810
8363,8706
8401,8600
8439,8493
8478,8386
8517,8278
8556,8171
8595,8064
8634,7957
8673,7852
8712,7748
8751,7645
8789,7543
8827,7444
8865,7346
8902,7250
8939,7156
8976,7064
9011,6974
9047,6887
9082,6801
9117,6718
9151,6637
9184,6558
9218,6481
9251,6406
9283,6333
9316,6262
9348,6192
9379,6125
9411,6059
9442,5995
9474,5932
9505,5871
9536,5811
9567,5752
9598,5695
9629,5638
9661,5583
9692,5529
9724,5476
9755,5423
9787,5371
9820,5320
9852,5270
9885,5220
9922,5165
9960,5110
9998,5055
10037,5002
10076,4949
10116,4896
10157,4843
10198,4791
10241,4739
10284,4688
10328,4636
10374,4585
10421,4533
10468,4481
10518,4429
10568,4376
10620,4323
10674,4270
10729,4216
10786,4162
10844,4106
10904,4051
10966,3994
11029,3937
11095,3879
11162,3820
11230,3761
11300,3701
11372,3640
11445,3579
11519,3517
11595,3455
11671,3392
11748,3330
11826,3267
11904,3205
11981,3143
12058,3082
12135,3022
12210,2963
12284,2906
12356,2850
12426,2796
12493,2744
12557,2695
12618,2649
12676,2605
12729,2565
12778,2528
12823,2494
12864,2463
12900,2436
12932,2412
12959,2392
12982,2375
13002,2361
13017,2349
13029,2341
13037,2334
13043,2330
13047,2327
13049,2326
13050,2325
" style="stroke:#00ffff;stroke-width:30;
stroke-linejoin:bevel; stroke-linecap:butt;
"/>
<!-- Line -->
<polyline points="11031,3934
9515,2318
7631,4634
" style="stroke:#ff0000;stroke-width:30;
stroke-linejoin:miter; stroke-linecap:butt;
"/>
<!-- Line -->
<polyline points="7198,3118
7565,4634
9515,5751
" style="stroke:#ff0000;stroke-width:30;
stroke-linejoin:miter; stroke-linecap:butt;
"/>
</g>
</svg>
