<?xml version="1.0" encoding="UTF-8" standalone="no"?>
<!-- Creator: fig2dev Version 3.2 Patchlevel 5d -->

<!-- CreationDate: Fri May 24 09:20:33 2013 -->

<!-- Magnification: 1.000 -->

<svg
   xmlns:dc="http://purl.org/dc/elements/1.1/"
   xmlns:cc="http://creativecommons.org/ns#"
   xmlns:rdf="http://www.w3.org/1999/02/22-rdf-syntax-ns#"
   xmlns:svg="http://www.w3.org/2000/svg"
   xmlns="http://www.w3.org/2000/svg"
   xmlns:sodipodi="http://sodipodi.sourceforge.net/DTD/sodipodi-0.dtd"
   xmlns:inkscape="http://www.inkscape.org/namespaces/inkscape"
   width="158.92891mm"
   height="133.59053mm"
   viewBox="1199 -601 7509.8428 6312.6786"
   id="svg2"
   version="1.1"
   inkscape:version="0.91 r13725"
   sodipodi:docname="ortho_grid.svg">
  <metadata
     id="metadata190">
    <rdf:RDF>
      <cc:Work
         rdf:about="">
        <dc:format>image/svg+xml</dc:format>
        <dc:type
           rdf:resource="http://purl.org/dc/dcmitype/StillImage" />
        <dc:title></dc:title>
      </cc:Work>
    </rdf:RDF>
  </metadata>
  <defs
     id="defs188" />
  <sodipodi:namedview
     pagecolor="#ffffff"
     bordercolor="#666666"
     borderopacity="1"
     objecttolerance="10"
     gridtolerance="10"
     guidetolerance="10"
     inkscape:pageopacity="0"
     inkscape:pageshadow="2"
     inkscape:window-width="1366"
     inkscape:window-height="716"
     id="namedview186"
     showgrid="false"
     units="mm"
     fit-margin-top="3"
     fit-margin-left="3"
     fit-margin-bottom="3"
     fit-margin-right="3"
     inkscape:zoom="2.6222222"
     inkscape:cx="519.16145"
     inkscape:cy="331.64181"
     inkscape:window-x="-8"
     inkscape:window-y="-8"
     inkscape:window-maximized="1"
     inkscape:current-layer="g4"
     borderlayer="true" />
  <g
     style="fill:none;stroke-width:0.025in"
     id="g4"
     transform="translate(-1646.12,-1644.6608)">
    <!-- Circle -->
    <circle
       cx="3005"
       cy="4200"
       r="605"
       style="stroke:#000000;stroke-width:7"
       id="circle6" />
    <!-- Circle -->
    <circle
       cx="10200"
       cy="4200"
       r="300"
       style="stroke:#000000;stroke-width:7"
       id="circle8" />
    <!-- Line -->
    <polyline
       points="4500,4200 4500,4203 4500,4209 4499,4221 4499,4238 4498,4262 4497,4293 4495,4329 4493,4369 4490,4412 4488,4457 4484,4503 4481,4549 4477,4593 4472,4635 4467,4675 4462,4713 4456,4748 4450,4780 4443,4811 4436,4840 4428,4866 4419,4892 4409,4916 4399,4940 4388,4963 4376,4983 4364,5004 4351,5024 4337,5044 4321,5064 4305,5084 4288,5104 4270,5124 4251,5144 4231,5164 4211,5184 4189,5204 4166,5223 4143,5243 4120,5262 4096,5282 4071,5301 4047,5319 4022,5337 3997,5355 3972,5373 3947,5390 3923,5407 3898,5423 3873,5440 3849,5456 3824,5472 3800,5488 3775,5504 3750,5520 3725,5536 3699,5552 3673,5569 3645,5586 3618,5602 3589,5619 3560,5636 3531,5652 3501,5669 3471,5685 3440,5700 3409,5715 3378,5729 3347,5743 3316,5755 3286,5767 3255,5778 3225,5788 3196,5796 3166,5804 3138,5810 3109,5816 3082,5820 3054,5823 3027,5824 3000,5825 2973,5824 2946,5823 2918,5820 2891,5816 2862,5810 2834,5804 2804,5797 2775,5788 2745,5778 2714,5768 2684,5756 2653,5744 2622,5731 2591,5717 2560,5702 2529,5687 2499,5672 2469,5656 2440,5640 2411,5624 2382,5608 2355,5592 2327,5576 2301,5561 2275,5545 2250,5530 2225,5515 2200,5500 2174,5484 2147,5468 2121,5453 2095,5437 2068,5421 2041,5404 2014,5387 1988,5370 1961,5353 1934,5335 1908,5316 1882,5298 1857,5279 1832,5260 1808,5240 1785,5220 1762,5200 1741,5180 1721,5160 1702,5140 1685,5119 1668,5098 1653,5078 1638,5056 1625,5035 1613,5013 1602,4991 1592,4969 1582,4947 1574,4923 1566,4899 1558,4873 1551,4847 1544,4819 1538,4791 1533,4762 1528,4732 1523,4701 1519,4670 1516,4638 1512,4606 1510,4573 1508,4541 1506,4508 1504,4476 1503,4444 1502,4412 1501,4381 1501,4350 1500,4319 1500,4289 1500,4259 1500,4229 1500,4200 1500,4171 1500,4141 1500,4111 1500,4081 1501,4050 1501,4019 1502,3988 1503,3956 1505,3924 1506,3892 1508,3859 1511,3827 1514,3794 1517,3762 1521,3730 1526,3699 1531,3668 1536,3638 1543,3609 1549,3581 1557,3553 1564,3527 1573,3501 1582,3477 1592,3453 1602,3431 1613,3409 1625,3388 1638,3367 1651,3347 1666,3327 1682,3307 1698,3288 1716,3269 1735,3250 1754,3231 1775,3212 1797,3194 1820,3175 1843,3157 1867,3139 1892,3121 1918,3104 1943,3086 1969,3069 1996,3052 2022,3036 2048,3020 2074,3004 2100,2989 2125,2974 2151,2959 2176,2944 2201,2929 2225,2915 2250,2900 2273,2886 2296,2872 2319,2858 2343,2844 2367,2829 2392,2815 2417,2800 2443,2786 2470,2771 2497,2757 2525,2743 2553,2730 2583,2716 2612,2704 2642,2692 2673,2681 2704,2670 2735,2661 2767,2653 2798,2645 2830,2639 2862,2634 2894,2630 2927,2627 2959,2626 2992,2625 3024,2626 3057,2629 3091,2632 3125,2638 3154,2643 3183,2649 3214,2656 3244,2665 3276,2674 3308,2684 3341,2695 3374,2708 3409,2721 3443,2736 3479,2751 3514,2767 3550,2784 3587,2803 3623,2822 3660,2841 3696,2862 3733,2883 3769,2905 3804,2927 3839,2949 3874,2972 3907,2996 3940,3019 3972,3043 4003,3067 4033,3090 4062,3114 4089,3138 4116,3161 4141,3185 4165,3208 4188,3231 4210,3254 4230,3277 4250,3300 4272,3328 4293,3355 4312,3383 4330,3411 4346,3441 4361,3471 4375,3502 4388,3534 4401,3568 4412,3604 4422,3641 4432,3680 4441,3721 4449,3764 4457,3808 4464,3853 4470,3898 4476,3942 4481,3986 4486,4027 4489,4065 4493,4099 4495,4128 4497,4153 4498,4171 4499,4185 4500,4193 4500,4198 4500,4200 "
       style="stroke:#000000;stroke-width:7;stroke-linecap:butt;stroke-linejoin:bevel"
       id="polyline10" />
    <!-- Line -->
    <polyline
       points="3307,1212 3307,1215 3307,1221 3308,1233 3308,1250 3309,1274 3310,1305 3312,1341 3314,1381 3317,1424 3319,1469 3323,1515 3326,1561 3330,1605 3335,1647 3340,1687 3345,1725 3351,1760 3357,1792 3364,1823 3371,1852 3379,1878 3388,1904 3398,1928 3408,1952 3420,1975 3431,1995 3443,2016 3456,2036 3470,2056 3486,2076 3502,2096 3519,2116 3537,2136 3556,2156 3576,2176 3596,2196 3618,2216 3641,2235 3664,2255 3687,2274 3711,2294 3736,2313 3760,2331 3785,2349 3810,2367 3835,2385 3860,2402 3884,2419 3909,2435 3934,2452 3958,2468 3983,2484 4007,2500 4032,2516 4057,2532 4082,2548 4108,2564 4134,2581 4162,2598 4189,2614 4218,2631 4247,2648 4276,2664 4306,2681 4336,2697 4367,2712 4398,2727 4429,2741 4460,2755 4491,2767 4521,2779 4552,2790 4582,2800 4611,2808 4641,2816 4669,2822 4698,2828 4725,2832 4753,2835 4780,2836 4807,2837 4834,2836 4861,2835 4889,2832 4916,2828 4945,2822 4973,2816 5003,2809 5032,2800 5062,2790 5093,2780 5123,2768 5154,2756 5185,2743 5216,2729 5247,2714 5278,2699 5308,2684 5338,2668 5367,2652 5396,2636 5425,2620 5452,2604 5480,2588 5506,2573 5532,2557 5557,2542 5582,2527 5607,2512 5633,2496 5660,2480 5686,2465 5712,2449 5739,2433 5766,2416 5793,2399 5819,2382 5846,2365 5873,2347 5899,2328 5925,2310 5950,2291 5975,2272 5999,2252 6022,2232 6045,2212 6066,2192 6086,2172 6105,2152 6122,2131 6139,2110 6154,2090 6169,2068 6182,2047 6195,2025 6205,2003 6215,1981 6225,1959 6233,1935 6241,1911 6249,1885 6256,1859 6263,1831 6269,1803 6274,1774 6279,1744 6284,1713 6288,1682 6291,1650 6295,1618 6297,1585 6299,1553 6301,1520 6303,1488 6304,1456 6305,1424 6306,1393 6306,1362 6307,1331 6307,1301 6307,1271 6307,1241 6307,1212 6307,1183 6307,1153 6307,1123 6307,1093 6306,1062 6306,1031 6305,1000 6304,968 6302,936 6301,904 6299,871 6296,839 6293,806 6290,774 6286,742 6281,711 6276,680 6271,650 6264,621 6258,593 6250,565 6243,539 6234,513 6225,489 6215,465 6205,443 6194,421 6182,400 6169,379 6156,359 6141,339 6125,319 6109,300 6091,281 6072,262 6053,243 6032,224 6010,206 5987,187 5964,169 5940,151 5915,133 5889,116 5864,98 5838,81 5811,64 5785,48 5759,32 5733,16 5707,1 5682,-14 5656,-29 5631,-44 5606,-59 5582,-73 5557,-88 5534,-102 5511,-116 5488,-130 5464,-144 5440,-159 5415,-173 5390,-188 5364,-202 5337,-217 5310,-231 5282,-245 5254,-258 5224,-272 5195,-284 5165,-296 5134,-307 5103,-318 5072,-327 5040,-335 5009,-343 4977,-349 4945,-354 4913,-358 4880,-361 4848,-362 4815,-363 4783,-362 4750,-359 4716,-356 4682,-351 4653,-345 4624,-339 4593,-332 4563,-323 4531,-314 4499,-304 4466,-293 4433,-280 4398,-267 4364,-252 4328,-237 4293,-221 4257,-204 4220,-185 4184,-166 4147,-147 4111,-126 4074,-105 4038,-83 4003,-61 3968,-39 3933,-16 3900,8 3867,31 3835,55 3804,79 3774,102 3745,126 3718,150 3691,173 3666,197 3642,220 3619,243 3597,266 3577,289 3557,312 3535,340 3514,367 3495,395 3477,423 3461,453 3446,483 3432,514 3419,546 3406,580 3395,616 3385,653 3375,692 3366,733 3358,776 3350,820 3343,865 3337,910 3331,954 3326,998 3321,1039 3318,1077 3314,1111 3312,1140 3310,1165 3309,1183 3308,1197 3307,1205 3307,1210 3307,1212 "
       style="stroke:#000000;stroke-width:7;stroke-linecap:butt;stroke-linejoin:bevel"
       id="polyline12" />
    <!-- Circle -->
    <circle
       cx="3000"
       cy="4200"
       r="300"
       style="stroke:#000000;stroke-width:7"
       id="circle14" />
    <!-- Line -->
    <polyline
       points="1781,4186 1781,4189 1781,4195 1782,4207 1782,4224 1783,4247 1785,4276 1787,4309 1789,4346 1792,4385 1795,4424 1798,4463 1802,4501 1807,4537 1811,4571 1817,4603 1822,4632 1828,4659 1835,4685 1843,4708 1851,4731 1860,4752 1871,4772 1882,4792 1894,4811 1907,4829 1921,4848 1936,4866 1952,4885 1970,4903 1989,4921 2008,4940 2029,4958 2051,4976 2074,4994 2097,5011 2121,5029 2145,5046 2170,5063 2194,5079 2219,5095 2243,5110 2268,5125 2292,5140 2315,5154 2339,5168 2362,5181 2385,5195 2408,5208 2432,5222 2455,5235 2479,5249 2504,5263 2529,5277 2554,5290 2580,5304 2607,5317 2633,5330 2660,5343 2688,5355 2715,5366 2742,5377 2768,5387 2795,5395 2821,5403 2846,5410 2871,5416 2896,5421 2920,5425 2944,5428 2967,5429 2990,5430 3013,5429 3036,5428 3060,5425 3084,5421 3109,5416 3134,5410 3159,5403 3185,5395 3212,5387 3238,5377 3265,5366 3293,5355 3320,5343 3347,5330 3373,5317 3400,5304 3426,5290 3451,5277 3476,5263 3501,5249 3525,5235 3549,5222 3572,5208 3595,5195 3618,5181 3641,5168 3665,5154 3689,5140 3713,5125 3737,5110 3762,5095 3786,5079 3811,5063 3835,5046 3860,5029 3884,5011 3907,4994 3929,4976 3951,4958 3972,4940 3992,4921 4011,4903 4028,4885 4045,4866 4060,4848 4074,4829 4087,4811 4099,4792 4110,4772 4121,4752 4130,4731 4139,4709 4147,4687 4154,4663 4161,4639 4167,4614 4173,4588 4178,4562 4182,4535 4186,4507 4189,4479 4192,4451 4194,4423 4196,4396 4197,4368 4198,4341 4199,4314 4200,4288 4200,4262 4200,4236 4200,4211 4200,4186 4200,4161 4200,4136 4200,4110 4200,4084 4199,4058 4198,4031 4197,4004 4196,3977 4194,3949 4192,3921 4189,3893 4186,3865 4182,3838 4178,3811 4173,3784 4167,3759 4161,3734 4154,3709 4147,3686 4139,3663 4130,3642 4121,3621 4110,3601 4099,3581 4087,3562 4074,3544 4060,3525 4045,3507 4028,3488 4011,3470 3992,3452 3972,3433 3951,3415 3929,3397 3907,3379 3884,3361 3860,3344 3835,3327 3811,3310 3786,3294 3762,3278 3737,3263 3713,3248 3689,3233 3665,3219 3641,3205 3618,3192 3595,3178 3572,3165 3549,3151 3525,3138 3501,3124 3476,3110 3451,3096 3426,3083 3400,3069 3373,3056 3347,3043 3320,3030 3292,3018 3265,3007 3238,2996 3212,2986 3185,2978 3159,2970 3134,2963 3109,2957 3084,2952 3060,2948 3036,2945 3013,2944 2990,2943 2967,2944 2944,2945 2920,2948 2896,2952 2871,2957 2846,2963 2821,2970 2795,2978 2768,2986 2742,2996 2715,3007 2688,3018 2660,3030 2633,3043 2607,3056 2580,3069 2554,3083 2529,3096 2504,3110 2479,3124 2455,3138 2432,3151 2408,3165 2385,3178 2362,3192 2339,3205 2315,3219 2292,3233 2268,3248 2243,3263 2219,3278 2194,3294 2170,3310 2145,3327 2121,3344 2097,3361 2074,3379 2051,3397 2029,3415 2008,3433 1989,3452 1970,3470 1952,3488 1936,3507 1921,3525 1907,3544 1894,3562 1882,3581 1871,3601 1860,3621 1851,3642 1843,3664 1835,3688 1828,3713 1822,3740 1817,3770 1811,3801 1807,3835 1802,3871 1798,3909 1795,3948 1792,3988 1789,4026 1787,4063 1785,4096 1783,4125 1782,4148 1782,4165 1781,4177 1781,4183 1781,4186 "
       style="stroke:#000000;stroke-width:7;stroke-linecap:butt;stroke-linejoin:bevel"
       id="polyline16" />
    <!-- Line -->
    <polygon
       points="2290,4784 2307,4800 2326,4817 2345,4833 2364,4849 2384,4864 2404,4878 2423,4893 2443,4906 2462,4919 2482,4931 2501,4943 2521,4955 2540,4967 2560,4978 2581,4989 2602,5001 2624,5012 2646,5023 2669,5034 2693,5045 2718,5055 2742,5064 2767,5073 2792,5082 2816,5089 2840,5095 2864,5101 2888,5105 2911,5109 2933,5112 2955,5113 2977,5114 2997,5114 3018,5113 3038,5111 3059,5108 3081,5105 3103,5100 3125,5095 3148,5090 3171,5083 3194,5076 3217,5068 3240,5060 3263,5052 3285,5042 3307,5033 3328,5024 3349,5014 3369,5004 3388,4995 3407,4985 3425,4975 3443,4965 3462,4954 3481,4943 3500,4932 3520,4920 3539,4907 3558,4894 3577,4880 3596,4866 3615,4851 3633,4836 3651,4820 3668,4805 3685,4788 3700,4772 3715,4756 3729,4739 3741,4722 3753,4705 3764,4688 3774,4671 3784,4653 3793,4634 3802,4614 3810,4594 3818,4572 3825,4550 3832,4526 3839,4502 3845,4477 3851,4451 3856,4426 3860,4400 3864,4374 3868,4349 3871,4324 3873,4299 3875,4275 3877,4251 3878,4228 3879,4206 3879,4183 3880,4160 3880,4137 3879,4113 3878,4089 3877,4065 3875,4040 3872,4015 3869,3990 3865,3965 3861,3940 3856,3916 3850,3892 3844,3869 3837,3847 3829,3826 3821,3806 3812,3786 3803,3767 3793,3749 3782,3731 3770,3713 3758,3696 3744,3678 3729,3660 3713,3643 3696,3625 3678,3607 3659,3590 3640,3573 3620,3556 3599,3539 3579,3523 3558,3508 3537,3493 3517,3479 3496,3466 3476,3453 3456,3441 3436,3429 3416,3417 3396,3405 3375,3394 3353,3382 3331,3371 3308,3359 3285,3349 3261,3338 3237,3328 3212,3318 3188,3309 3163,3301 3139,3294 3115,3288 3092,3282 3069,3278 3047,3275 3025,3272 3004,3270 2983,3270 2962,3270 2941,3271 2920,3274 2898,3277 2875,3281 2852,3286 2829,3292 2806,3299 2782,3306 2758,3315 2734,3324 2710,3334 2687,3344 2664,3355 2642,3366 2620,3377 2599,3388 2579,3400 2558,3411 2539,3423 2519,3435 2499,3447 2479,3460 2459,3473 2439,3487 2418,3502 2397,3517 2377,3533 2356,3549 2336,3566 2317,3583 2298,3600 2280,3618 2263,3636 2247,3653 2232,3671 2218,3689 2205,3706 2194,3724 2183,3742 2173,3760 2164,3779 2156,3798 2148,3819 2141,3840 2134,3862 2128,3885 2123,3909 2118,3933 2113,3957 2110,3982 2107,4007 2104,4031 2102,4056 2101,4080 2100,4104 2099,4127 2098,4150 2098,4172 2098,4194 2099,4216 2099,4239 2100,4262 2101,4285 2102,4309 2104,4333 2106,4357 2109,4382 2112,4407 2116,4432 2120,4457 2125,4481 2130,4504 2136,4527 2142,4549 2149,4570 2157,4591 2165,4610 2173,4629 2183,4647 2183,4647 2193,4664 2204,4681 2215,4698 2228,4716 2242,4733 2257,4750 2273,4767 "
       style="stroke:#000000;stroke-width:7;stroke-linecap:butt;stroke-linejoin:bevel"
       id="polygon18" />
    <!-- Line -->
    <polyline
       points="8700,4200 8700,4197 8700,4191 8701,4179 8701,4162 8702,4138 8703,4107 8705,4071 8707,4031 8710,3988 8712,3943 8716,3897 8719,3851 8723,3807 8728,3765 8733,3725 8738,3687 8744,3652 8750,3620 8757,3589 8764,3560 8772,3534 8781,3508 8791,3484 8801,3460 8813,3438 8824,3417 8836,3396 8849,3376 8863,3356 8879,3336 8895,3316 8912,3296 8930,3276 8949,3256 8969,3236 8989,3216 9011,3196 9034,3177 9057,3157 9080,3138 9104,3118 9129,3099 9153,3081 9178,3063 9203,3045 9228,3027 9253,3010 9277,2993 9302,2977 9327,2960 9351,2944 9376,2928 9400,2913 9425,2896 9450,2880 9475,2864 9501,2848 9527,2831 9555,2814 9582,2798 9611,2781 9640,2764 9669,2748 9699,2731 9729,2715 9760,2700 9791,2685 9822,2671 9853,2657 9884,2645 9914,2633 9945,2622 9975,2612 10004,2604 10034,2596 10062,2590 10091,2584 10118,2580 10146,2577 10173,2576 10200,2575 10227,2576 10254,2577 10282,2580 10309,2584 10338,2590 10366,2596 10396,2603 10425,2612 10455,2622 10486,2632 10516,2644 10547,2656 10578,2669 10609,2683 10640,2698 10671,2713 10701,2728 10731,2744 10760,2760 10789,2776 10818,2792 10845,2808 10873,2824 10899,2839 10925,2855 10950,2870 10975,2885 11000,2900 11026,2916 11053,2932 11079,2947 11105,2963 11132,2979 11159,2996 11186,3013 11212,3030 11239,3047 11266,3065 11292,3084 11318,3102 11343,3121 11368,3140 11392,3160 11415,3180 11438,3200 11459,3220 11479,3240 11498,3260 11515,3281 11532,3302 11547,3322 11562,3344 11575,3365 11588,3388 11598,3409 11608,3431 11618,3453 11626,3477 11634,3501 11642,3527 11649,3553 11656,3581 11662,3609 11667,3638 11672,3668 11677,3699 11681,3730 11684,3762 11688,3794 11690,3827 11692,3859 11694,3892 11696,3924 11697,3956 11698,3988 11699,4019 11699,4050 11700,4081 11700,4111 11700,4141 11700,4171 11700,4200 11700,4229 11700,4259 11700,4289 11700,4319 11699,4350 11699,4381 11698,4412 11697,4444 11695,4476 11694,4508 11692,4541 11689,4573 11686,4606 11683,4638 11679,4670 11674,4701 11669,4732 11664,4762 11657,4791 11651,4819 11643,4847 11636,4873 11627,4899 11618,4923 11608,4947 11598,4969 11587,4991 11575,5013 11562,5033 11549,5053 11534,5073 11518,5093 11502,5112 11484,5131 11465,5150 11446,5169 11425,5188 11403,5206 11380,5225 11357,5243 11333,5261 11308,5279 11282,5296 11257,5314 11231,5331 11204,5348 11178,5364 11152,5380 11126,5396 11100,5411 11075,5426 11049,5441 11024,5456 10999,5471 10975,5485 10950,5500 10927,5514 10904,5528 10881,5542 10857,5556 10833,5571 10808,5585 10783,5600 10757,5614 10730,5629 10703,5643 10675,5657 10647,5670 10617,5684 10588,5696 10558,5708 10527,5719 10496,5730 10465,5739 10433,5747 10402,5755 10370,5761 10338,5766 10306,5770 10273,5773 10241,5774 10208,5775 10176,5774 10143,5771 10109,5768 10075,5763 10046,5757 10017,5751 9986,5744 9956,5735 9924,5726 9892,5716 9859,5705 9826,5692 9791,5679 9757,5664 9721,5649 9686,5633 9650,5616 9613,5597 9577,5578 9540,5559 9504,5538 9467,5517 9431,5495 9396,5473 9361,5451 9326,5428 9293,5404 9260,5381 9228,5357 9197,5333 9167,5310 9138,5286 9111,5262 9084,5239 9059,5215 9035,5192 9012,5169 8990,5146 8970,5123 8950,5100 8928,5072 8907,5045 8888,5017 8870,4989 8854,4959 8839,4929 8825,4898 8812,4866 8799,4832 8788,4796 8778,4759 8768,4720 8759,4679 8751,4636 8743,4592 8736,4547 8730,4502 8724,4458 8719,4414 8714,4373 8711,4335 8707,4301 8705,4272 8703,4247 8702,4229 8701,4215 8700,4207 8700,4202 8700,4200 "
       style="stroke:#000000;stroke-width:7;stroke-linecap:butt;stroke-linejoin:bevel"
       id="polyline20" />
    <!-- Line -->
    <polygon
       points="4116,6607 4133,6591 4152,6574 4171,6558 4190,6542 4210,6527 4230,6513 4249,6498 4269,6485 4288,6472 4308,6460 4327,6448 4347,6436 4366,6424 4386,6413 4407,6402 4428,6390 4450,6379 4472,6368 4495,6357 4519,6346 4544,6336 4568,6327 4593,6318 4618,6309 4642,6302 4666,6296 4690,6290 4714,6286 4737,6282 4759,6279 4781,6278 4803,6277 4823,6277 4844,6278 4864,6280 4885,6283 4907,6286 4929,6291 4951,6296 4974,6301 4997,6308 5020,6315 5043,6323 5066,6331 5089,6339 5111,6349 5133,6358 5154,6367 5175,6377 5195,6387 5214,6396 5233,6406 5251,6416 5269,6426 5288,6437 5307,6448 5326,6459 5346,6471 5365,6484 5384,6497 5403,6511 5422,6525 5441,6540 5459,6555 5477,6571 5494,6586 5511,6603 5526,6619 5541,6635 5555,6652 5567,6669 5579,6686 5590,6703 5600,6720 5610,6738 5619,6757 5628,6777 5636,6797 5644,6819 5651,6841 5658,6865 5665,6889 5671,6914 5677,6940 5682,6965 5686,6991 5690,7017 5694,7042 5697,7067 5699,7092 5701,7116 5703,7140 5704,7163 5705,7186 5705,7208 5706,7231 5706,7254 5705,7278 5704,7302 5703,7326 5701,7351 5698,7376 5695,7401 5691,7426 5687,7451 5682,7475 5676,7499 5670,7522 5663,7544 5655,7565 5647,7585 5638,7605 5629,7624 5619,7642 5608,7660 5596,7678 5584,7695 5570,7713 5555,7731 5539,7748 5522,7766 5504,7784 5485,7801 5466,7818 5446,7835 5425,7852 5405,7868 5384,7883 5363,7898 5343,7912 5322,7925 5302,7938 5282,7950 5262,7962 5242,7974 5222,7986 5201,7997 5179,8009 5157,8020 5134,8032 5111,8042 5087,8053 5063,8063 5038,8073 5014,8082 4989,8090 4965,8097 4941,8103 4918,8109 4895,8113 4873,8116 4851,8119 4830,8121 4809,8121 4788,8121 4767,8120 4746,8117 4724,8114 4701,8110 4678,8105 4655,8099 4632,8092 4608,8085 4584,8076 4560,8067 4536,8057 4513,8047 4490,8036 4468,8025 4446,8014 4425,8003 4405,7991 4384,7980 4365,7968 4345,7956 4325,7944 4305,7931 4285,7918 4265,7904 4244,7889 4223,7874 4203,7858 4182,7842 4162,7825 4143,7808 4124,7791 4106,7773 4089,7755 4073,7738 4058,7720 4044,7702 4031,7685 4020,7667 4009,7649 3999,7631 3990,7612 3982,7593 3974,7572 3967,7551 3960,7529 3954,7506 3949,7482 3944,7458 3939,7434 3936,7409 3933,7384 3930,7360 3928,7335 3927,7311 3926,7287 3925,7264 3924,7241 3924,7219 3924,7197 3925,7175 3925,7152 3926,7129 3927,7106 3928,7082 3930,7058 3932,7034 3935,7009 3938,6984 3942,6959 3946,6934 3951,6910 3956,6887 3962,6864 3968,6842 3975,6821 3983,6800 3991,6781 3999,6762 4009,6745 4009,6745 4019,6727 4030,6710 4041,6693 4054,6675 4068,6658 4083,6641 4099,6624 "
       style="stroke:#000000;stroke-width:7;stroke-linecap:butt;stroke-linejoin:bevel"
       id="polygon22" />
    <!-- Line -->
    <polyline
       points="3587,7236 3587,7233 3587,7227 3588,7215 3588,7198 3589,7175 3591,7146 3593,7113 3595,7076 3598,7037 3601,6998 3604,6959 3608,6921 3613,6885 3617,6851 3623,6819 3628,6790 3634,6763 3641,6737 3649,6714 3657,6691 3666,6670 3677,6650 3688,6631 3700,6611 3713,6593 3727,6574 3742,6556 3758,6537 3776,6519 3795,6501 3814,6482 3835,6464 3857,6446 3880,6428 3903,6411 3927,6393 3951,6376 3976,6359 4000,6343 4025,6327 4049,6312 4074,6297 4098,6282 4121,6268 4145,6254 4168,6241 4191,6227 4214,6214 4238,6200 4261,6187 4285,6173 4310,6159 4335,6145 4360,6132 4386,6118 4413,6105 4439,6092 4466,6079 4494,6067 4521,6056 4548,6045 4574,6035 4601,6027 4627,6019 4652,6012 4677,6006 4702,6001 4726,5997 4750,5994 4773,5993 4796,5992 4819,5993 4842,5994 4866,5997 4890,6001 4915,6006 4940,6012 4965,6019 4991,6027 5018,6035 5044,6045 5071,6056 5099,6067 5126,6079 5153,6092 5179,6105 5206,6118 5232,6132 5257,6145 5282,6159 5307,6173 5331,6187 5355,6200 5378,6214 5401,6227 5424,6241 5447,6254 5471,6268 5495,6282 5519,6297 5543,6312 5568,6327 5592,6343 5617,6359 5641,6376 5666,6393 5690,6411 5713,6428 5735,6446 5757,6464 5778,6482 5798,6501 5817,6519 5834,6537 5851,6556 5866,6574 5880,6593 5893,6611 5905,6631 5916,6650 5927,6670 5936,6691 5945,6713 5953,6735 5960,6759 5967,6783 5973,6808 5979,6834 5984,6860 5988,6887 5992,6915 5995,6943 5998,6971 6000,6999 6002,7026 6003,7054 6004,7081 6005,7108 6006,7134 6006,7160 6006,7186 6006,7211 6006,7236 6006,7261 6006,7286 6006,7312 6006,7338 6005,7364 6004,7391 6003,7418 6002,7445 6000,7473 5998,7501 5995,7529 5992,7557 5988,7584 5984,7611 5979,7638 5973,7663 5967,7688 5960,7713 5953,7736 5945,7759 5936,7780 5927,7801 5916,7821 5905,7841 5893,7860 5880,7878 5866,7897 5851,7915 5834,7934 5817,7952 5798,7970 5778,7989 5757,8007 5735,8025 5713,8043 5690,8061 5666,8078 5641,8095 5617,8112 5592,8128 5568,8144 5543,8159 5519,8174 5495,8189 5471,8203 5447,8217 5424,8230 5401,8244 5378,8257 5355,8271 5331,8284 5307,8298 5282,8312 5257,8326 5232,8339 5206,8353 5179,8366 5153,8379 5126,8392 5098,8404 5071,8415 5044,8426 5018,8436 4991,8444 4965,8452 4940,8459 4915,8465 4890,8470 4866,8474 4842,8477 4819,8478 4796,8479 4773,8478 4750,8477 4726,8474 4702,8470 4677,8465 4652,8459 4627,8452 4601,8444 4574,8436 4548,8426 4521,8415 4494,8404 4466,8392 4439,8379 4413,8366 4386,8353 4360,8339 4335,8326 4310,8312 4285,8298 4261,8284 4238,8271 4214,8257 4191,8244 4168,8230 4145,8217 4121,8203 4098,8189 4074,8174 4049,8159 4025,8144 4000,8128 3976,8112 3951,8095 3927,8078 3903,8061 3880,8043 3857,8025 3835,8007 3814,7989 3795,7970 3776,7952 3758,7934 3742,7915 3727,7897 3713,7878 3700,7860 3688,7841 3677,7821 3666,7801 3657,7780 3649,7758 3641,7734 3634,7709 3628,7682 3623,7652 3617,7621 3613,7587 3608,7551 3604,7513 3601,7474 3598,7434 3595,7396 3593,7359 3591,7326 3589,7297 3588,7274 3588,7257 3587,7245 3587,7239 3587,7236 "
       style="stroke:#000000;stroke-width:7;stroke-linecap:butt;stroke-linejoin:bevel"
       id="polyline24" />
    <!-- Line -->
    <polyline
       points="3311,7180 3311,7177 3311,7171 3312,7159 3312,7142 3313,7118 3314,7087 3316,7051 3318,7011 3321,6968 3323,6923 3327,6877 3330,6831 3334,6787 3339,6745 3344,6705 3349,6667 3355,6632 3361,6600 3368,6569 3375,6540 3383,6514 3392,6488 3402,6464 3412,6440 3424,6418 3435,6397 3447,6376 3460,6356 3474,6336 3490,6316 3506,6296 3523,6276 3541,6256 3560,6236 3580,6216 3600,6196 3622,6176 3645,6157 3668,6137 3691,6118 3715,6098 3740,6079 3764,6061 3789,6043 3814,6025 3839,6007 3864,5990 3888,5973 3913,5957 3938,5940 3962,5924 3987,5908 4011,5893 4036,5876 4061,5860 4086,5844 4112,5828 4138,5811 4166,5794 4193,5778 4222,5761 4251,5744 4280,5728 4310,5711 4340,5695 4371,5680 4402,5665 4433,5651 4464,5637 4495,5625 4525,5613 4556,5602 4586,5592 4615,5584 4645,5576 4673,5570 4702,5564 4729,5560 4757,5557 4784,5556 4811,5555 4838,5556 4865,5557 4893,5560 4920,5564 4949,5570 4977,5576 5007,5583 5036,5592 5066,5602 5097,5612 5127,5624 5158,5636 5189,5649 5220,5663 5251,5678 5282,5693 5312,5708 5342,5724 5371,5740 5400,5756 5429,5772 5456,5788 5484,5804 5510,5819 5536,5835 5561,5850 5586,5865 5611,5880 5637,5896 5664,5912 5690,5927 5716,5943 5743,5959 5770,5976 5797,5993 5823,6010 5850,6027 5877,6045 5903,6064 5929,6082 5954,6101 5979,6120 6003,6140 6026,6160 6049,6180 6070,6200 6090,6220 6109,6240 6126,6261 6143,6282 6158,6302 6173,6324 6186,6345 6199,6368 6209,6389 6219,6411 6229,6433 6237,6457 6245,6481 6253,6507 6260,6533 6267,6561 6273,6589 6278,6618 6283,6648 6288,6679 6292,6710 6295,6742 6299,6774 6301,6807 6303,6839 6305,6872 6307,6904 6308,6936 6309,6968 6310,6999 6310,7030 6311,7061 6311,7091 6311,7121 6311,7151 6311,7180 6311,7209 6311,7239 6311,7269 6311,7299 6310,7330 6310,7361 6309,7392 6308,7424 6306,7456 6305,7488 6303,7521 6300,7553 6297,7586 6294,7618 6290,7650 6285,7681 6280,7712 6275,7742 6268,7771 6262,7799 6254,7827 6247,7853 6238,7879 6229,7903 6219,7927 6209,7949 6198,7971 6186,7993 6173,8013 6160,8033 6145,8053 6129,8073 6113,8092 6095,8111 6076,8130 6057,8149 6036,8168 6014,8186 5991,8205 5968,8223 5944,8241 5919,8259 5893,8276 5868,8294 5842,8311 5815,8328 5789,8344 5763,8360 5737,8376 5711,8391 5686,8406 5660,8421 5635,8436 5610,8451 5586,8465 5561,8480 5538,8494 5515,8508 5492,8522 5468,8536 5444,8551 5419,8565 5394,8580 5368,8594 5341,8609 5314,8623 5286,8637 5258,8650 5228,8664 5199,8676 5169,8688 5138,8699 5107,8710 5076,8719 5044,8727 5013,8735 4981,8741 4949,8746 4917,8750 4884,8753 4852,8754 4819,8755 4787,8754 4754,8751 4720,8748 4686,8743 4657,8737 4628,8731 4597,8724 4567,8715 4535,8706 4503,8696 4470,8685 4437,8672 4402,8659 4368,8644 4332,8629 4297,8613 4261,8596 4224,8577 4188,8558 4151,8539 4115,8518 4078,8497 4042,8475 4007,8453 3972,8431 3937,8408 3904,8384 3871,8361 3839,8337 3808,8313 3778,8290 3749,8266 3722,8242 3695,8219 3670,8195 3646,8172 3623,8149 3601,8126 3581,8103 3561,8080 3539,8052 3518,8025 3499,7997 3481,7969 3465,7939 3450,7909 3436,7878 3423,7846 3410,7812 3399,7776 3389,7739 3379,7700 3370,7659 3362,7616 3354,7572 3347,7527 3341,7482 3335,7438 3330,7394 3325,7353 3322,7315 3318,7281 3316,7252 3314,7227 3313,7209 3312,7195 3311,7187 3311,7182 3311,7180 "
       style="stroke:#000000;stroke-width:7;stroke-linecap:butt;stroke-linejoin:bevel"
       id="polyline26" />
    <!-- Line -->
    <polygon
       points="9088,6615 9071,6599 9052,6582 9033,6566 9014,6550 8994,6535 8974,6521 8955,6506 8935,6493 8916,6480 8896,6468 8877,6456 8858,6444 8838,6432 8818,6421 8797,6410 8776,6398 8754,6387 8732,6376 8709,6365 8685,6354 8660,6344 8636,6335 8611,6326 8586,6317 8562,6310 8538,6304 8514,6298 8490,6294 8467,6290 8445,6287 8423,6286 8401,6285 8381,6285 8360,6286 8340,6288 8319,6291 8297,6294 8275,6299 8253,6304 8230,6309 8207,6316 8184,6323 8161,6331 8138,6339 8115,6347 8093,6357 8071,6366 8050,6375 8029,6385 8009,6395 7990,6404 7971,6414 7953,6424 7935,6434 7916,6445 7897,6456 7878,6467 7858,6479 7839,6492 7820,6505 7801,6519 7782,6533 7763,6548 7745,6563 7727,6579 7710,6594 7693,6611 7678,6627 7663,6643 7649,6660 7637,6677 7625,6694 7614,6711 7604,6728 7594,6746 7585,6765 7576,6785 7568,6805 7560,6827 7553,6849 7546,6873 7539,6897 7533,6922 7527,6948 7522,6973 7518,6999 7514,7025 7510,7050 7507,7075 7505,7100 7503,7124 7501,7148 7500,7171 7499,7194 7499,7216 7498,7239 7498,7262 7499,7286 7500,7310 7501,7334 7503,7359 7506,7384 7509,7409 7513,7434 7517,7459 7522,7483 7528,7507 7534,7530 7541,7552 7549,7573 7557,7593 7566,7613 7575,7632 7585,7650 7596,7668 7608,7686 7620,7703 7634,7721 7649,7739 7665,7756 7682,7774 7700,7792 7719,7809 7738,7826 7758,7843 7779,7860 7799,7876 7820,7891 7841,7906 7861,7920 7882,7933 7902,7946 7922,7958 7942,7970 7962,7982 7982,7994 8003,8005 8025,8017 8047,8028 8070,8040 8093,8050 8117,8061 8141,8071 8166,8081 8190,8090 8215,8098 8239,8105 8263,8111 8286,8117 8309,8121 8331,8124 8353,8127 8374,8129 8395,8129 8416,8129 8437,8128 8458,8125 8480,8122 8503,8118 8526,8113 8549,8107 8572,8100 8596,8093 8620,8084 8644,8075 8668,8065 8691,8055 8714,8044 8736,8033 8758,8022 8779,8011 8799,7999 8820,7988 8839,7976 8859,7964 8879,7952 8899,7939 8919,7926 8939,7912 8960,7897 8981,7882 9001,7866 9022,7850 9042,7833 9061,7816 9080,7799 9098,7781 9115,7763 9131,7746 9146,7728 9160,7710 9173,7693 9184,7675 9195,7657 9205,7639 9214,7620 9222,7601 9230,7580 9237,7559 9244,7537 9250,7514 9255,7490 9260,7466 9265,7442 9268,7417 9271,7392 9274,7368 9276,7343 9277,7319 9278,7295 9279,7272 9280,7249 9280,7227 9280,7205 9279,7183 9279,7160 9278,7137 9277,7114 9276,7090 9274,7066 9272,7042 9269,7017 9266,6992 9262,6967 9258,6942 9253,6918 9248,6895 9242,6872 9236,6850 9229,6829 9221,6808 9213,6789 9205,6770 9195,6753 9195,6753 9185,6735 9174,6718 9163,6701 9150,6683 9136,6666 9121,6649 9105,6632 "
       style="stroke:#000000;stroke-width:7;stroke-linecap:butt;stroke-linejoin:bevel"
       id="polygon28" />
    <!-- Line -->
    <polyline
       points="9617,7244 9617,7241 9617,7235 9616,7223 9616,7206 9615,7183 9613,7154 9611,7121 9609,7084 9606,7045 9603,7006 9600,6967 9596,6929 9591,6893 9587,6859 9581,6827 9576,6798 9570,6771 9563,6745 9555,6722 9547,6699 9538,6678 9527,6658 9516,6639 9504,6619 9491,6601 9477,6582 9462,6564 9446,6545 9428,6527 9409,6509 9390,6490 9369,6472 9347,6454 9324,6436 9301,6419 9277,6401 9253,6384 9228,6367 9204,6351 9179,6335 9155,6320 9130,6305 9106,6290 9083,6276 9059,6262 9036,6249 9013,6235 8990,6222 8966,6208 8943,6195 8919,6181 8894,6167 8869,6153 8844,6140 8818,6126 8791,6113 8765,6100 8738,6087 8710,6075 8683,6064 8656,6053 8630,6043 8603,6035 8577,6027 8552,6020 8527,6014 8502,6009 8478,6005 8454,6002 8431,6001 8408,6000 8385,6001 8362,6002 8338,6005 8314,6009 8289,6014 8264,6020 8239,6027 8213,6035 8186,6043 8160,6053 8133,6064 8105,6075 8078,6087 8051,6100 8025,6113 7998,6126 7972,6140 7947,6153 7922,6167 7897,6181 7873,6195 7849,6208 7826,6222 7803,6235 7780,6249 7757,6262 7733,6276 7709,6290 7685,6305 7661,6320 7636,6335 7612,6351 7587,6367 7563,6384 7538,6401 7514,6419 7491,6436 7469,6454 7447,6472 7426,6490 7406,6509 7387,6527 7370,6545 7353,6564 7338,6582 7324,6601 7311,6619 7299,6639 7288,6658 7277,6678 7268,6699 7259,6721 7251,6743 7244,6767 7237,6791 7231,6816 7225,6842 7220,6868 7216,6895 7212,6923 7209,6951 7206,6979 7204,7007 7202,7034 7201,7062 7200,7089 7199,7116 7198,7142 7198,7168 7198,7194 7198,7219 7198,7244 7198,7269 7198,7294 7198,7320 7198,7346 7199,7372 7200,7399 7201,7426 7202,7453 7204,7481 7206,7509 7209,7537 7212,7565 7216,7592 7220,7619 7225,7646 7231,7671 7237,7696 7244,7721 7251,7744 7259,7767 7268,7788 7277,7809 7288,7829 7299,7849 7311,7868 7324,7886 7338,7905 7353,7923 7370,7942 7387,7960 7406,7978 7426,7997 7447,8015 7469,8033 7491,8051 7514,8069 7538,8086 7563,8103 7587,8120 7612,8136 7636,8152 7661,8167 7685,8182 7709,8197 7733,8211 7757,8225 7780,8238 7803,8252 7826,8265 7849,8279 7873,8292 7897,8306 7922,8320 7947,8334 7972,8347 7998,8361 8025,8374 8051,8387 8078,8400 8106,8412 8133,8423 8160,8434 8186,8444 8213,8452 8239,8460 8264,8467 8289,8473 8314,8478 8338,8482 8362,8485 8385,8486 8408,8487 8431,8486 8454,8485 8478,8482 8502,8478 8527,8473 8552,8467 8577,8460 8603,8452 8630,8444 8656,8434 8683,8423 8710,8412 8738,8400 8765,8387 8791,8374 8818,8361 8844,8347 8869,8334 8894,8320 8919,8306 8943,8292 8966,8279 8990,8265 9013,8252 9036,8238 9059,8225 9083,8211 9106,8197 9130,8182 9155,8167 9179,8152 9204,8136 9228,8120 9253,8103 9277,8086 9301,8069 9324,8051 9347,8033 9369,8015 9390,7997 9409,7978 9428,7960 9446,7942 9462,7923 9477,7905 9491,7886 9504,7868 9516,7849 9527,7829 9538,7809 9547,7788 9555,7766 9563,7742 9570,7717 9576,7690 9581,7660 9587,7629 9591,7595 9596,7559 9600,7521 9603,7482 9606,7442 9609,7404 9611,7367 9613,7334 9615,7305 9616,7282 9616,7265 9617,7253 9617,7247 9617,7244 "
       style="stroke:#000000;stroke-width:7;stroke-linecap:butt;stroke-linejoin:bevel"
       id="polyline30" />
    <!-- Circle -->
    <circle
       cx="10195"
       cy="4200"
       r="605"
       style="stroke:#000000;stroke-width:7"
       id="circle32" />
    <!-- Circle -->
    <circle
       cx="8404"
       cy="1163"
       r="605"
       style="stroke:#000000;stroke-width:7"
       id="circle34" />
    <!-- Circle -->
    <circle
       cx="8409"
       cy="1182"
       r="300"
       style="stroke:#000000;stroke-width:7"
       id="circle36" />
    <!-- Circle -->
    <circle
       cx="4797"
       cy="1182"
       r="605"
       style="stroke:#000000;stroke-width:7"
       id="circle38" />
    <!-- Circle -->
    <circle
       cx="4792"
       cy="1201"
       r="300"
       style="stroke:#000000;stroke-width:7"
       id="circle40" />
    <!-- Circle -->
    <circle
       cx="8403"
       cy="7218"
       r="605"
       style="stroke:#000000;stroke-width:7"
       id="circle42" />
    <!-- Circle -->
    <circle
       cx="8408"
       cy="7199"
       r="300"
       style="stroke:#000000;stroke-width:7"
       id="circle44" />
    <!-- Circle -->
    <circle
       cx="4801"
       cy="7210"
       r="605"
       style="stroke:#000000;stroke-width:7"
       id="circle46" />
    <!-- Circle -->
    <circle
       cx="4796"
       cy="7191"
       r="300"
       style="stroke:#000000;stroke-width:7"
       id="circle48" />
    <!-- Line -->
    <polyline
       points="9893,7188 9893,7185 9893,7179 9892,7167 9892,7150 9891,7126 9890,7095 9888,7059 9886,7019 9883,6976 9881,6931 9877,6885 9874,6839 9870,6795 9865,6753 9860,6713 9855,6675 9849,6640 9843,6608 9836,6577 9829,6548 9821,6522 9812,6496 9802,6472 9792,6448 9781,6426 9769,6405 9757,6384 9744,6364 9730,6344 9714,6324 9698,6304 9681,6284 9663,6264 9644,6244 9624,6224 9604,6204 9582,6184 9559,6165 9536,6145 9513,6126 9489,6106 9464,6087 9440,6069 9415,6051 9390,6033 9365,6015 9340,5998 9316,5981 9291,5965 9266,5948 9242,5932 9217,5916 9193,5901 9168,5884 9143,5868 9118,5852 9092,5836 9066,5819 9038,5802 9011,5786 8982,5769 8953,5752 8924,5736 8894,5719 8864,5703 8833,5688 8802,5673 8771,5659 8740,5645 8709,5633 8679,5621 8648,5610 8618,5600 8589,5592 8559,5584 8531,5578 8502,5572 8475,5568 8447,5565 8420,5564 8393,5563 8366,5564 8339,5565 8311,5568 8284,5572 8255,5578 8227,5584 8197,5591 8168,5600 8138,5610 8107,5620 8077,5632 8046,5644 8015,5657 7984,5671 7953,5686 7922,5701 7892,5716 7862,5732 7833,5748 7804,5764 7775,5780 7748,5796 7720,5812 7694,5827 7668,5843 7643,5858 7618,5873 7593,5888 7567,5904 7540,5920 7514,5935 7488,5951 7461,5967 7434,5984 7407,6001 7381,6018 7354,6035 7327,6053 7301,6072 7275,6090 7250,6109 7225,6128 7201,6148 7178,6168 7155,6188 7134,6208 7114,6228 7095,6248 7078,6269 7061,6290 7046,6310 7031,6332 7018,6353 7006,6376 6995,6397 6985,6419 6975,6441 6967,6465 6959,6489 6951,6515 6944,6541 6937,6569 6931,6597 6926,6626 6921,6656 6916,6687 6912,6718 6909,6750 6905,6782 6903,6815 6901,6847 6899,6880 6897,6912 6896,6944 6895,6976 6894,7007 6894,7038 6893,7069 6893,7099 6893,7129 6893,7159 6893,7188 6893,7217 6893,7247 6893,7277 6893,7307 6894,7338 6894,7369 6895,7400 6896,7432 6898,7464 6899,7496 6901,7529 6904,7561 6907,7594 6910,7626 6914,7658 6919,7689 6924,7720 6929,7750 6936,7779 6942,7807 6950,7835 6957,7861 6966,7887 6975,7911 6985,7935 6995,7957 7006,7979 7018,8001 7031,8021 7044,8041 7059,8061 7075,8081 7091,8100 7109,8119 7128,8138 7147,8157 7168,8176 7190,8194 7213,8213 7236,8231 7260,8249 7285,8267 7311,8284 7336,8302 7362,8319 7389,8336 7415,8352 7441,8368 7467,8384 7493,8399 7518,8414 7544,8429 7569,8444 7594,8459 7618,8473 7643,8488 7666,8502 7689,8516 7712,8530 7736,8544 7760,8559 7785,8573 7810,8588 7836,8602 7863,8617 7890,8631 7918,8645 7946,8658 7976,8672 8005,8684 8035,8696 8066,8707 8097,8718 8128,8727 8160,8735 8191,8743 8223,8749 8255,8754 8287,8758 8320,8761 8352,8762 8385,8763 8417,8762 8450,8759 8484,8756 8518,8751 8547,8745 8576,8739 8607,8732 8637,8723 8669,8714 8701,8704 8734,8693 8767,8680 8802,8667 8836,8652 8872,8637 8907,8621 8943,8604 8980,8585 9016,8566 9053,8547 9089,8526 9126,8505 9162,8483 9197,8461 9232,8439 9267,8416 9300,8392 9333,8369 9365,8345 9396,8321 9426,8298 9455,8274 9482,8250 9509,8227 9534,8203 9558,8180 9581,8157 9603,8134 9623,8111 9643,8088 9665,8060 9686,8033 9705,8005 9723,7977 9739,7947 9754,7917 9768,7886 9781,7854 9794,7820 9805,7784 9815,7747 9825,7708 9834,7667 9842,7624 9850,7580 9857,7535 9863,7490 9869,7446 9874,7402 9879,7361 9882,7323 9886,7289 9888,7260 9890,7235 9891,7217 9892,7203 9893,7195 9893,7190 9893,7188 "
       style="stroke:#000000;stroke-width:7;stroke-linecap:butt;stroke-linejoin:bevel"
       id="polyline50" />
    <!-- Line -->
    <polygon
       points="4112,1785 4129,1801 4148,1818 4167,1834 4186,1850 4206,1865 4226,1879 4245,1894 4265,1907 4284,1920 4304,1932 4323,1944 4343,1956 4362,1968 4382,1979 4403,1990 4424,2002 4446,2013 4468,2024 4491,2035 4515,2046 4540,2056 4564,2065 4589,2074 4614,2083 4638,2090 4662,2096 4686,2102 4710,2106 4733,2110 4755,2113 4777,2114 4799,2115 4819,2115 4840,2114 4860,2112 4881,2109 4903,2106 4925,2101 4947,2096 4970,2091 4993,2084 5016,2077 5039,2069 5062,2061 5085,2053 5107,2043 5129,2034 5150,2025 5171,2015 5191,2005 5210,1996 5229,1986 5247,1976 5265,1966 5284,1955 5303,1944 5322,1933 5342,1921 5361,1908 5380,1895 5399,1881 5418,1867 5437,1852 5455,1837 5473,1821 5490,1806 5507,1789 5522,1773 5537,1757 5551,1740 5563,1723 5575,1706 5586,1689 5596,1672 5606,1654 5615,1635 5624,1615 5632,1595 5640,1573 5647,1551 5654,1527 5661,1503 5667,1478 5673,1452 5678,1427 5682,1401 5686,1375 5690,1350 5693,1325 5695,1300 5697,1276 5699,1252 5700,1229 5701,1207 5701,1184 5702,1161 5702,1138 5701,1114 5700,1090 5699,1066 5697,1041 5694,1016 5691,991 5687,966 5683,941 5678,917 5672,893 5666,870 5659,848 5651,827 5643,807 5634,787 5625,768 5615,750 5604,732 5592,714 5580,697 5566,679 5551,661 5535,644 5518,626 5500,608 5481,591 5462,574 5442,557 5421,540 5401,524 5380,509 5359,494 5339,480 5318,467 5298,454 5278,442 5258,430 5238,418 5218,406 5197,395 5175,383 5153,372 5130,360 5107,350 5083,339 5059,329 5034,319 5010,310 4985,302 4961,295 4937,289 4914,283 4891,279 4869,276 4847,273 4826,271 4805,271 4784,271 4763,272 4742,275 4720,278 4697,282 4674,287 4651,293 4628,300 4604,307 4580,316 4556,325 4532,335 4509,345 4486,356 4464,367 4442,378 4421,389 4401,401 4380,412 4361,424 4341,436 4321,448 4301,461 4281,474 4261,488 4240,503 4219,518 4199,534 4178,550 4158,567 4139,584 4120,601 4102,619 4085,637 4069,654 4054,672 4040,690 4027,707 4016,725 4005,743 3995,761 3986,780 3978,799 3970,820 3963,841 3956,863 3950,886 3945,910 3940,934 3935,958 3932,983 3929,1008 3926,1032 3924,1057 3923,1081 3922,1105 3921,1128 3920,1151 3920,1173 3920,1195 3921,1217 3921,1240 3922,1263 3923,1286 3924,1310 3926,1334 3928,1358 3931,1383 3934,1408 3938,1433 3942,1458 3947,1482 3952,1505 3958,1528 3964,1550 3971,1571 3979,1592 3987,1611 3995,1630 4005,1648 4005,1648 4015,1665 4026,1682 4037,1699 4050,1717 4064,1734 4079,1751 4095,1768 "
       style="stroke:#000000;stroke-width:7;stroke-linecap:butt;stroke-linejoin:bevel"
       id="polygon52" />
    <!-- Line -->
    <polyline
       points="3583,1156 3583,1159 3583,1165 3584,1177 3584,1194 3585,1217 3587,1246 3589,1279 3591,1316 3594,1355 3597,1394 3600,1433 3604,1471 3609,1507 3613,1541 3619,1573 3624,1602 3630,1629 3637,1655 3645,1678 3653,1701 3662,1722 3673,1742 3684,1762 3696,1781 3709,1799 3723,1818 3738,1836 3754,1855 3772,1873 3791,1891 3810,1910 3831,1928 3853,1946 3876,1964 3899,1981 3923,1999 3947,2016 3972,2033 3996,2049 4021,2065 4045,2080 4070,2095 4094,2110 4117,2124 4141,2138 4164,2151 4187,2165 4210,2178 4234,2192 4257,2205 4281,2219 4306,2233 4331,2247 4356,2260 4382,2274 4409,2287 4435,2300 4462,2313 4490,2325 4517,2336 4544,2347 4570,2357 4597,2365 4623,2373 4648,2380 4673,2386 4698,2391 4722,2395 4746,2398 4769,2399 4792,2400 4815,2399 4838,2398 4862,2395 4886,2391 4911,2386 4936,2380 4961,2373 4987,2365 5014,2357 5040,2347 5067,2336 5095,2325 5122,2313 5149,2300 5175,2287 5202,2274 5228,2260 5253,2247 5278,2233 5303,2219 5327,2205 5351,2192 5374,2178 5397,2165 5420,2151 5443,2138 5467,2124 5491,2110 5515,2095 5539,2080 5564,2065 5588,2049 5613,2033 5637,2016 5662,1999 5686,1981 5709,1964 5731,1946 5753,1928 5774,1910 5794,1891 5813,1873 5830,1855 5847,1836 5862,1818 5876,1799 5889,1781 5901,1762 5912,1742 5923,1722 5932,1701 5941,1679 5949,1657 5956,1633 5963,1609 5969,1584 5975,1558 5980,1532 5984,1505 5988,1477 5991,1449 5994,1421 5996,1393 5998,1366 5999,1338 6000,1311 6001,1284 6002,1258 6002,1232 6002,1206 6002,1181 6002,1156 6002,1131 6002,1106 6002,1080 6002,1054 6001,1028 6000,1001 5999,974 5998,947 5996,919 5994,891 5991,863 5988,835 5984,808 5980,781 5975,754 5969,729 5963,704 5956,679 5949,656 5941,633 5932,612 5923,591 5912,571 5901,551 5889,532 5876,514 5862,495 5847,477 5830,458 5813,440 5794,422 5774,403 5753,385 5731,367 5709,349 5686,331 5662,314 5637,297 5613,280 5588,264 5564,248 5539,233 5515,218 5491,203 5467,189 5443,175 5420,162 5397,148 5374,135 5351,121 5327,108 5303,94 5278,80 5253,66 5228,53 5202,39 5175,26 5149,13 5122,0 5094,-12 5067,-23 5040,-34 5014,-44 4987,-52 4961,-60 4936,-67 4911,-73 4886,-78 4862,-82 4838,-85 4815,-86 4792,-87 4769,-86 4746,-85 4722,-82 4698,-78 4673,-73 4648,-67 4623,-60 4597,-52 4570,-44 4544,-34 4517,-23 4490,-12 4462,0 4435,13 4409,26 4382,39 4356,53 4331,66 4306,80 4281,94 4257,108 4234,121 4210,135 4187,148 4164,162 4141,175 4117,189 4094,203 4070,218 4045,233 4021,248 3996,264 3972,280 3947,297 3923,314 3899,331 3876,349 3853,367 3831,385 3810,403 3791,422 3772,440 3754,458 3738,477 3723,495 3709,514 3696,532 3684,551 3673,571 3662,591 3653,612 3645,634 3637,658 3630,683 3624,710 3619,740 3613,771 3609,805 3604,841 3600,879 3597,918 3594,958 3591,996 3589,1033 3587,1066 3585,1095 3584,1118 3584,1135 3583,1147 3583,1153 3583,1156 "
       style="stroke:#000000;stroke-width:7;stroke-linecap:butt;stroke-linejoin:bevel"
       id="polyline54" />
    <!-- Line -->
    <polygon
       points="9089,1766 9072,1782 9053,1799 9034,1815 9015,1831 8995,1846 8975,1860 8956,1875 8936,1888 8917,1901 8897,1913 8878,1925 8859,1937 8839,1949 8819,1960 8798,1971 8777,1983 8755,1994 8733,2005 8710,2016 8686,2027 8661,2037 8637,2046 8612,2055 8587,2064 8563,2071 8539,2077 8515,2083 8491,2087 8468,2091 8446,2094 8424,2095 8402,2096 8382,2096 8361,2095 8341,2093 8320,2090 8298,2087 8276,2082 8254,2077 8231,2072 8208,2065 8185,2058 8162,2050 8139,2042 8116,2034 8094,2024 8072,2015 8051,2006 8030,1996 8010,1986 7991,1977 7972,1967 7954,1957 7936,1947 7917,1936 7898,1925 7879,1914 7859,1902 7840,1889 7821,1876 7802,1862 7783,1848 7764,1833 7746,1818 7728,1802 7711,1787 7694,1770 7679,1754 7664,1738 7650,1721 7638,1704 7626,1687 7615,1670 7605,1653 7595,1635 7586,1616 7577,1596 7569,1576 7561,1554 7554,1532 7547,1508 7540,1484 7534,1459 7528,1433 7523,1408 7519,1382 7515,1356 7511,1331 7508,1306 7506,1281 7504,1257 7502,1233 7501,1210 7500,1188 7500,1165 7499,1142 7499,1119 7500,1095 7501,1071 7502,1047 7504,1022 7507,997 7510,972 7514,947 7518,922 7523,898 7529,874 7535,851 7542,829 7550,808 7558,788 7567,768 7576,749 7586,731 7597,713 7609,695 7621,678 7635,660 7650,642 7666,625 7683,607 7701,589 7720,572 7739,555 7759,538 7780,521 7800,505 7821,490 7842,475 7862,461 7883,448 7903,435 7923,423 7943,411 7963,399 7983,387 8004,376 8026,364 8048,353 8071,341 8094,331 8118,320 8142,310 8167,300 8191,291 8216,283 8240,276 8264,270 8287,264 8310,260 8332,257 8354,254 8375,252 8396,252 8417,252 8438,253 8459,256 8481,259 8504,263 8527,268 8550,274 8573,281 8597,288 8621,297 8645,306 8669,316 8692,326 8715,337 8737,348 8759,359 8780,370 8800,382 8821,393 8840,405 8860,417 8880,429 8900,442 8920,455 8940,469 8961,484 8982,499 9002,515 9023,531 9043,548 9062,565 9081,582 9099,600 9116,618 9132,635 9147,653 9161,671 9174,688 9185,706 9196,724 9206,742 9215,761 9223,780 9231,801 9238,822 9245,844 9251,867 9256,891 9261,915 9266,939 9269,964 9272,989 9275,1013 9277,1038 9278,1062 9279,1086 9280,1109 9281,1132 9281,1154 9281,1176 9280,1198 9280,1221 9279,1244 9278,1267 9277,1291 9275,1315 9273,1339 9270,1364 9267,1389 9263,1414 9259,1439 9254,1463 9249,1486 9243,1509 9237,1531 9230,1552 9222,1573 9214,1592 9206,1611 9196,1629 9196,1629 9186,1646 9175,1663 9164,1680 9151,1698 9137,1715 9122,1732 9106,1749 "
       style="stroke:#000000;stroke-width:7;stroke-linecap:butt;stroke-linejoin:bevel"
       id="polygon56" />
    <!-- Line -->
    <polyline
       points="9618,1137 9618,1140 9618,1146 9617,1158 9617,1175 9616,1198 9614,1227 9612,1260 9610,1297 9607,1336 9604,1375 9601,1414 9597,1452 9592,1488 9588,1522 9582,1554 9577,1583 9571,1610 9564,1636 9556,1659 9548,1682 9539,1703 9528,1723 9517,1743 9505,1762 9492,1780 9478,1799 9463,1817 9447,1836 9429,1854 9410,1872 9391,1891 9370,1909 9348,1927 9325,1945 9302,1962 9278,1980 9254,1997 9229,2014 9205,2030 9180,2046 9156,2061 9131,2076 9107,2091 9084,2105 9060,2119 9037,2132 9014,2146 8991,2159 8967,2173 8944,2186 8920,2200 8895,2214 8870,2228 8845,2241 8819,2255 8792,2268 8766,2281 8739,2294 8711,2306 8684,2317 8657,2328 8631,2338 8604,2346 8578,2354 8553,2361 8528,2367 8503,2372 8479,2376 8455,2379 8432,2380 8409,2381 8386,2380 8363,2379 8339,2376 8315,2372 8290,2367 8265,2361 8240,2354 8214,2346 8187,2338 8161,2328 8134,2317 8106,2306 8079,2294 8052,2281 8026,2268 7999,2255 7973,2241 7948,2228 7923,2214 7898,2200 7874,2186 7850,2173 7827,2159 7804,2146 7781,2132 7758,2119 7734,2105 7710,2091 7686,2076 7662,2061 7637,2046 7613,2030 7588,2014 7564,1997 7539,1980 7515,1962 7492,1945 7470,1927 7448,1909 7427,1891 7407,1872 7388,1854 7371,1836 7354,1817 7339,1799 7325,1780 7312,1762 7300,1743 7289,1723 7278,1703 7269,1682 7260,1660 7252,1638 7245,1614 7238,1590 7232,1565 7226,1539 7221,1513 7217,1486 7213,1458 7210,1430 7207,1402 7205,1374 7203,1347 7202,1319 7201,1292 7200,1265 7199,1239 7199,1213 7199,1187 7199,1162 7199,1137 7199,1112 7199,1087 7199,1061 7199,1035 7200,1009 7201,982 7202,955 7203,928 7205,900 7207,872 7210,844 7213,816 7217,789 7221,762 7226,735 7232,710 7238,685 7245,660 7252,637 7260,614 7269,593 7278,572 7289,552 7300,532 7312,513 7325,495 7339,476 7354,458 7371,439 7388,421 7407,403 7427,384 7448,366 7470,348 7492,330 7515,312 7539,295 7564,278 7588,261 7613,245 7637,229 7662,214 7686,199 7710,184 7734,170 7758,156 7781,143 7804,129 7827,116 7850,102 7874,89 7898,75 7923,61 7948,47 7973,34 7999,20 8026,7 8052,-6 8079,-19 8107,-31 8134,-42 8161,-53 8187,-63 8214,-71 8240,-79 8265,-86 8290,-92 8315,-97 8339,-101 8363,-104 8386,-105 8409,-106 8432,-105 8455,-104 8479,-101 8503,-97 8528,-92 8553,-86 8578,-79 8604,-71 8631,-63 8657,-53 8684,-42 8711,-31 8739,-19 8766,-6 8792,7 8819,20 8845,34 8870,47 8895,61 8920,75 8944,89 8967,102 8991,116 9014,129 9037,143 9060,156 9084,170 9107,184 9131,199 9156,214 9180,229 9205,245 9229,261 9254,278 9278,295 9302,312 9325,330 9348,348 9370,366 9391,384 9410,403 9429,421 9447,439 9463,458 9478,476 9492,495 9505,513 9517,532 9528,552 9539,572 9548,593 9556,615 9564,639 9571,664 9577,691 9582,721 9588,752 9592,786 9597,822 9601,860 9604,899 9607,939 9610,977 9612,1014 9614,1047 9616,1076 9617,1099 9617,1116 9618,1128 9618,1134 9618,1137 "
       style="stroke:#000000;stroke-width:7;stroke-linecap:butt;stroke-linejoin:bevel"
       id="polyline58" />
    <!-- Line -->
    <polyline
       points="9894,1193 9894,1196 9894,1202 9893,1214 9893,1231 9892,1255 9891,1286 9889,1322 9887,1362 9884,1405 9882,1450 9878,1496 9875,1542 9871,1586 9866,1628 9861,1668 9856,1706 9850,1741 9844,1773 9837,1804 9830,1833 9822,1859 9813,1885 9803,1909 9793,1933 9782,1956 9770,1976 9758,1997 9745,2017 9731,2037 9715,2057 9699,2077 9682,2097 9664,2117 9645,2137 9625,2157 9605,2177 9583,2197 9560,2216 9537,2236 9514,2255 9490,2275 9465,2294 9441,2312 9416,2330 9391,2348 9366,2366 9341,2383 9317,2400 9292,2416 9267,2433 9243,2449 9218,2465 9194,2481 9169,2497 9144,2513 9119,2529 9093,2545 9067,2562 9039,2579 9012,2595 8983,2612 8954,2629 8925,2645 8895,2662 8865,2678 8834,2693 8803,2708 8772,2722 8741,2736 8710,2748 8680,2760 8649,2771 8619,2781 8590,2789 8560,2797 8532,2803 8503,2809 8476,2813 8448,2816 8421,2817 8394,2818 8367,2817 8340,2816 8312,2813 8285,2809 8256,2803 8228,2797 8198,2790 8169,2781 8139,2771 8108,2761 8078,2749 8047,2737 8016,2724 7985,2710 7954,2695 7923,2680 7893,2665 7863,2649 7834,2633 7805,2617 7776,2601 7749,2585 7721,2569 7695,2554 7669,2538 7644,2523 7619,2508 7594,2493 7568,2477 7541,2461 7515,2446 7489,2430 7462,2414 7435,2397 7408,2380 7382,2363 7355,2346 7328,2328 7302,2309 7276,2291 7251,2272 7226,2253 7202,2233 7179,2213 7156,2193 7135,2173 7115,2153 7096,2133 7079,2112 7062,2091 7047,2071 7032,2049 7019,2028 7007,2006 6996,1984 6986,1962 6976,1940 6968,1916 6960,1892 6952,1866 6945,1840 6938,1812 6932,1784 6927,1755 6922,1725 6917,1694 6913,1663 6910,1631 6906,1599 6904,1566 6902,1534 6900,1501 6898,1469 6897,1437 6896,1405 6895,1374 6895,1343 6894,1312 6894,1282 6894,1252 6894,1222 6894,1193 6894,1164 6894,1134 6894,1104 6894,1074 6895,1043 6895,1012 6896,981 6897,949 6899,917 6900,885 6902,852 6905,820 6908,787 6911,755 6915,723 6920,692 6925,661 6930,631 6937,602 6943,574 6951,546 6958,520 6967,494 6976,470 6986,446 6996,424 7007,402 7019,381 7032,360 7045,340 7060,320 7076,300 7092,281 7110,262 7129,243 7148,224 7169,205 7191,187 7214,168 7237,150 7261,132 7286,114 7312,97 7337,79 7363,62 7390,45 7416,29 7442,13 7468,-3 7494,-18 7519,-33 7545,-48 7570,-63 7595,-78 7619,-92 7644,-107 7667,-121 7690,-135 7713,-149 7737,-163 7761,-178 7786,-192 7811,-207 7837,-221 7864,-236 7891,-250 7919,-264 7947,-277 7977,-291 8006,-303 8036,-315 8067,-326 8098,-337 8129,-346 8161,-354 8192,-362 8224,-368 8256,-373 8288,-377 8321,-380 8353,-381 8386,-382 8418,-381 8451,-378 8485,-375 8519,-370 8548,-364 8577,-358 8608,-351 8638,-342 8670,-333 8702,-323 8735,-312 8768,-299 8803,-286 8837,-271 8873,-256 8908,-240 8944,-223 8981,-204 9017,-185 9054,-166 9090,-145 9127,-124 9163,-102 9198,-80 9233,-58 9268,-35 9301,-11 9334,12 9366,36 9397,60 9427,83 9456,107 9483,131 9510,154 9535,178 9559,201 9582,224 9604,247 9624,270 9644,293 9666,321 9687,348 9706,376 9724,404 9740,434 9755,464 9769,495 9782,527 9795,561 9806,597 9816,634 9826,673 9835,714 9843,757 9851,801 9858,846 9864,891 9870,935 9875,979 9880,1020 9883,1058 9887,1092 9889,1121 9891,1146 9892,1164 9893,1178 9894,1186 9894,1191 9894,1193 "
       style="stroke:#000000;stroke-width:7;stroke-linecap:butt;stroke-linejoin:bevel"
       id="polyline60" />
    <!-- Line -->
    <polyline
       points="11419,4214 11419,4211 11419,4205 11418,4193 11418,4176 11417,4153 11415,4124 11413,4091 11411,4054 11408,4015 11405,3976 11402,3937 11398,3899 11393,3863 11389,3829 11383,3797 11378,3768 11372,3741 11365,3715 11357,3692 11349,3669 11340,3648 11329,3628 11318,3609 11306,3589 11293,3571 11279,3552 11264,3534 11248,3515 11230,3497 11211,3479 11192,3460 11171,3442 11149,3424 11126,3406 11103,3389 11079,3371 11055,3354 11030,3337 11006,3321 10981,3305 10957,3290 10932,3275 10908,3260 10885,3246 10861,3232 10838,3219 10815,3205 10792,3192 10768,3178 10745,3165 10721,3151 10696,3137 10671,3123 10646,3110 10620,3096 10593,3083 10567,3070 10540,3057 10512,3045 10485,3034 10458,3023 10432,3013 10405,3005 10379,2997 10354,2990 10329,2984 10304,2979 10280,2975 10256,2972 10233,2971 10210,2970 10187,2971 10164,2972 10140,2975 10116,2979 10091,2984 10066,2990 10041,2997 10015,3005 9988,3013 9962,3023 9935,3034 9907,3045 9880,3057 9853,3070 9827,3083 9800,3096 9774,3110 9749,3123 9724,3137 9699,3151 9675,3165 9651,3178 9628,3192 9605,3205 9582,3219 9559,3232 9535,3246 9511,3260 9487,3275 9463,3290 9438,3305 9414,3321 9389,3337 9365,3354 9340,3371 9316,3389 9293,3406 9271,3424 9249,3442 9228,3460 9208,3479 9189,3497 9172,3515 9155,3534 9140,3552 9126,3571 9113,3589 9101,3609 9090,3628 9079,3648 9070,3669 9061,3691 9053,3713 9046,3737 9039,3761 9033,3786 9027,3812 9022,3838 9018,3865 9014,3893 9011,3921 9008,3949 9006,3977 9004,4004 9003,4032 9002,4059 9001,4086 9000,4112 9000,4138 9000,4164 9000,4189 9000,4214 9000,4239 9000,4264 9000,4290 9000,4316 9001,4342 9002,4369 9003,4396 9004,4423 9006,4451 9008,4479 9011,4507 9014,4535 9018,4562 9022,4589 9027,4616 9033,4641 9039,4666 9046,4691 9053,4714 9061,4737 9070,4758 9079,4779 9090,4799 9101,4819 9113,4838 9126,4856 9140,4875 9155,4893 9172,4912 9189,4930 9208,4948 9228,4967 9249,4985 9271,5003 9293,5021 9316,5039 9340,5056 9365,5073 9389,5090 9414,5106 9438,5122 9463,5137 9487,5152 9511,5167 9535,5181 9559,5195 9582,5208 9605,5222 9628,5235 9651,5249 9675,5262 9699,5276 9724,5290 9749,5304 9774,5317 9800,5331 9827,5344 9853,5357 9880,5370 9908,5382 9935,5393 9962,5404 9988,5414 10015,5422 10041,5430 10066,5437 10091,5443 10116,5448 10140,5452 10164,5455 10187,5456 10210,5457 10233,5456 10256,5455 10280,5452 10304,5448 10329,5443 10354,5437 10379,5430 10405,5422 10432,5414 10458,5404 10485,5393 10512,5382 10540,5370 10567,5357 10593,5344 10620,5331 10646,5317 10671,5304 10696,5290 10721,5276 10745,5262 10768,5249 10792,5235 10815,5222 10838,5208 10861,5195 10885,5181 10908,5167 10932,5152 10957,5137 10981,5122 11006,5106 11030,5090 11055,5073 11079,5056 11103,5039 11126,5021 11149,5003 11171,4985 11192,4967 11211,4948 11230,4930 11248,4912 11264,4893 11279,4875 11293,4856 11306,4838 11318,4819 11329,4799 11340,4779 11349,4758 11357,4736 11365,4712 11372,4687 11378,4660 11383,4630 11389,4599 11393,4565 11398,4529 11402,4491 11405,4452 11408,4412 11411,4374 11413,4337 11415,4304 11417,4275 11418,4252 11418,4235 11419,4223 11419,4217 11419,4214 "
       style="stroke:#000000;stroke-width:7;stroke-linecap:butt;stroke-linejoin:bevel"
       id="polyline62" />
    <!-- Line -->
    <polygon
       points="10910,3616 10893,3600 10874,3583 10855,3567 10836,3551 10816,3536 10796,3522 10777,3507 10757,3494 10738,3481 10718,3469 10699,3457 10680,3445 10660,3433 10640,3422 10619,3411 10598,3399 10576,3388 10554,3377 10531,3366 10507,3355 10482,3345 10458,3336 10433,3327 10408,3318 10384,3311 10360,3305 10336,3299 10312,3295 10289,3291 10267,3288 10245,3287 10223,3286 10203,3286 10182,3287 10162,3289 10141,3292 10119,3295 10097,3300 10075,3305 10052,3310 10029,3317 10006,3324 9983,3332 9960,3340 9937,3348 9915,3358 9893,3367 9872,3376 9851,3386 9831,3396 9812,3405 9793,3415 9775,3425 9757,3435 9738,3446 9719,3457 9700,3468 9680,3480 9661,3493 9642,3506 9623,3520 9604,3534 9585,3549 9567,3564 9549,3580 9532,3595 9515,3612 9500,3628 9485,3644 9471,3661 9459,3678 9447,3695 9436,3712 9426,3729 9416,3747 9407,3766 9398,3786 9390,3806 9382,3828 9375,3850 9368,3874 9361,3898 9355,3923 9349,3949 9344,3974 9340,4000 9336,4026 9332,4051 9329,4076 9327,4101 9325,4125 9323,4149 9322,4172 9321,4195 9321,4217 9320,4240 9320,4263 9321,4287 9322,4311 9323,4335 9325,4360 9328,4385 9331,4410 9335,4435 9339,4460 9344,4484 9350,4508 9356,4531 9363,4553 9371,4574 9379,4594 9388,4614 9397,4633 9407,4651 9418,4669 9430,4687 9442,4704 9456,4722 9471,4740 9487,4757 9504,4775 9522,4793 9541,4810 9560,4827 9580,4844 9601,4861 9621,4877 9642,4892 9663,4907 9683,4921 9704,4934 9724,4947 9744,4959 9764,4971 9784,4983 9804,4995 9825,5006 9847,5018 9869,5029 9892,5041 9915,5051 9939,5062 9963,5072 9988,5082 10012,5091 10037,5099 10061,5106 10085,5112 10108,5118 10131,5122 10153,5125 10175,5128 10196,5130 10217,5130 10238,5130 10259,5129 10280,5126 10302,5123 10325,5119 10348,5114 10371,5108 10394,5101 10418,5094 10442,5085 10466,5076 10490,5066 10513,5056 10536,5045 10558,5034 10580,5023 10601,5012 10621,5000 10642,4989 10661,4977 10681,4965 10701,4953 10721,4940 10741,4927 10761,4913 10782,4898 10803,4883 10823,4867 10844,4851 10864,4834 10883,4817 10902,4800 10920,4782 10937,4764 10953,4747 10968,4729 10982,4711 10995,4694 11006,4676 11017,4658 11027,4640 11036,4621 11044,4602 11052,4581 11059,4560 11066,4538 11072,4515 11077,4491 11082,4467 11087,4443 11090,4418 11093,4393 11096,4369 11098,4344 11099,4320 11100,4296 11101,4273 11102,4250 11102,4228 11102,4206 11101,4184 11101,4161 11100,4138 11099,4115 11098,4091 11096,4067 11094,4043 11091,4018 11088,3993 11084,3968 11080,3943 11075,3919 11070,3896 11064,3873 11058,3851 11051,3830 11043,3809 11035,3790 11027,3771 11017,3754 11017,3754 11007,3736 10996,3719 10985,3702 10972,3684 10958,3667 10943,3650 10927,3633 "
       style="stroke:#000000;stroke-width:7;stroke-linecap:butt;stroke-linejoin:bevel"
       id="polygon64" />
    <!-- Circle -->
    <circle
       cx="4800"
       cy="1200"
       r="75"
       style="stroke:#000000;stroke-width:7"
       id="circle66" />
    <!-- Line -->
    <polygon
       points="2991,4203 4799,5172 4791,7203 6595,6225 6600,9000 1200,9000 1200,-600 12000,-600 12000,9000 6600,9000 6600,6225 8391,7203 8391,7203 8397,5170 10191,4203 8400,3216 8391,1203 6585,2189 4791,1203 4803,3227 "
       style="fill:#ffffff;stroke:#000000;stroke-width:0;stroke-linecap:butt;stroke-linejoin:miter"
       id="polygon68" />
    <!-- Line -->
    <polygon
       points="6599,2167 4803,3218 4799,5167 6599,6217 8396,5161 8399,3217 8399,3217 "
       style="fill:#bfbfbf;stroke:#000000;stroke-width:0;stroke-linecap:butt;stroke-linejoin:miter"
       id="polygon70" />
    <!-- Line -->
    <polyline
       points="6608,4197 6606,4195 6601,4191 6593,4182 6580,4170 6563,4154 6542,4134 6517,4110 6490,4084 6461,4057 6431,4029 6402,4002 6373,3975 6345,3950 6319,3926 6295,3904 6271,3883 6249,3864 6229,3846 6209,3829 6190,3814 6171,3799 6153,3785 6135,3771 6115,3756 6095,3742 6075,3728 6054,3714 6033,3699 6012,3685 5990,3670 5968,3655 5946,3640 5923,3625 5901,3610 5878,3594 5856,3579 5834,3564 5813,3548 5792,3532 5772,3517 5753,3501 5734,3486 5716,3470 5698,3454 5680,3438 5664,3422 5649,3406 5633,3389 5617,3371 5600,3351 5583,3330 5565,3308 5547,3284 5527,3257 5506,3229 5484,3199 5462,3167 5439,3134 5416,3101 5393,3069 5372,3038 5353,3010 5337,2985 5323,2966 5314,2951 5307,2942 5304,2936 5302,2934 "
       style="stroke:#000000;stroke-width:7;stroke-linecap:butt;stroke-linejoin:bevel;stroke-dasharray:40, 40"
       id="polyline72" />
    <!-- Line -->
    <polyline
       points="6600,4200 4803,3223 "
       style="stroke:#000000;stroke-width:7;stroke-linecap:butt;stroke-linejoin:miter;stroke-dasharray:40, 40"
       id="polyline74" />
    <!-- Line -->
    <polyline
       points="6600,4200 6600,2175 "
       style="stroke:#000000;stroke-width:7;stroke-linecap:butt;stroke-linejoin:miter;stroke-dasharray:40, 40"
       id="polyline76" />
    <!-- Line -->
    <polyline
       points="6600,4200 8400,3225 "
       style="stroke:#000000;stroke-width:7;stroke-linecap:butt;stroke-linejoin:miter;stroke-dasharray:40, 40"
       id="polyline78" />
    <!-- Line -->
    <polyline
       points="6600,4200 8396,5170 "
       style="stroke:#000000;stroke-width:7;stroke-linecap:butt;stroke-linejoin:miter;stroke-dasharray:40, 40"
       id="polyline80" />
    <!-- Line -->
    <polyline
       points="6600,4200 6600,6225 "
       style="stroke:#000000;stroke-width:7;stroke-linecap:butt;stroke-linejoin:miter;stroke-dasharray:40, 40"
       id="polyline82" />
    <!-- Line -->
    <polyline
       points="6600,4200 4800,5175 "
       style="stroke:#000000;stroke-width:7;stroke-linecap:butt;stroke-linejoin:miter;stroke-dasharray:40, 40"
       id="polyline84" />
    <!-- Line -->
    <polyline
       points="6592,4197 6594,4199 6599,4203 6607,4212 6620,4224 6637,4240 6658,4260 6683,4284 6710,4310 6739,4337 6769,4365 6798,4392 6827,4419 6855,4444 6881,4468 6905,4490 6929,4511 6951,4530 6971,4548 6991,4565 7010,4580 7029,4595 7047,4609 7065,4623 7085,4638 7105,4652 7125,4666 7146,4680 7167,4695 7188,4709 7210,4724 7232,4739 7254,4754 7277,4769 7299,4784 7322,4800 7344,4815 7365,4831 7386,4846 7407,4862 7427,4878 7447,4893 7465,4909 7484,4925 7501,4941 7519,4958 7534,4973 7550,4990 7566,5007 7581,5025 7598,5045 7615,5066 7632,5089 7651,5113 7670,5140 7691,5169 7712,5199 7734,5231 7757,5264 7779,5298 7801,5331 7822,5362 7841,5390 7857,5415 7870,5435 7880,5449 7886,5459 7889,5465 7891,5467 "
       style="stroke:#000000;stroke-width:7;stroke-linecap:butt;stroke-linejoin:bevel;stroke-dasharray:40, 40"
       id="polyline86" />
    <!-- Line -->
    <polyline
       points="6592,4197 6593,4200 6594,4206 6597,4217 6601,4234 6607,4257 6614,4286 6622,4319 6630,4356 6640,4394 6649,4434 6658,4473 6667,4512 6675,4548 6683,4583 6690,4615 6696,4646 6702,4674 6707,4701 6711,4727 6715,4751 6719,4775 6722,4797 6725,4820 6727,4844 6730,4869 6732,4893 6734,4918 6736,4944 6738,4970 6740,4996 6742,5022 6743,5049 6745,5076 6747,5103 6750,5130 6752,5157 6755,5184 6757,5210 6761,5235 6764,5261 6768,5285 6772,5309 6777,5333 6782,5357 6788,5380 6793,5401 6800,5423 6807,5445 6815,5468 6823,5492 6833,5517 6844,5544 6856,5572 6870,5602 6884,5634 6900,5668 6916,5703 6934,5739 6952,5776 6969,5811 6986,5845 7001,5875 7014,5902 7025,5923 7032,5938 7038,5949 7041,5954 7042,5957 "
       style="stroke:#000000;stroke-width:7;stroke-linecap:butt;stroke-linejoin:bevel;stroke-dasharray:40, 40"
       id="polyline88" />
    <!-- Line -->
    <polyline
       points="6608,4197 6607,4200 6606,4206 6603,4217 6599,4234 6593,4257 6586,4286 6578,4319 6570,4356 6560,4394 6551,4434 6542,4473 6533,4512 6525,4548 6517,4583 6510,4615 6504,4646 6498,4674 6493,4701 6489,4727 6485,4751 6481,4775 6478,4797 6475,4820 6473,4844 6470,4869 6468,4893 6466,4918 6464,4944 6462,4970 6460,4996 6458,5022 6457,5049 6455,5076 6453,5103 6450,5130 6448,5157 6445,5184 6443,5210 6439,5235 6436,5261 6432,5285 6428,5309 6423,5333 6418,5357 6412,5380 6407,5401 6400,5423 6393,5445 6385,5468 6377,5492 6367,5517 6356,5544 6344,5572 6330,5602 6316,5634 6300,5668 6284,5703 6266,5739 6248,5776 6231,5811 6214,5845 6199,5875 6186,5902 6175,5923 6168,5938 6162,5949 6159,5954 6158,5957 "
       style="stroke:#000000;stroke-width:7;stroke-linecap:butt;stroke-linejoin:bevel;stroke-dasharray:40, 40"
       id="polyline90" />
    <!-- Line -->
    <polyline
       points="6608,4197 6606,4199 6601,4203 6593,4212 6580,4224 6563,4240 6542,4260 6517,4284 6490,4310 6461,4337 6431,4365 6402,4392 6373,4419 6345,4444 6319,4468 6295,4490 6271,4511 6249,4530 6229,4548 6209,4565 6190,4580 6171,4595 6153,4609 6135,4623 6115,4638 6095,4652 6075,4666 6054,4680 6033,4695 6012,4709 5990,4724 5968,4739 5946,4754 5923,4769 5901,4784 5878,4800 5856,4815 5835,4831 5814,4846 5793,4862 5773,4878 5753,4893 5735,4909 5716,4925 5699,4941 5681,4958 5666,4973 5650,4990 5634,5007 5619,5025 5602,5045 5585,5066 5568,5089 5549,5113 5530,5140 5509,5169 5488,5199 5466,5231 5443,5264 5421,5298 5399,5331 5378,5362 5359,5390 5343,5415 5330,5435 5320,5449 5314,5459 5311,5465 5309,5467 "
       style="stroke:#000000;stroke-width:7;stroke-linecap:butt;stroke-linejoin:bevel;stroke-dasharray:40, 40"
       id="polyline92" />
    <!-- Line -->
    <polyline
       points="6608,4197 6605,4198 6599,4199 6588,4202 6571,4206 6548,4211 6520,4218 6487,4226 6451,4235 6413,4244 6374,4254 6335,4264 6298,4274 6262,4283 6227,4292 6195,4300 6165,4309 6137,4317 6111,4324 6085,4332 6062,4339 6038,4347 6016,4354 5994,4362 5972,4370 5950,4378 5928,4386 5905,4395 5883,4404 5860,4413 5836,4422 5812,4431 5788,4441 5764,4451 5739,4460 5715,4470 5690,4479 5665,4489 5641,4498 5617,4507 5593,4515 5569,4523 5546,4531 5523,4538 5501,4544 5478,4551 5456,4557 5434,4562 5411,4567 5389,4572 5365,4576 5341,4580 5315,4584 5288,4587 5260,4590 5229,4593 5196,4596 5162,4599 5125,4601 5086,4604 5047,4606 5007,4608 4968,4610 4931,4612 4898,4613 4869,4615 4846,4616 4829,4616 4817,4617 4811,4617 4808,4617 "
       style="stroke:#000000;stroke-width:7;stroke-linecap:butt;stroke-linejoin:bevel;stroke-dasharray:40, 40"
       id="polyline94" />
    <!-- Line -->
    <polyline
       points="6608,4197 6605,4196 6599,4195 6588,4192 6571,4188 6548,4183 6520,4176 6487,4168 6451,4159 6413,4150 6374,4140 6335,4130 6298,4120 6262,4111 6227,4102 6195,4094 6165,4085 6137,4077 6111,4070 6085,4062 6062,4055 6038,4047 6016,4040 5994,4032 5972,4024 5950,4016 5928,4008 5905,3999 5883,3990 5860,3981 5836,3972 5812,3963 5788,3953 5764,3943 5739,3934 5715,3924 5690,3915 5665,3905 5641,3896 5617,3887 5593,3879 5569,3871 5546,3863 5523,3856 5501,3850 5478,3843 5456,3837 5434,3832 5411,3827 5389,3822 5365,3818 5341,3814 5315,3810 5288,3807 5260,3804 5229,3801 5196,3798 5162,3795 5125,3793 5086,3790 5047,3788 5007,3786 4968,3784 4931,3782 4898,3781 4869,3779 4846,3778 4829,3778 4817,3777 4811,3777 4808,3777 "
       style="stroke:#000000;stroke-width:7;stroke-linecap:butt;stroke-linejoin:bevel;stroke-dasharray:40, 40"
       id="polyline96" />
    <!-- Line -->
    <polyline
       points="6608,4197 6607,4194 6606,4188 6603,4177 6599,4160 6593,4137 6586,4108 6578,4075 6570,4038 6560,4000 6551,3960 6542,3921 6533,3882 6525,3846 6517,3811 6510,3779 6504,3748 6498,3720 6493,3693 6489,3667 6485,3643 6481,3619 6478,3597 6475,3574 6473,3550 6470,3525 6468,3501 6466,3476 6464,3450 6462,3424 6460,3398 6458,3372 6456,3345 6455,3318 6452,3291 6450,3264 6448,3237 6445,3210 6442,3184 6439,3159 6435,3133 6431,3109 6427,3085 6422,3061 6417,3037 6411,3014 6405,2993 6399,2971 6391,2949 6383,2926 6374,2902 6364,2877 6353,2850 6341,2822 6327,2792 6312,2760 6296,2726 6279,2691 6261,2655 6243,2618 6225,2583 6208,2549 6192,2519 6179,2492 6168,2471 6160,2456 6154,2445 6151,2440 6150,2437 "
       style="stroke:#000000;stroke-width:7;stroke-linecap:butt;stroke-linejoin:bevel;stroke-dasharray:40, 40"
       id="polyline98" />
    <!-- Line -->
    <polyline
       points="6592,4197 6593,4194 6594,4188 6597,4177 6601,4160 6607,4137 6614,4108 6622,4075 6630,4038 6640,4000 6649,3960 6658,3921 6667,3882 6675,3846 6683,3811 6690,3779 6696,3748 6702,3720 6707,3693 6711,3667 6715,3643 6719,3619 6722,3597 6725,3574 6727,3550 6730,3525 6732,3501 6734,3476 6736,3450 6738,3424 6740,3398 6742,3372 6743,3345 6745,3318 6747,3291 6750,3264 6752,3237 6755,3210 6757,3184 6761,3159 6764,3133 6768,3109 6772,3085 6777,3061 6782,3037 6788,3014 6793,2993 6800,2971 6807,2949 6815,2926 6823,2902 6833,2877 6844,2850 6856,2822 6870,2792 6884,2760 6900,2726 6916,2691 6934,2655 6952,2618 6969,2583 6986,2549 7001,2519 7014,2492 7025,2471 7032,2456 7038,2445 7041,2440 7042,2437 "
       style="stroke:#000000;stroke-width:7;stroke-linecap:butt;stroke-linejoin:bevel;stroke-dasharray:40, 40"
       id="polyline100" />
    <!-- Line -->
    <polyline
       points="6592,4197 6594,4195 6599,4191 6607,4182 6620,4170 6637,4154 6658,4134 6683,4110 6710,4084 6739,4057 6769,4029 6798,4002 6827,3975 6855,3950 6881,3926 6905,3904 6929,3883 6951,3864 6971,3846 6991,3829 7010,3814 7029,3799 7047,3785 7065,3771 7085,3756 7105,3742 7125,3728 7146,3714 7167,3699 7188,3685 7210,3670 7232,3655 7254,3640 7277,3625 7299,3610 7322,3594 7344,3579 7365,3563 7386,3548 7407,3532 7427,3516 7447,3501 7465,3485 7484,3469 7501,3453 7519,3436 7534,3421 7550,3404 7566,3387 7581,3369 7598,3349 7615,3328 7632,3305 7651,3281 7670,3254 7691,3225 7712,3195 7734,3163 7757,3130 7779,3096 7801,3063 7822,3032 7841,3004 7857,2979 7870,2959 7880,2945 7886,2935 7889,2929 7891,2927 "
       style="stroke:#000000;stroke-width:7;stroke-linecap:butt;stroke-linejoin:bevel;stroke-dasharray:40, 40"
       id="polyline102" />
    <!-- Line -->
    <polyline
       points="6592,4197 6595,4196 6601,4195 6612,4192 6629,4188 6652,4183 6680,4176 6713,4168 6749,4159 6787,4150 6826,4140 6865,4130 6902,4120 6938,4111 6973,4102 7005,4094 7035,4085 7063,4077 7089,4070 7115,4062 7138,4055 7162,4047 7184,4040 7206,4032 7228,4024 7250,4016 7272,4008 7295,3999 7317,3990 7340,3981 7364,3972 7388,3963 7412,3953 7436,3943 7461,3934 7485,3924 7510,3915 7535,3905 7559,3896 7583,3887 7607,3879 7631,3871 7654,3863 7677,3856 7699,3850 7722,3843 7744,3837 7766,3832 7789,3827 7811,3822 7835,3818 7859,3814 7885,3810 7912,3807 7940,3804 7971,3801 8004,3798 8038,3795 8075,3793 8114,3790 8153,3788 8193,3786 8232,3784 8269,3782 8302,3781 8331,3779 8354,3778 8371,3778 8383,3777 8389,3777 8392,3777 "
       style="stroke:#000000;stroke-width:7;stroke-linecap:butt;stroke-linejoin:bevel;stroke-dasharray:40, 40"
       id="polyline104" />
    <!-- Line -->
    <polyline
       points="6592,4197 6595,4198 6601,4199 6612,4202 6629,4206 6652,4211 6680,4218 6713,4226 6749,4235 6787,4244 6826,4254 6865,4264 6902,4274 6938,4283 6973,4292 7005,4300 7035,4309 7063,4317 7089,4324 7115,4332 7138,4339 7162,4347 7184,4354 7206,4362 7228,4370 7250,4378 7272,4386 7295,4395 7317,4404 7340,4413 7364,4422 7388,4431 7412,4441 7436,4451 7461,4460 7485,4470 7510,4479 7535,4489 7559,4498 7583,4507 7607,4515 7631,4523 7654,4531 7677,4538 7699,4544 7722,4551 7744,4557 7766,4562 7789,4567 7811,4572 7835,4576 7859,4580 7885,4584 7912,4587 7940,4590 7971,4593 8004,4596 8038,4599 8075,4601 8114,4604 8153,4606 8193,4608 8232,4610 8269,4612 8302,4613 8331,4615 8354,4616 8371,4616 8383,4617 8389,4617 8392,4617 "
       style="stroke:#000000;stroke-width:7;stroke-linecap:butt;stroke-linejoin:bevel;stroke-dasharray:40, 40"
       id="polyline106" />
    <!-- Line -->
    <polyline
       points="8394,7205 8392,7203 8387,7199 8379,7190 8366,7178 8349,7162 8328,7142 8303,7118 8276,7092 8247,7065 8217,7037 8188,7010 8159,6983 8131,6958 8105,6934 8081,6912 8057,6891 8035,6872 8015,6854 7995,6837 7976,6822 7957,6807 7939,6793 7921,6779 7901,6764 7881,6750 7861,6736 7840,6722 7819,6707 7798,6693 7776,6678 7754,6663 7731,6649 7708,6634 7686,6618 7663,6603 7641,6588 7618,6573 7597,6557 7576,6542 7555,6527 7535,6512 7515,6497 7496,6481 7478,6466 7459,6450 7443,6435 7426,6419 7409,6403 7392,6385 7374,6366 7356,6346 7337,6325 7316,6301 7295,6276 7272,6249 7248,6220 7223,6190 7198,6158 7173,6127 7148,6096 7125,6066 7103,6039 7085,6016 7071,5998 7060,5984 7053,5974 7049,5969 7047,5967 "
       style="stroke:#000000;stroke-width:7;stroke-linecap:butt;stroke-linejoin:bevel;stroke-dasharray:40, 40"
       id="polyline108" />
    <!-- Line -->
    <polyline
       points="8397,7207 8396,7204 8395,7198 8392,7187 8388,7170 8382,7147 8375,7118 8367,7085 8359,7048 8349,7010 8340,6970 8331,6931 8322,6892 8314,6856 8306,6821 8299,6789 8293,6758 8287,6730 8282,6703 8278,6677 8274,6653 8270,6629 8267,6607 8264,6584 8262,6560 8259,6535 8257,6511 8255,6486 8253,6460 8251,6435 8249,6408 8247,6382 8245,6355 8243,6328 8240,6301 8238,6274 8235,6248 8232,6221 8228,6195 8225,6170 8220,6145 8216,6121 8211,6097 8205,6073 8199,6050 8192,6028 8185,6006 8178,5985 8169,5964 8160,5941 8150,5918 8138,5893 8125,5868 8111,5840 8095,5811 8078,5780 8060,5747 8040,5713 8019,5678 7999,5642 7978,5608 7958,5575 7941,5546 7925,5521 7913,5500 7903,5485 7897,5475 7894,5470 7892,5467 "
       style="stroke:#000000;stroke-width:7;stroke-linecap:butt;stroke-linejoin:bevel;stroke-dasharray:40, 40"
       id="polyline110" />
    <!-- Line -->
    <polyline
       points="8398,1174 8397,1177 8396,1183 8393,1194 8389,1211 8383,1234 8376,1263 8368,1296 8360,1333 8350,1371 8341,1411 8332,1450 8323,1489 8315,1525 8307,1560 8300,1592 8294,1623 8288,1651 8283,1678 8279,1704 8275,1728 8271,1752 8268,1774 8265,1797 8263,1821 8260,1846 8258,1870 8256,1895 8254,1921 8252,1947 8250,1973 8248,1999 8246,2026 8244,2053 8241,2080 8239,2107 8236,2134 8233,2160 8229,2187 8225,2212 8221,2237 8216,2262 8211,2286 8205,2310 8199,2333 8192,2356 8185,2378 8178,2399 8169,2421 8160,2444 8149,2468 8137,2493 8124,2519 8110,2547 8094,2577 8076,2609 8057,2643 8037,2678 8017,2714 7995,2750 7974,2785 7955,2819 7936,2849 7921,2875 7908,2896 7898,2911 7892,2922 7889,2927 7887,2930 "
       style="stroke:#000000;stroke-width:7;stroke-linecap:butt;stroke-linejoin:bevel;stroke-dasharray:40, 40"
       id="polyline112" />
    <!-- Line -->
    <polyline
       points="8395,1176 8393,1178 8388,1182 8380,1191 8367,1203 8350,1219 8329,1239 8304,1263 8277,1289 8248,1316 8218,1344 8189,1371 8160,1398 8132,1423 8106,1447 8082,1469 8058,1490 8036,1509 8016,1527 7996,1544 7977,1559 7958,1574 7940,1588 7922,1602 7902,1617 7882,1631 7862,1645 7841,1659 7820,1674 7799,1688 7777,1703 7755,1718 7732,1733 7709,1748 7687,1763 7664,1778 7641,1794 7619,1809 7598,1825 7576,1840 7556,1856 7535,1871 7516,1887 7497,1902 7478,1918 7460,1935 7443,1950 7426,1966 7409,1983 7392,2001 7374,2020 7356,2041 7336,2063 7316,2087 7294,2113 7271,2141 7247,2171 7222,2202 7196,2235 7171,2268 7146,2300 7122,2330 7101,2358 7083,2382 7068,2401 7057,2416 7050,2425 7046,2431 7044,2433 "
       style="stroke:#000000;stroke-width:7;stroke-linecap:butt;stroke-linejoin:bevel;stroke-dasharray:40, 40"
       id="polyline114" />
    <!-- Line -->
    <polyline
       points="4806,1195 4808,1197 4813,1201 4821,1210 4834,1222 4851,1238 4872,1258 4897,1282 4924,1308 4953,1335 4983,1363 5012,1390 5041,1417 5069,1442 5095,1466 5119,1488 5143,1509 5165,1528 5185,1546 5205,1563 5224,1578 5243,1593 5261,1607 5279,1621 5299,1636 5319,1650 5339,1664 5360,1678 5381,1693 5402,1707 5424,1722 5446,1737 5469,1751 5491,1766 5514,1782 5537,1797 5559,1812 5581,1827 5603,1843 5624,1858 5645,1873 5665,1888 5684,1904 5703,1919 5722,1935 5740,1951 5756,1966 5773,1981 5790,1998 5807,2015 5824,2034 5842,2054 5861,2076 5882,2099 5903,2125 5925,2152 5949,2181 5974,2211 5999,2243 6024,2275 6048,2306 6071,2336 6092,2362 6110,2386 6125,2404 6135,2418 6142,2428 6146,2433 6148,2435 "
       style="stroke:#000000;stroke-width:7;stroke-linecap:butt;stroke-linejoin:bevel;stroke-dasharray:40, 40"
       id="polyline116" />
    <!-- Line -->
    <polyline
       points="4803,1193 4804,1196 4805,1202 4808,1213 4812,1230 4818,1253 4825,1282 4833,1315 4841,1352 4851,1390 4860,1430 4869,1469 4878,1508 4886,1544 4894,1579 4901,1611 4907,1642 4913,1670 4918,1697 4922,1723 4926,1747 4930,1771 4933,1793 4936,1816 4938,1840 4941,1865 4943,1889 4945,1914 4947,1940 4949,1965 4951,1992 4953,2018 4955,2045 4957,2072 4959,2099 4962,2125 4965,2152 4968,2178 4971,2204 4975,2230 4979,2254 4983,2279 4988,2302 4993,2326 4999,2349 5006,2372 5012,2392 5020,2414 5028,2435 5037,2457 5047,2480 5058,2505 5070,2530 5084,2558 5099,2587 5116,2617 5134,2650 5153,2684 5173,2718 5193,2753 5213,2787 5232,2820 5249,2849 5264,2874 5276,2894 5285,2909 5291,2919 5294,2925 5296,2927 "
       style="stroke:#000000;stroke-width:7;stroke-linecap:butt;stroke-linejoin:bevel;stroke-dasharray:40, 40"
       id="polyline118" />
    <!-- Line -->
    <polyline
       points="10203,4194 10200,4195 10194,4196 10183,4199 10166,4203 10143,4208 10115,4215 10082,4223 10046,4232 10008,4241 9969,4251 9930,4261 9893,4271 9857,4280 9822,4289 9790,4297 9760,4306 9732,4314 9706,4321 9680,4329 9657,4336 9633,4344 9611,4351 9589,4359 9567,4367 9545,4375 9523,4383 9500,4392 9478,4401 9455,4410 9431,4419 9407,4428 9383,4438 9359,4448 9334,4457 9310,4467 9285,4476 9260,4486 9236,4495 9212,4504 9188,4512 9164,4520 9141,4528 9118,4535 9096,4541 9073,4548 9051,4554 9029,4559 9006,4564 8984,4569 8960,4573 8936,4577 8910,4581 8883,4584 8855,4587 8824,4590 8791,4593 8757,4596 8720,4598 8681,4601 8642,4603 8602,4605 8563,4607 8526,4609 8493,4610 8464,4612 8441,4613 8424,4613 8412,4614 8406,4614 8403,4614 "
       style="stroke:#000000;stroke-width:7;stroke-linecap:butt;stroke-linejoin:bevel;stroke-dasharray:40, 40"
       id="polyline120" />
    <!-- Line -->
    <polyline
       points="2997,4206 3000,4205 3006,4204 3017,4201 3034,4197 3057,4192 3085,4185 3118,4177 3154,4168 3192,4159 3231,4149 3270,4139 3307,4129 3343,4120 3378,4111 3410,4103 3440,4094 3468,4086 3494,4079 3520,4071 3543,4064 3567,4056 3589,4049 3611,4041 3633,4033 3655,4025 3677,4017 3700,4008 3722,3999 3745,3990 3769,3981 3793,3972 3817,3962 3841,3952 3866,3943 3890,3933 3915,3923 3940,3914 3964,3905 3988,3896 4012,3887 4036,3879 4059,3872 4082,3864 4105,3857 4127,3851 4149,3845 4171,3840 4194,3834 4217,3829 4240,3825 4264,3821 4290,3817 4317,3813 4346,3810 4376,3806 4409,3803 4444,3800 4481,3797 4519,3794 4559,3791 4599,3788 4638,3786 4675,3784 4708,3782 4737,3780 4760,3779 4777,3778 4789,3777 4795,3777 4798,3777 "
       style="stroke:#000000;stroke-width:7;stroke-linecap:butt;stroke-linejoin:bevel;stroke-dasharray:40, 40"
       id="polyline122" />
    <!-- Line -->
    <polyline
       points="3003,4199 3006,4200 3012,4201 3023,4204 3040,4208 3063,4213 3091,4220 3124,4228 3160,4237 3198,4246 3237,4256 3276,4266 3313,4276 3349,4285 3384,4294 3416,4302 3446,4311 3474,4319 3500,4326 3526,4334 3549,4341 3573,4349 3595,4356 3617,4364 3639,4372 3661,4380 3683,4388 3706,4397 3728,4406 3751,4415 3775,4424 3799,4433 3823,4443 3847,4453 3872,4462 3896,4472 3921,4481 3946,4491 3970,4500 3994,4509 4018,4517 4042,4525 4065,4533 4088,4540 4110,4546 4133,4553 4155,4559 4177,4564 4200,4569 4222,4574 4246,4578 4270,4582 4296,4586 4323,4589 4351,4592 4382,4595 4415,4598 4449,4601 4486,4603 4525,4606 4564,4608 4604,4610 4643,4612 4680,4614 4713,4615 4742,4617 4765,4618 4782,4618 4794,4619 4800,4619 4803,4619 "
       style="stroke:#000000;stroke-width:7;stroke-linecap:butt;stroke-linejoin:bevel;stroke-dasharray:40, 40"
       id="polyline124" />
    <!-- Line -->
    <polyline
       points="10197,4201 10194,4200 10188,4199 10177,4196 10160,4192 10137,4187 10109,4180 10076,4172 10040,4163 10002,4154 9963,4144 9924,4134 9887,4124 9851,4115 9816,4106 9784,4098 9754,4089 9726,4081 9700,4074 9674,4066 9651,4059 9627,4051 9605,4044 9583,4036 9561,4028 9539,4020 9517,4012 9494,4003 9472,3994 9449,3985 9425,3976 9401,3967 9377,3957 9353,3947 9328,3938 9304,3928 9279,3919 9254,3909 9230,3900 9206,3891 9182,3883 9158,3875 9135,3867 9112,3860 9090,3854 9067,3847 9045,3841 9023,3836 9000,3831 8978,3826 8954,3822 8930,3818 8904,3814 8877,3811 8849,3808 8818,3805 8785,3802 8751,3799 8714,3797 8675,3794 8636,3792 8596,3790 8557,3788 8520,3786 8487,3785 8458,3783 8435,3782 8418,3782 8406,3781 8400,3781 8397,3781 "
       style="stroke:#000000;stroke-width:7;stroke-linecap:butt;stroke-linejoin:bevel;stroke-dasharray:40, 40"
       id="polyline126" />
    <!-- Line -->
    <polyline
       points="4807,7199 4808,7196 4809,7190 4812,7179 4816,7162 4822,7139 4829,7110 4837,7077 4845,7040 4855,7002 4864,6962 4873,6923 4882,6884 4890,6848 4898,6813 4905,6781 4911,6750 4917,6722 4922,6695 4926,6669 4930,6645 4934,6621 4937,6599 4940,6576 4942,6552 4945,6527 4947,6503 4949,6478 4951,6452 4953,6427 4955,6400 4957,6374 4959,6347 4961,6320 4963,6293 4966,6267 4969,6240 4972,6214 4975,6188 4979,6162 4983,6138 4987,6113 4992,6090 4997,6066 5003,6043 5010,6021 5016,6000 5024,5978 5032,5957 5041,5935 5051,5912 5062,5887 5074,5862 5088,5834 5103,5805 5120,5775 5138,5742 5157,5708 5177,5674 5197,5639 5217,5605 5236,5572 5253,5543 5268,5518 5280,5498 5289,5483 5295,5473 5298,5467 5300,5465 "
       style="stroke:#000000;stroke-width:7;stroke-linecap:butt;stroke-linejoin:bevel;stroke-dasharray:40, 40"
       id="polyline128" />
    <!-- Line -->
    <polyline
       points="4810,7197 4812,7195 4817,7191 4825,7182 4838,7170 4855,7154 4876,7134 4901,7110 4928,7084 4957,7057 4987,7029 5016,7002 5045,6975 5073,6950 5099,6926 5123,6904 5147,6883 5169,6864 5189,6846 5209,6829 5228,6814 5247,6799 5265,6785 5283,6771 5303,6756 5323,6742 5343,6728 5364,6714 5385,6699 5406,6685 5428,6670 5450,6655 5473,6641 5495,6626 5518,6610 5541,6595 5563,6580 5585,6565 5607,6549 5628,6534 5649,6519 5669,6504 5688,6488 5707,6473 5726,6457 5744,6441 5760,6426 5777,6411 5794,6394 5811,6377 5828,6358 5846,6338 5865,6316 5886,6293 5907,6267 5929,6240 5953,6211 5978,6181 6003,6149 6028,6117 6052,6086 6075,6056 6096,6030 6114,6006 6129,5988 6139,5974 6146,5964 6150,5959 6152,5957 "
       style="stroke:#000000;stroke-width:7;stroke-linecap:butt;stroke-linejoin:bevel;stroke-dasharray:40, 40"
       id="polyline130" />
    <!-- Line -->
    <polygon
       points="8398,5171 10200,4200 8394,3216 8400,1200 6594,2186 6594,2186 4800,1200 4804,3226 3000,4200 4804,5176 4800,7200 6604,6222 8400,7200 "
       style="stroke:#000000;stroke-width:7;stroke-linecap:butt;stroke-linejoin:miter"
       id="polygon132" />
    <!-- Line -->
    <polygon
       points="6600,2175 4804,3226 4800,5175 6600,6225 8397,5169 8400,3225 8400,3225 "
       style="stroke:#000000;stroke-width:7;stroke-linecap:butt;stroke-linejoin:miter"
       id="polygon134" />
    <!-- Line -->
    <polyline
       points="9358,3594 9358,3591 9358,3585 9358,3574 9357,3557 9357,3535 9356,3508 9356,3478 9355,3445 9354,3411 9353,3377 9352,3344 9350,3313 9349,3284 9347,3256 9345,3230 9343,3206 9340,3184 9338,3162 9335,3141 9332,3121 9328,3101 9324,3081 9320,3061 9315,3040 9310,3020 9304,2999 9297,2978 9290,2956 9282,2934 9274,2912 9265,2890 9255,2868 9244,2847 9233,2825 9222,2804 9210,2784 9197,2764 9184,2745 9171,2727 9157,2709 9143,2692 9128,2675 9113,2659 9098,2644 9083,2630 9067,2616 9049,2601 9030,2586 9009,2571 8987,2555 8963,2538 8936,2521 8908,2502 8877,2483 8845,2463 8812,2443 8778,2423 8745,2403 8714,2385 8685,2368 8661,2354 8641,2343 8621,2331 "
       style="stroke:#000000;stroke-width:7;stroke-linecap:butt;stroke-linejoin:bevel"
       id="polyline136" />
    <!-- Arrowhead on XXXpoint 8641 2343 - 8595 2316-->
    <polyline
       points="8846 2393 8609 2324 8785 2497 "
       style="stroke:#000000;stroke-width:7;stroke-miterlimit:8"
       id="polyline138" />
    <!-- Circle -->
    <circle
       cx="6600"
       cy="4200"
       r="605"
       style="stroke:#000000;stroke-width:7"
       id="circle140" />
    <!-- Text -->
    <text
       xml:space="preserve"
       x="10269.297"
       y="2824.1482"
       font-style="normal"
       font-weight="normal"
       font-size="288"
       id="text142"
       style="font-style:normal;font-weight:normal;font-size:288px;font-family:Times;text-anchor:end;fill:#000000" />
    <!-- Text -->
    <text
       xml:space="preserve"
       x="8572.9141"
       y="2208.6008"
       font-style="normal"
       font-weight="normal"
       font-size="288"
       id="text144"
       style="font-style:normal;font-weight:normal;font-size:288px;font-family:Times;text-anchor:start;fill:#000000">$\eta$</text>
    <!-- Line -->
    <polyline
       points="8678,3117 9674,2594 "
       style="stroke:#000000;stroke-width:7;stroke-linecap:butt;stroke-linejoin:miter"
       id="polyline146" />
    <!-- Arrowhead on XXXpoint 8678 3117 - 9702 2580-->
    <polyline
       points="9502 2752 9687 2588 9446 2646 "
       style="stroke:#000000;stroke-width:7;stroke-miterlimit:8"
       id="polyline148" />
    <!-- Line -->
    <polyline
       points="8100,4200 8100,4197 8100,4191 8099,4179 8099,4162 8098,4138 8097,4107 8095,4071 8093,4031 8090,3988 8088,3943 8084,3897 8081,3851 8077,3807 8072,3765 8067,3725 8062,3687 8056,3652 8050,3620 8043,3589 8036,3560 8028,3534 8019,3508 8009,3484 7999,3460 7988,3438 7976,3417 7964,3396 7951,3376 7937,3356 7921,3336 7905,3316 7888,3296 7870,3276 7851,3256 7831,3236 7811,3216 7789,3196 7766,3177 7743,3157 7720,3138 7696,3118 7671,3099 7647,3081 7622,3063 7597,3045 7572,3027 7547,3010 7523,2993 7498,2977 7473,2960 7449,2944 7424,2928 7400,2913 7375,2896 7350,2880 7325,2864 7299,2848 7273,2831 7245,2814 7218,2798 7189,2781 7160,2764 7131,2748 7101,2731 7071,2715 7040,2700 7009,2685 6978,2671 6947,2657 6916,2645 6886,2633 6855,2622 6825,2612 6796,2604 6766,2596 6738,2590 6709,2584 6682,2580 6654,2577 6627,2576 6600,2575 6573,2576 6546,2577 6518,2580 6491,2584 6462,2590 6434,2596 6404,2603 6375,2612 6345,2622 6314,2632 6284,2644 6253,2656 6222,2669 6191,2683 6160,2698 6129,2713 6099,2728 6069,2744 6040,2760 6011,2776 5982,2792 5955,2808 5927,2824 5901,2839 5875,2855 5850,2870 5825,2885 5800,2900 5774,2916 5747,2932 5721,2947 5695,2963 5668,2979 5641,2996 5614,3013 5588,3030 5561,3047 5534,3065 5508,3084 5482,3102 5457,3121 5432,3140 5408,3160 5385,3180 5362,3200 5341,3220 5321,3240 5302,3260 5285,3281 5268,3302 5253,3322 5238,3344 5225,3365 5213,3388 5202,3409 5192,3431 5182,3453 5174,3477 5166,3501 5158,3527 5151,3553 5144,3581 5138,3609 5133,3638 5128,3668 5123,3699 5119,3730 5116,3762 5112,3794 5110,3827 5108,3859 5106,3892 5104,3924 5103,3956 5102,3988 5101,4019 5101,4050 5100,4081 5100,4111 5100,4141 5100,4171 5100,4200 5100,4229 5100,4259 5100,4289 5100,4319 5101,4350 5101,4381 5102,4412 5103,4444 5105,4476 5106,4508 5108,4541 5111,4573 5114,4606 5117,4638 5121,4670 5126,4701 5131,4732 5136,4762 5143,4791 5149,4819 5157,4847 5164,4873 5173,4899 5182,4923 5192,4947 5202,4969 5213,4991 5225,5013 5238,5033 5251,5053 5266,5073 5282,5093 5298,5112 5316,5131 5335,5150 5354,5169 5375,5188 5397,5206 5420,5225 5443,5243 5467,5261 5492,5279 5518,5296 5543,5314 5569,5331 5596,5348 5622,5364 5648,5380 5674,5396 5700,5411 5725,5426 5751,5441 5776,5456 5801,5471 5825,5485 5850,5500 5873,5514 5896,5528 5919,5542 5943,5556 5967,5571 5992,5585 6017,5600 6043,5614 6070,5629 6097,5643 6125,5657 6153,5670 6183,5684 6212,5696 6242,5708 6273,5719 6304,5730 6335,5739 6367,5747 6398,5755 6430,5761 6462,5766 6494,5770 6527,5773 6559,5774 6592,5775 6624,5774 6657,5771 6691,5768 6725,5763 6754,5757 6783,5751 6814,5744 6844,5735 6876,5726 6908,5716 6941,5705 6974,5692 7009,5679 7043,5664 7079,5649 7114,5633 7150,5616 7187,5597 7223,5578 7260,5559 7296,5538 7333,5517 7369,5495 7404,5473 7439,5451 7474,5428 7507,5404 7540,5381 7572,5357 7603,5333 7633,5310 7662,5286 7689,5262 7716,5239 7741,5215 7765,5192 7788,5169 7810,5146 7830,5123 7850,5100 7872,5072 7893,5045 7912,5017 7930,4989 7946,4959 7961,4929 7975,4898 7988,4866 8001,4832 8012,4796 8022,4759 8032,4720 8041,4679 8049,4636 8057,4592 8064,4547 8070,4502 8076,4458 8081,4414 8086,4373 8089,4335 8093,4301 8095,4272 8097,4247 8098,4229 8099,4215 8100,4207 8100,4202 8100,4200 "
       style="stroke:#000000;stroke-width:7;stroke-linecap:butt;stroke-linejoin:bevel"
       id="polyline150" />
    <!-- Line -->
    <polyline
       points="6600,4200 "
       style="stroke:#000000;stroke-width:7;stroke-linecap:butt;stroke-linejoin:miter"
       id="polyline152" />
    <!-- Circle -->
    <circle
       cx="6600"
       cy="4200"
       r="300"
       style="stroke:#000000;stroke-width:7"
       id="circle154" />
    <!-- Line -->
    <polygon
       points="7299,3603 7282,3587 7263,3570 7244,3554 7225,3538 7205,3523 7185,3509 7166,3494 7146,3481 7127,3468 7107,3456 7088,3444 7069,3432 7049,3420 7029,3409 7008,3398 6987,3386 6965,3375 6943,3364 6920,3353 6896,3342 6871,3332 6847,3323 6822,3314 6797,3305 6773,3298 6749,3292 6725,3286 6701,3282 6678,3278 6656,3275 6634,3274 6612,3273 6592,3273 6571,3274 6551,3276 6530,3279 6508,3282 6486,3287 6464,3292 6441,3297 6418,3304 6395,3311 6372,3319 6349,3327 6326,3335 6304,3345 6282,3354 6261,3363 6240,3373 6220,3383 6201,3392 6182,3402 6164,3412 6146,3422 6127,3433 6108,3444 6089,3455 6069,3467 6050,3480 6031,3493 6012,3507 5993,3521 5974,3536 5956,3551 5938,3567 5921,3582 5904,3599 5889,3615 5874,3631 5860,3648 5848,3665 5836,3682 5825,3699 5815,3716 5805,3734 5796,3753 5787,3773 5779,3793 5771,3815 5764,3837 5757,3861 5750,3885 5744,3910 5738,3936 5733,3961 5729,3987 5725,4013 5721,4038 5718,4063 5716,4088 5714,4112 5712,4136 5711,4159 5710,4182 5710,4204 5709,4227 5709,4250 5710,4274 5711,4298 5712,4322 5714,4347 5717,4372 5720,4397 5724,4422 5728,4447 5733,4471 5739,4495 5745,4518 5752,4540 5760,4561 5768,4581 5777,4601 5786,4620 5796,4638 5807,4656 5819,4674 5831,4691 5845,4709 5860,4727 5876,4744 5893,4762 5911,4780 5930,4797 5949,4814 5969,4831 5990,4848 6010,4864 6031,4879 6052,4894 6072,4908 6093,4921 6113,4934 6133,4946 6153,4958 6173,4970 6193,4982 6214,4993 6236,5005 6258,5016 6281,5028 6304,5038 6328,5049 6352,5059 6377,5069 6401,5078 6426,5086 6450,5093 6474,5099 6497,5105 6520,5109 6542,5112 6564,5115 6585,5117 6606,5117 6627,5117 6648,5116 6669,5113 6691,5110 6714,5106 6737,5101 6760,5095 6783,5088 6807,5081 6831,5072 6855,5063 6879,5053 6902,5043 6925,5032 6947,5021 6969,5010 6990,4999 7010,4987 7031,4976 7050,4964 7070,4952 7090,4940 7110,4927 7130,4914 7150,4900 7171,4885 7192,4870 7212,4854 7233,4838 7253,4821 7272,4804 7291,4787 7309,4769 7326,4751 7342,4734 7357,4716 7371,4698 7384,4681 7395,4663 7406,4645 7416,4627 7425,4608 7433,4589 7441,4568 7448,4547 7455,4525 7461,4502 7466,4478 7471,4454 7476,4430 7479,4405 7482,4380 7485,4356 7487,4331 7488,4307 7489,4283 7490,4260 7491,4237 7491,4215 7491,4193 7490,4171 7490,4148 7489,4125 7488,4102 7487,4078 7485,4054 7483,4030 7480,4005 7477,3980 7473,3955 7469,3930 7464,3906 7459,3883 7453,3860 7447,3838 7440,3817 7432,3796 7424,3777 7416,3758 7406,3741 7406,3741 7396,3723 7385,3706 7374,3689 7361,3671 7347,3654 7332,3637 7316,3620 "
       style="stroke:#000000;stroke-width:7;stroke-linecap:butt;stroke-linejoin:bevel"
       id="polygon156" />
    <!-- Line -->
    <polyline
       points="7812,4214 7812,4211 7812,4205 7811,4193 7811,4176 7810,4153 7808,4124 7806,4091 7804,4054 7801,4015 7798,3976 7795,3937 7791,3899 7786,3863 7782,3829 7776,3797 7771,3768 7765,3741 7758,3715 7750,3692 7742,3669 7733,3648 7722,3628 7711,3609 7699,3589 7686,3571 7672,3552 7657,3534 7641,3515 7623,3497 7604,3479 7585,3460 7564,3442 7542,3424 7519,3406 7496,3389 7472,3371 7448,3354 7423,3337 7399,3321 7374,3305 7350,3290 7325,3275 7301,3260 7278,3246 7254,3232 7231,3219 7208,3205 7185,3192 7161,3178 7138,3165 7114,3151 7089,3137 7064,3123 7039,3110 7013,3096 6986,3083 6960,3070 6933,3057 6905,3045 6878,3034 6851,3023 6825,3013 6798,3005 6772,2997 6747,2990 6722,2984 6697,2979 6673,2975 6649,2972 6626,2971 6603,2970 6580,2971 6557,2972 6533,2975 6509,2979 6484,2984 6459,2990 6434,2997 6408,3005 6381,3013 6355,3023 6328,3034 6300,3045 6273,3057 6246,3070 6220,3083 6193,3096 6167,3110 6142,3123 6117,3137 6092,3151 6068,3165 6044,3178 6021,3192 5998,3205 5975,3219 5952,3232 5928,3246 5904,3260 5880,3275 5856,3290 5831,3305 5807,3321 5782,3337 5758,3354 5733,3371 5709,3389 5686,3406 5664,3424 5642,3442 5621,3460 5601,3479 5582,3497 5565,3515 5548,3534 5533,3552 5519,3571 5506,3589 5494,3609 5483,3628 5472,3648 5463,3669 5454,3691 5446,3713 5439,3737 5432,3761 5426,3786 5420,3812 5415,3838 5411,3865 5407,3893 5404,3921 5401,3949 5399,3977 5397,4004 5396,4032 5395,4059 5394,4086 5393,4112 5393,4138 5393,4164 5393,4189 5393,4214 5393,4239 5393,4264 5393,4290 5393,4316 5394,4342 5395,4369 5396,4396 5397,4423 5399,4451 5401,4479 5404,4507 5407,4535 5411,4562 5415,4589 5420,4616 5426,4641 5432,4666 5439,4691 5446,4714 5454,4737 5463,4758 5472,4779 5483,4799 5494,4819 5506,4838 5519,4856 5533,4875 5548,4893 5565,4912 5582,4930 5601,4948 5621,4967 5642,4985 5664,5003 5686,5021 5709,5039 5733,5056 5758,5073 5782,5090 5807,5106 5831,5122 5856,5137 5880,5152 5904,5167 5928,5181 5952,5195 5975,5208 5998,5222 6021,5235 6044,5249 6068,5262 6092,5276 6117,5290 6142,5304 6167,5317 6193,5331 6220,5344 6246,5357 6273,5370 6301,5382 6328,5393 6355,5404 6381,5414 6408,5422 6434,5430 6459,5437 6484,5443 6509,5448 6533,5452 6557,5455 6580,5456 6603,5457 6626,5456 6649,5455 6673,5452 6697,5448 6722,5443 6747,5437 6772,5430 6798,5422 6825,5414 6851,5404 6878,5393 6905,5382 6933,5370 6960,5357 6986,5344 7013,5331 7039,5317 7064,5304 7089,5290 7114,5276 7138,5262 7161,5249 7185,5235 7208,5222 7231,5208 7254,5195 7278,5181 7301,5167 7325,5152 7350,5137 7374,5122 7399,5106 7423,5090 7448,5073 7472,5056 7496,5039 7519,5021 7542,5003 7564,4985 7585,4967 7604,4948 7623,4930 7641,4912 7657,4893 7672,4875 7686,4856 7699,4838 7711,4819 7722,4799 7733,4779 7742,4758 7750,4736 7758,4712 7765,4687 7771,4660 7776,4630 7782,4599 7786,4565 7791,4529 7795,4491 7798,4452 7801,4412 7804,4374 7806,4337 7808,4304 7810,4275 7811,4252 7811,4235 7812,4223 7812,4217 7812,4214 "
       style="stroke:#000000;stroke-width:7;stroke-linecap:butt;stroke-linejoin:bevel"
       id="polyline158" />
    <!-- Line -->
    <polyline
       points="4800,1200 3000,4200 6600,4200 "
       style="stroke:#000000;stroke-width:15;stroke-linecap:butt;stroke-linejoin:miter"
       id="polyline160" />
    <!-- Line -->
    <polyline
       points="4800,7200 3000,4200 "
       style="stroke:#000000;stroke-width:15;stroke-linecap:butt;stroke-linejoin:miter"
       id="polyline162" />
    <!-- Line -->
    <polyline
       points="8400,7200 4800,7200 6600,4200 "
       style="stroke:#000000;stroke-width:15;stroke-linecap:butt;stroke-linejoin:miter"
       id="polyline164" />
    <!-- Line -->
    <polyline
       points="10200,4200 8400,7200 6600,4200 "
       style="stroke:#000000;stroke-width:15;stroke-linecap:butt;stroke-linejoin:miter"
       id="polyline166" />
    <!-- Line -->
    <polyline
       points="6600,4200 10200,4200 8400,1200 6600,4200 "
       style="stroke:#000000;stroke-width:15;stroke-linecap:butt;stroke-linejoin:miter"
       id="polyline168" />
    <!-- Line -->
    <polyline
       points="6600,4200 4800,1200 8400,1200 "
       style="stroke:#000000;stroke-width:15;stroke-linecap:butt;stroke-linejoin:miter"
       id="polyline170" />
    <!-- Circle -->
    <circle
       cx="3000"
       cy="4200"
       r="75"
       style="fill:#ffffff;stroke:#000000;stroke-width:7"
       id="circle172" />
    <!-- Circle -->
    <circle
       cx="4800"
       cy="7200"
       r="75"
       style="fill:#ffffff;stroke:#000000;stroke-width:7"
       id="circle174" />
    <!-- Circle -->
    <circle
       cx="8400"
       cy="7200"
       r="75"
       style="fill:#ffffff;stroke:#000000;stroke-width:7"
       id="circle176" />
    <!-- Circle -->
    <circle
       cx="8400"
       cy="1200"
       r="75"
       style="fill:#ffffff;stroke:#000000;stroke-width:7"
       id="circle178" />
    <!-- Circle -->
    <circle
       cx="10200"
       cy="4200"
       r="75"
       style="fill:#ffffff;stroke:#000000;stroke-width:7"
       id="circle180" />
    <!-- Circle -->
    <circle
       cx="6600"
       cy="4200"
       r="75"
       style="fill:#ffffff;stroke:#000000;stroke-width:7"
       id="circle182" />
    <!-- Circle -->
    <circle
       cx="4800"
       cy="1200"
       r="75"
       style="fill:#ffffff;stroke:#000000;stroke-width:7"
       id="circle184" />
    <text
       xml:space="preserve"
       x="9681.3115"
       y="2541.4675"
       font-style="normal"
       font-weight="normal"
       font-size="288"
       id="text144-7"
       style="font-style:normal;font-weight:normal;font-size:288px;font-family:Times;text-anchor:start;fill:#000000;stroke-width:0.025in">$\xi$</text>
  </g>
</svg>
