<?xml version="1.0" standalone="no"?>
<!DOCTYPE svg PUBLIC "-//W3C//DTD SVG 1.1//EN"
"http://www.w3.org/Graphics/SVG/1.1/DTD/svg11.dtd">
<!-- Creator: fig2dev Version 3.2 Patchlevel 5d -->
<!-- CreationDate: Fri May 24 09:23:00 2013 -->
<!-- Magnification: 1.000 -->
<svg	xmlns="http://www.w3.org/2000/svg"
	xmlns:xlink="http://www.w3.org/1999/xlink"
	width="7.8in" height="9.0in"
	viewBox="3138 1638 9324 10824">
<g style="stroke-width:.025in; fill:none">
<!-- Line -->
<polygon points="10125,7050
7800,5700
7800,8400
10125,7050
" style="stroke:#000000;stroke-width:7;
stroke-linejoin:miter; stroke-linecap:butt;
fill:#008f8f;
"/>
<!-- Line -->
<polygon points="7800,5700
7800,8400
5475,7050
7800,5700
" style="stroke:#000000;stroke-width:7;
stroke-linejoin:miter; stroke-linecap:butt;
fill:#008f8f;
"/>
<!-- Line -->
<polygon points="7800,5700
5475,4350
5475,7050
7800,5700
" style="stroke:#000000;stroke-width:7;
stroke-linejoin:miter; stroke-linecap:butt;
fill:#00d1d1;
"/>
<!-- Line -->
<polygon points="10125,4350
10125,7050
7800,5700
10125,4350
" style="stroke:#000000;stroke-width:7;
stroke-linejoin:miter; stroke-linecap:butt;
fill:#00d1d1;
"/>
<!-- Line -->
<polygon points="10125,7050
10125,9750
7800,8400
10125,7050
" style="stroke:#000000;stroke-width:7;
stroke-linejoin:miter; stroke-linecap:butt;
fill:#00d1d1;
"/>
<!-- Line -->
<polygon points="7800,8400
5475,7050
5475,9750
7800,8400
" style="stroke:#000000;stroke-width:7;
stroke-linejoin:miter; stroke-linecap:butt;
fill:#00d1d1;
"/>
<!-- Line -->
<polygon points="5475,4350
5475,7050
3150,5700
5475,4350
" style="stroke:#000000;stroke-width:7;
stroke-linejoin:miter; stroke-linecap:butt;
fill:#87cfff;
"/>
<!-- Line -->
<polygon points="5475,7050
5475,9750
3150,8400
5475,7050
" style="stroke:#000000;stroke-width:7;
stroke-linejoin:miter; stroke-linecap:butt;
fill:#87cfff;
"/>
<!-- Line -->
<polygon points="7800,3000
7800,5700
5475,4350
7800,3000
" style="stroke:#000000;stroke-width:7;
stroke-linejoin:miter; stroke-linecap:butt;
fill:#87cfff;
"/>
<!-- Line -->
<polygon points="7800,3000
7800,5700
10125,4350
7800,3000
" style="stroke:#000000;stroke-width:7;
stroke-linejoin:miter; stroke-linecap:butt;
fill:#87cfff;
"/>
<!-- Line -->
<polygon points="12450,5700
10125,4350
10125,7050
12450,5700
" style="stroke:#000000;stroke-width:7;
stroke-linejoin:miter; stroke-linecap:butt;
fill:#87cfff;
"/>
<!-- Line -->
<polygon points="12450,8400
10125,7050
10125,9750
12450,8400
" style="stroke:#000000;stroke-width:7;
stroke-linejoin:miter; stroke-linecap:butt;
fill:#87cfff;
"/>
<!-- Line -->
<polygon points="7800,8400
7800,11100
10125,9750
7800,8400
" style="stroke:#000000;stroke-width:7;
stroke-linejoin:miter; stroke-linecap:butt;
fill:#87cfff;
"/>
<!-- Line -->
<polygon points="7800,8400
7800,11100
5475,9750
7800,8400
" style="stroke:#000000;stroke-width:7;
stroke-linejoin:miter; stroke-linecap:butt;
fill:#87cfff;
"/>
<!-- Line -->
<polygon points="12450,3000
12450,5700
10125,4350
12450,3000
" style="stroke:#000000;stroke-width:7;
stroke-linejoin:miter; stroke-linecap:butt;
fill:#c3e7ff;
"/>
<!-- Line -->
<polygon points="7800,3000
5475,1650
5475,4350
7800,3000
" style="stroke:#000000;stroke-width:7;
stroke-linejoin:miter; stroke-linecap:butt;
fill:#c3e7ff;
"/>
<!-- Line -->
<polygon points="5475,4350
3150,3000
3150,5700
5475,4350
" style="stroke:#000000;stroke-width:7;
stroke-linejoin:miter; stroke-linecap:butt;
fill:#c3e7ff;
"/>
<!-- Line -->
<polygon points="5475,7050
3150,5700
3150,8400
5475,7050
" style="stroke:#000000;stroke-width:7;
stroke-linejoin:miter; stroke-linecap:butt;
fill:#c3e7ff;
"/>
<!-- Line -->
<polygon points="12450,5700
12450,8400
10125,7050
12450,5700
" style="stroke:#000000;stroke-width:7;
stroke-linejoin:miter; stroke-linecap:butt;
fill:#c3e7ff;
"/>
<!-- Line -->
<polygon points="12450,8400
12450,11100
10125,9750
12450,8400
" style="stroke:#000000;stroke-width:7;
stroke-linejoin:miter; stroke-linecap:butt;
fill:#c3e7ff;
"/>
<!-- Line -->
<polygon points="10125,9750
10125,12450
7800,11100
10125,9750
" style="stroke:#000000;stroke-width:7;
stroke-linejoin:miter; stroke-linecap:butt;
fill:#c3e7ff;
"/>
<!-- Line -->
<polygon points="7800,11100
5475,9750
5475,12450
7800,11100
" style="stroke:#000000;stroke-width:7;
stroke-linejoin:miter; stroke-linecap:butt;
fill:#c3e7ff;
"/>
<!-- Line -->
<polygon points="5475,9750
3150,8400
3150,11100
5475,9750
" style="stroke:#000000;stroke-width:7;
stroke-linejoin:miter; stroke-linecap:butt;
fill:#c3e7ff;
"/>
<!-- Line -->
<polygon points="10125,1650
10125,4350
7800,3000
10125,1650
" style="stroke:#000000;stroke-width:7;
stroke-linejoin:miter; stroke-linecap:butt;
fill:#c3e7ff;
"/>
<!-- Line -->
<polyline points="7800,5625
7800,8400
" style="stroke:#000000;stroke-width:45;
stroke-linejoin:miter; stroke-linecap:butt;
"/>
<!-- Line -->
<polyline points="7200,7050
8040,7050
" style="stroke:#000000;stroke-width:45;
stroke-linejoin:miter; stroke-linecap:butt;
"/>
<!-- Arrowhead on XXXpoint 7200 7050 - 8460 7050-->
<polygon points="8003 7140
8363 7050
8003 6960
8003 7140

" style="stroke:#000000;stroke-width:45;stroke-miterlimit:8;
fill:#000000;"/>
<!-- Line -->
<polyline points="8850,3975
9068,3598
" style="stroke:#000000;stroke-width:15;
stroke-linejoin:miter; stroke-linecap:butt;
"/>
<!-- Arrowhead on XXXpoint 8850 3975 - 9203 3365-->
<polygon points="9118 3630
9187 3393
9014 3570
9118 3630

" style="stroke:#000000;stroke-width:15;stroke-miterlimit:8;
fill:#000000;"/>
<!-- Text -->
<text xml:space="preserve" x="4050" y="10050" fill="#000000"  font-family="Times" font-style="italic" font-weight="normal" font-size="576" text-anchor="middle">4</text>
<!-- Text -->
<text xml:space="preserve" x="4650" y="8625" fill="#000000"  font-family="Times" font-style="italic" font-weight="normal" font-size="576" text-anchor="middle">3</text>
<!-- Text -->
<text xml:space="preserve" x="3975" y="7275" fill="#000000"  font-family="Times" font-style="italic" font-weight="normal" font-size="576" text-anchor="middle">4</text>
<!-- Text -->
<text xml:space="preserve" x="4650" y="5850" fill="#000000"  font-family="Times" font-style="italic" font-weight="normal" font-size="576" text-anchor="middle">3</text>
<!-- Text -->
<text xml:space="preserve" x="4125" y="4575" fill="#000000"  font-family="Times" font-style="italic" font-weight="normal" font-size="576" text-anchor="middle">4</text>
<!-- Text -->
<text xml:space="preserve" x="6375" y="11325" fill="#000000"  font-family="Times" font-style="italic" font-weight="normal" font-size="576" text-anchor="middle">4</text>
<!-- Text -->
<text xml:space="preserve" x="6900" y="10050" fill="#000000"  font-family="Times" font-style="italic" font-weight="normal" font-size="576" text-anchor="middle">3</text>
<!-- Text -->
<text xml:space="preserve" x="6375" y="8700" fill="#000000"  font-family="Times" font-style="italic" font-weight="normal" font-size="576" text-anchor="middle">2</text>
<!-- Text -->
<text xml:space="preserve" x="6900" y="7275" fill="#000000"  font-family="Times" font-style="italic" font-weight="normal" font-size="576" text-anchor="middle">1</text>
<!-- Text -->
<text xml:space="preserve" x="6375" y="5850" fill="#000000"  font-family="Times" font-style="italic" font-weight="normal" font-size="576" text-anchor="middle">2</text>
<!-- Text -->
<text xml:space="preserve" x="6975" y="4575" fill="#000000"  font-family="Times" font-style="italic" font-weight="normal" font-size="576" text-anchor="middle">3</text>
<!-- Text -->
<text xml:space="preserve" x="6375" y="3225" fill="#000000"  font-family="Times" font-style="italic" font-weight="normal" font-size="576" text-anchor="middle">4</text>
<!-- Text -->
<text xml:space="preserve" x="9225" y="11325" fill="#000000"  font-family="Times" font-style="italic" font-weight="normal" font-size="576" text-anchor="middle">4</text>
<!-- Text -->
<text xml:space="preserve" x="8700" y="10050" fill="#000000"  font-family="Times" font-style="italic" font-weight="normal" font-size="576" text-anchor="middle">3</text>
<!-- Text -->
<text xml:space="preserve" x="9150" y="8700" fill="#000000"  font-family="Times" font-style="italic" font-weight="normal" font-size="576" text-anchor="middle">2</text>
<!-- Text -->
<text xml:space="preserve" x="8775" y="7275" fill="#000000"  font-family="Times" font-style="italic" font-weight="normal" font-size="576" text-anchor="middle">1</text>
<!-- Text -->
<text xml:space="preserve" x="9150" y="5925" fill="#000000"  font-family="Times" font-style="italic" font-weight="normal" font-size="576" text-anchor="middle">2</text>
<!-- Text -->
<text xml:space="preserve" x="8775" y="4575" fill="#000000"  font-family="Times" font-style="italic" font-weight="normal" font-size="576" text-anchor="middle">3</text>
<!-- Text -->
<text xml:space="preserve" x="9150" y="3225" fill="#000000"  font-family="Times" font-style="italic" font-weight="normal" font-size="576" text-anchor="middle">4</text>
<!-- Text -->
<text xml:space="preserve" x="11175" y="8700" fill="#000000"  font-family="Times" font-style="italic" font-weight="normal" font-size="576" text-anchor="middle">3</text>
<!-- Text -->
<text xml:space="preserve" x="11625" y="7275" fill="#000000"  font-family="Times" font-style="italic" font-weight="normal" font-size="576" text-anchor="middle">4</text>
<!-- Text -->
<text xml:space="preserve" x="11175" y="5925" fill="#000000"  font-family="Times" font-style="italic" font-weight="normal" font-size="576" text-anchor="middle">3</text>
<!-- Text -->
<text xml:space="preserve" x="11550" y="4575" fill="#000000"  font-family="Times" font-style="italic" font-weight="normal" font-size="576" text-anchor="middle">4</text>
<!-- Line -->
<polyline points="6412,8865
6630,9242
" style="stroke:#000000;stroke-width:15;
stroke-linejoin:miter; stroke-linecap:butt;
"/>
<!-- Arrowhead on XXXpoint 6412 8865 - 6765 9475-->
<polygon points="6576 9269
6749 9447
6680 9209
6576 9269

" style="stroke:#000000;stroke-width:15;stroke-miterlimit:8;
fill:#000000;"/>
<!-- Text -->
<text xml:space="preserve" x="11625" y="10050" fill="#000000"  font-family="Times" font-style="italic" font-weight="normal" font-size="576" text-anchor="middle">4</text>
<!-- Line -->
<polyline points="6412,7934
6630,7557
" style="stroke:#000000;stroke-width:15;
stroke-linejoin:miter; stroke-linecap:butt;
"/>
<!-- Arrowhead on XXXpoint 6412 7934 - 6765 7324-->
<polygon points="6680 7589
6749 7352
6576 7529
6680 7589

" style="stroke:#000000;stroke-width:15;stroke-miterlimit:8;
fill:#000000;"/>
<!-- Line -->
<polyline points="6487,5234
6705,4857
" style="stroke:#000000;stroke-width:15;
stroke-linejoin:miter; stroke-linecap:butt;
"/>
<!-- Arrowhead on XXXpoint 6487 5234 - 6840 4624-->
<polygon points="6755 4889
6824 4652
6651 4829
6755 4889

" style="stroke:#000000;stroke-width:15;stroke-miterlimit:8;
fill:#000000;"/>
<!-- Line -->
<polyline points="6450,6150
6668,6527
" style="stroke:#000000;stroke-width:15;
stroke-linejoin:miter; stroke-linecap:butt;
"/>
<!-- Arrowhead on XXXpoint 6450 6150 - 6803 6760-->
<polygon points="6614 6554
6787 6732
6718 6494
6614 6554

" style="stroke:#000000;stroke-width:15;stroke-miterlimit:8;
fill:#000000;"/>
<!-- Line -->
<polyline points="4200,7425
4418,7802
" style="stroke:#000000;stroke-width:15;
stroke-linejoin:miter; stroke-linecap:butt;
"/>
<!-- Arrowhead on XXXpoint 4200 7425 - 4553 8035-->
<polygon points="4364 7829
4537 8007
4468 7769
4364 7829

" style="stroke:#000000;stroke-width:15;stroke-miterlimit:8;
fill:#000000;"/>
<!-- Line -->
<polyline points="4200,6600
4418,6223
" style="stroke:#000000;stroke-width:15;
stroke-linejoin:miter; stroke-linecap:butt;
"/>
<!-- Arrowhead on XXXpoint 4200 6600 - 4553 5990-->
<polygon points="4468 6255
4537 6018
4364 6195
4468 6255

" style="stroke:#000000;stroke-width:15;stroke-miterlimit:8;
fill:#000000;"/>
<!-- Line -->
<polyline points="5175,8400
5610,8400
" style="stroke:#000000;stroke-width:15;
stroke-linejoin:miter; stroke-linecap:butt;
"/>
<!-- Arrowhead on XXXpoint 5175 8400 - 5880 8400-->
<polygon points="5608 8460
5848 8400
5608 8340
5608 8460

" style="stroke:#000000;stroke-width:15;stroke-miterlimit:8;
fill:#000000;"/>
<!-- Line -->
<polyline points="5175,5700
5610,5700
" style="stroke:#000000;stroke-width:15;
stroke-linejoin:miter; stroke-linecap:butt;
"/>
<!-- Arrowhead on XXXpoint 5175 5700 - 5880 5700-->
<polygon points="5608 5760
5848 5700
5608 5640
5608 5760

" style="stroke:#000000;stroke-width:15;stroke-miterlimit:8;
fill:#000000;"/>
<!-- Line -->
<polyline points="6375,10650
6593,10273
" style="stroke:#000000;stroke-width:15;
stroke-linejoin:miter; stroke-linecap:butt;
"/>
<!-- Arrowhead on XXXpoint 6375 10650 - 6728 10040-->
<polygon points="6643 10305
6712 10068
6539 10245
6643 10305

" style="stroke:#000000;stroke-width:15;stroke-miterlimit:8;
fill:#000000;"/>
<!-- Line -->
<polyline points="4200,9375
4418,8998
" style="stroke:#000000;stroke-width:15;
stroke-linejoin:miter; stroke-linecap:butt;
"/>
<!-- Arrowhead on XXXpoint 4200 9375 - 4553 8765-->
<polygon points="4468 9030
4537 8793
4364 8970
4468 9030

" style="stroke:#000000;stroke-width:15;stroke-miterlimit:8;
fill:#000000;"/>
<!-- Line -->
<polyline points="7500,9600
7935,9600
" style="stroke:#000000;stroke-width:15;
stroke-linejoin:miter; stroke-linecap:butt;
"/>
<!-- Arrowhead on XXXpoint 7500 9600 - 8205 9600-->
<polygon points="7933 9660
8173 9600
7933 9540
7933 9660

" style="stroke:#000000;stroke-width:15;stroke-miterlimit:8;
fill:#000000;"/>
<!-- Line -->
<polyline points="7425,4200
7860,4200
" style="stroke:#000000;stroke-width:15;
stroke-linejoin:miter; stroke-linecap:butt;
"/>
<!-- Arrowhead on XXXpoint 7425 4200 - 8130 4200-->
<polygon points="7858 4260
8098 4200
7858 4140
7858 4260

" style="stroke:#000000;stroke-width:15;stroke-miterlimit:8;
fill:#000000;"/>
<!-- Line -->
<polyline points="6525,3375
6743,3752
" style="stroke:#000000;stroke-width:15;
stroke-linejoin:miter; stroke-linecap:butt;
"/>
<!-- Arrowhead on XXXpoint 6525 3375 - 6878 3985-->
<polygon points="6689 3779
6862 3957
6793 3719
6689 3779

" style="stroke:#000000;stroke-width:15;stroke-miterlimit:8;
fill:#000000;"/>
<!-- Line -->
<polyline points="4275,4725
4493,5102
" style="stroke:#000000;stroke-width:15;
stroke-linejoin:miter; stroke-linecap:butt;
"/>
<!-- Arrowhead on XXXpoint 4275 4725 - 4628 5335-->
<polygon points="4439 5129
4612 5307
4543 5069
4439 5129

" style="stroke:#000000;stroke-width:15;stroke-miterlimit:8;
fill:#000000;"/>
<!-- Line -->
<polyline points="9825,5700
10260,5700
" style="stroke:#000000;stroke-width:15;
stroke-linejoin:miter; stroke-linecap:butt;
"/>
<!-- Arrowhead on XXXpoint 9825 5700 - 10530 5700-->
<polygon points="10258 5760
10498 5700
10258 5640
10258 5760

" style="stroke:#000000;stroke-width:15;stroke-miterlimit:8;
fill:#000000;"/>
<!-- Line -->
<polyline points="9825,8400
10260,8400
" style="stroke:#000000;stroke-width:15;
stroke-linejoin:miter; stroke-linecap:butt;
"/>
<!-- Arrowhead on XXXpoint 9825 8400 - 10530 8400-->
<polygon points="10258 8460
10498 8400
10258 8340
10258 8460

" style="stroke:#000000;stroke-width:15;stroke-miterlimit:8;
fill:#000000;"/>
<!-- Line -->
<polyline points="8887,4740
9105,5117
" style="stroke:#000000;stroke-width:15;
stroke-linejoin:miter; stroke-linecap:butt;
"/>
<!-- Arrowhead on XXXpoint 8887 4740 - 9240 5350-->
<polygon points="9051 5144
9224 5322
9155 5084
9051 5144

" style="stroke:#000000;stroke-width:15;stroke-miterlimit:8;
fill:#000000;"/>
<!-- Line -->
<polyline points="8887,7440
9105,7817
" style="stroke:#000000;stroke-width:15;
stroke-linejoin:miter; stroke-linecap:butt;
"/>
<!-- Arrowhead on XXXpoint 8887 7440 - 9240 8050-->
<polygon points="9051 7844
9224 8022
9155 7784
9051 7844

" style="stroke:#000000;stroke-width:15;stroke-miterlimit:8;
fill:#000000;"/>
<!-- Line -->
<polyline points="8887,10140
9105,10517
" style="stroke:#000000;stroke-width:15;
stroke-linejoin:miter; stroke-linecap:butt;
"/>
<!-- Arrowhead on XXXpoint 8887 10140 - 9240 10750-->
<polygon points="9051 10544
9224 10722
9155 10484
9051 10544

" style="stroke:#000000;stroke-width:15;stroke-miterlimit:8;
fill:#000000;"/>
<!-- Line -->
<polyline points="8775,6600
8993,6223
" style="stroke:#000000;stroke-width:15;
stroke-linejoin:miter; stroke-linecap:butt;
"/>
<!-- Arrowhead on XXXpoint 8775 6600 - 9128 5990-->
<polygon points="9043 6255
9112 6018
8939 6195
9043 6255

" style="stroke:#000000;stroke-width:15;stroke-miterlimit:8;
fill:#000000;"/>
<!-- Line -->
<polyline points="11212,5309
11430,4932
" style="stroke:#000000;stroke-width:15;
stroke-linejoin:miter; stroke-linecap:butt;
"/>
<!-- Arrowhead on XXXpoint 11212 5309 - 11565 4699-->
<polygon points="11480 4964
11549 4727
11376 4904
11480 4964

" style="stroke:#000000;stroke-width:15;stroke-miterlimit:8;
fill:#000000;"/>
<!-- Line -->
<polyline points="11175,8025
11393,7648
" style="stroke:#000000;stroke-width:15;
stroke-linejoin:miter; stroke-linecap:butt;
"/>
<!-- Arrowhead on XXXpoint 11175 8025 - 11528 7415-->
<polygon points="11443 7680
11512 7443
11339 7620
11443 7680

" style="stroke:#000000;stroke-width:15;stroke-miterlimit:8;
fill:#000000;"/>
<!-- Line -->
<polyline points="11175,6075
11393,6452
" style="stroke:#000000;stroke-width:15;
stroke-linejoin:miter; stroke-linecap:butt;
"/>
<!-- Arrowhead on XXXpoint 11175 6075 - 11528 6685-->
<polygon points="11339 6479
11512 6657
11443 6419
11339 6479

" style="stroke:#000000;stroke-width:15;stroke-miterlimit:8;
fill:#000000;"/>
<!-- Line -->
<polyline points="11175,8850
11393,9227
" style="stroke:#000000;stroke-width:15;
stroke-linejoin:miter; stroke-linecap:butt;
"/>
<!-- Arrowhead on XXXpoint 11175 8850 - 11528 9460-->
<polygon points="11339 9254
11512 9432
11443 9194
11339 9254

" style="stroke:#000000;stroke-width:15;stroke-miterlimit:8;
fill:#000000;"/>
<!-- Line -->
<polyline points="8850,9375
9068,8998
" style="stroke:#000000;stroke-width:15;
stroke-linejoin:miter; stroke-linecap:butt;
"/>
<!-- Arrowhead on XXXpoint 8850 9375 - 9203 8765-->
<polygon points="9118 9030
9187 8793
9014 8970
9118 9030

" style="stroke:#000000;stroke-width:15;stroke-miterlimit:8;
fill:#000000;"/>
</g>
</svg>
